<svg width="32" height="26" viewBox="0 0 32 26" fill="none" xmlns="http://www.w3.org/2000/svg">
<path d="M1 0C0.447 0 0 0.485984 0 1.08398V24.916C0 25.515 0.447 26 1 26H31C31.553 26 32 25.515 32 24.916V1.08398C32 0.484984 31.553 0 31 0H1ZM23 1C23.553 1 24 1.447 24 2C24 2.553 23.553 3 23 3C22.447 3 22 2.553 22 2C22 1.447 22.447 1 23 1ZM26 1C26.553 1 27 1.447 27 2C27 2.553 26.553 3 26 3C25.447 3 25 2.553 25 2C25 1.447 25.447 1 26 1ZM29 1C29.553 1 30 1.447 30 2C30 2.553 29.553 3 29 3C28.447 3 28 2.553 28 2C28 1.447 28.447 1 29 1ZM1.9375 4H30.0625C30.5805 4 31.002 4.392 31.002 4.875V24.125C31.002 24.608 30.5805 25 30.0625 25H1.9375C1.4195 25 1 24.608 1 24.125V4.875C1 4.392 1.4195 4 1.9375 4ZM3.03125 5.99219V6.99219H15V5.99219H3.03125ZM17 5.99219V17.9922H29V5.99219H17ZM3 7.99219V8.99219H15V7.99219H3ZM19.9629 8.00195C20.5059 8.00095 20.9453 8.44138 20.9453 8.98438C20.9453 9.52737 20.5059 9.9668 19.9629 9.9668C19.4189 9.9668 18.9785 9.52737 18.9785 8.98438C18.9785 8.44138 19.4189 8.00195 19.9629 8.00195ZM3 9.99219V10.9922H15V9.99219H3ZM22.9551 10.9688C23.089 10.952 23.2347 10.9881 23.3652 11.1191L25.125 13.0801L21.6172 16.9922H18.5312H18.5C18.224 16.9922 18 16.7692 18 16.4922C18 16.3542 18.0662 16.2394 18.1562 16.1484H18.125L22.6172 11.1367C22.6982 11.0557 22.8212 10.9855 22.9551 10.9688ZM3 11.9922V12.9922H15V11.9922H3ZM26.9316 12.0176C27.0535 12.0105 27.1874 12.056 27.3184 12.1875L28 12.9941V16.9941C25.709 17.0041 24.1501 16.9941 22.2871 16.9941L26.6172 12.1641V12.168C26.6987 12.086 26.8098 12.0247 26.9316 12.0176ZM3 13.9922V14.9922H15V13.9922H3ZM8.03125 15.9922V16.9922H15V15.9922H8.03125ZM3.03711 19.9922V20.9922H29.0371V19.9922H3.03711ZM3.03711 21.9922V22.9922H29.0371V21.9922H3.03711Z" fill="black"/>
</svg>
