<svg width="40" height="33" viewBox="0 0 40 33" fill="none" xmlns="http://www.w3.org/2000/svg">
<path fill-rule="evenodd" clip-rule="evenodd" d="M26.555 0H13.445C11.3708 0 9.51167 1.2679 8.7725 3.18666L7.54917 5.54015C7.3025 6.17946 6.68333 6.60264 5.99167 6.60264H5C2.25 6.60264 0 8.82992 0 11.5521V28.0505C0 30.7719 2.25 33 5 33H35C37.75 33 40 30.7719 40 28.0505V11.5521C40 8.82992 37.75 6.60264 35 6.60264H34.0092C33.3175 6.60264 32.6975 6.17946 32.4508 5.54015L31.2275 3.18666C30.4883 1.2679 28.63 0 26.555 0Z" fill="#475E6D"/>
<path fill-rule="evenodd" clip-rule="evenodd" d="M26.6673 18.6241C26.6673 22.2686 23.6832 25.2234 20.0007 25.2234C16.319 25.2234 13.334 22.2686 13.334 18.6241C13.334 14.9788 16.319 12.0239 20.0007 12.0239C23.6832 12.0239 26.6673 14.9788 26.6673 18.6241Z" fill="white"/>
</svg>
