<svg width="51" height="51" viewBox="0 0 51 51" fill="none" xmlns="http://www.w3.org/2000/svg">
<path fill-rule="evenodd" clip-rule="evenodd" d="M25.5 1C11.969 1 1 11.969 1 25.5C1 39.031 11.969 50 25.5 50C39.031 50 50 39.031 50 25.5C50 11.969 39.031 1 25.5 1ZM0 25.5C0 11.4167 11.4167 0 25.5 0C39.5833 0 51 11.4167 51 25.5C51 39.5833 39.5833 51 25.5 51C11.4167 51 0 39.5833 0 25.5Z" fill="white"/>
<path d="M28.4716 29.5205L24.6445 24.1319C23.8704 22.7524 19.7423 21.2005 19.7423 21.2005C18.8393 20.7263 19.4843 18.8726 19.4843 18.8726C20.3874 18.8726 20.9034 18.1397 20.9034 18.1397C21.8064 17.062 21.3764 14.5616 21.3764 14.5616C21.3764 12.1475 18.6243 10.5956 18.6243 10.5956C15.7432 7.18998 13.8512 9.86275 13.8512 9.86275C11.3571 12.0182 14.2812 14.3461 14.2812 14.3461C15.3132 16.1567 16.7323 16.8033 16.7323 16.8033C16.7753 20.4676 16.4312 20.1227 16.4312 20.1227L13.8512 19.9934C11.6581 19.9503 10.9701 20.8556 10.9701 20.8556C9.76608 22.2351 6.19698 28.529 6.19698 28.529C4.86395 30.512 5.85297 31.7622 5.85297 31.7622C7.96003 34.7367 11.6581 38.1424 11.6581 38.1424L12.0881 38.0993C21.6774 37.8406 25.9775 42.8413 25.9775 42.8413C26.0205 40.6858 24.6015 37.3233 24.6015 37.3233C25.6765 37.5819 25.6335 37.3233 25.6335 37.3233L28.5146 32.4951C29.8476 30.2103 28.4716 29.5205 28.4716 29.5205ZM13.3352 36.0731C12.9482 36.3749 12.4751 36.0731 12.4751 36.0731L8.26104 30.6414C7.87403 30.1672 8.26104 29.6499 8.26104 29.6499L11.6581 25.382L14.4102 31.1156C15.6142 33.9608 13.3352 36.0731 13.3352 36.0731ZM18.5383 26.1149C18.0223 26.8047 17.5923 26.934 17.5923 26.934L18.0653 27.8393C18.1513 27.7962 18.2803 27.8393 18.2803 27.8393C18.6243 27.9255 18.5383 28.0548 18.5383 28.0548C18.3233 27.9255 18.2803 28.0117 18.2803 28.0117C18.4523 28.0979 18.3663 28.3135 18.3663 28.3135C18.0223 27.8393 17.8073 28.3566 17.8073 28.3566C17.7643 28.1841 17.8503 27.9255 17.8503 27.9255L17.3773 27.0202C16.8183 27.1064 16.5173 26.9771 16.5173 26.9771L16.0872 27.8393C16.1732 28.0548 16.1302 28.2273 16.1302 28.2273C16.1302 28.141 15.9152 28.0117 15.9152 28.0117C15.7432 27.9686 15.6142 28.1841 15.6142 28.1841L15.5712 28.2273C15.5282 28.0117 15.7002 27.9255 15.7002 27.9255C15.6142 27.8824 15.4422 27.9686 15.4422 27.9686C15.5282 27.7099 15.9152 27.7962 15.9152 27.7962L16.3882 26.934C15.2272 26.546 15.1412 25.6407 15.1412 25.6407C14.7542 23.7008 16.3022 22.9679 16.3022 22.9679C17.9363 22.2351 18.2373 23.3559 18.2373 23.3559C18.2803 23.5284 18.4523 23.9594 18.4523 23.9594C18.4953 24.0888 18.4523 24.1319 18.4523 24.1319C18.2803 24.0888 18.1083 23.9163 18.1083 23.9163C18.0223 23.8301 17.7643 23.787 17.7643 23.787C17.5063 23.787 17.3343 23.4852 17.3343 23.4852C17.1193 23.2266 16.6463 23.399 16.6463 23.399C16.0012 23.6146 15.8722 24.175 15.8722 24.175C15.7002 25.0372 16.4742 25.382 16.4742 25.382C17.7643 25.6838 18.4953 24.563 18.4953 24.563C18.6243 24.8216 18.4523 25.0803 18.4523 25.0803C18.5813 24.9941 18.7103 24.7785 18.7103 24.7785C18.7963 25.0372 18.6243 25.3389 18.6243 25.3389C18.7533 25.2527 18.8823 24.9941 18.8823 24.9941C18.9253 25.6838 18.5383 26.1149 18.5383 26.1149ZM26.9235 32.7106L25.2465 35.5989C25.2465 35.5989 25.1175 36.2887 24.6445 35.9438L20.6454 31.8484C20.6454 31.8484 19.5703 30.2534 21.2904 26.6322C21.2904 26.6322 21.8064 24.6492 22.6664 26.0287L26.8805 30.8138C26.9235 30.7707 27.7835 31.3311 26.9235 32.7106Z" fill="white"/>
<path d="M43.3499 17.4932C42.8339 15.8119 42.3609 15.7257 42.3609 15.7257L36.2978 13.4409L36.1688 13.1822L35.9968 12.6218L36.0398 12.1476L36.2978 11.889C39.0068 4.99149 32.7287 5.5088 32.7287 5.5088C32.1697 5.68124 31.7396 5.89678 31.3956 6.19855C29.0306 8.18157 31.3096 12.708 31.3096 12.708H31.8686V13.1391V13.484V14.3031L31.0516 14.9066L27.1815 17.45C26.5365 17.9674 26.5795 18.4416 26.5795 18.4416L25.2895 26.6323C25.0315 27.4514 25.2895 27.7962 25.2895 27.7962L29.8046 36.0732V37.7545L30.3636 43.1L30.4066 43.0569L30.4496 43.0138C30.8366 42.6258 32.4277 41.117 35.3947 40.0824C35.3947 40.0824 36.4698 39.4788 36.6418 38.746C36.6418 38.746 36.7708 39.2202 37.1148 39.565C38.4908 39.2633 40.1249 39.0477 41.9739 39.0908L42.2749 39.134L42.7049 33.6591L45.5 25.2528L43.3499 17.4932ZM30.4066 33.3142L27.2675 27.1496L29.5036 20.1659C29.5036 20.1228 31.5246 24.4768 30.4066 33.3142ZM41.5439 31.9778C41.5439 31.9778 41.4149 31.5467 41.2429 30.8139V30.857C41.2429 30.857 41.2429 30.7277 41.1999 30.5552C40.6409 28.0549 39.6518 22.6663 40.2109 18.0105L42.9199 25.0804L41.5439 31.9778Z" fill="white"/>
<path d="M36.2752 24.0381V22.2998H36.1252V24.0381V24.1514V24.227C36.5752 24.3026 36.9502 24.6805 36.9502 25.0961C36.9502 25.5874 36.4627 25.9653 35.9002 25.9653C35.3002 25.9653 34.8502 25.5874 34.8502 25.0961C34.8502 24.6805 35.1877 24.3404 35.6752 24.227V24.1514V24.0381V22.2998H35.5252V24.0759C35.0377 24.227 34.7002 24.6049 34.7002 25.0584C34.7002 25.6252 35.2252 26.0786 35.9002 26.0786C36.5752 26.0786 37.1002 25.6252 37.1002 25.0584C37.1002 24.5671 36.7252 24.1892 36.2752 24.0381Z" fill="white"/>
<path d="M36.2752 24.8226V26.5609H36.1252V24.8226V24.747V24.6715C36.5752 24.5959 36.9502 24.218 36.9502 23.8023C36.9502 23.3111 36.4627 22.9332 35.9002 22.9332C35.3002 22.9332 34.8502 23.3111 34.8502 23.8023C34.8502 24.218 35.1877 24.5581 35.6752 24.6715V24.747V24.8604V26.5987H35.5252V24.8226C35.0377 24.6715 34.7002 24.2936 34.7002 23.8401C34.7002 23.2733 35.2252 22.8198 35.9002 22.8198C36.5752 22.8198 37.1002 23.2733 37.1002 23.8401C37.1002 24.2936 36.7252 24.6715 36.2752 24.8226Z" fill="white"/>
</svg>
