<svg width="52" height="52" viewBox="0 0 52 52" fill="none" xmlns="http://www.w3.org/2000/svg">
<path d="M51 26C51 39.8071 39.8071 51 26 51C12.1929 51 1 39.8071 1 26C1 12.1929 12.1929 1 26 1C39.8071 1 51 12.1929 51 26Z" fill="white"/>
<path fill-rule="evenodd" clip-rule="evenodd" d="M26 1.5C12.469 1.5 1.5 12.469 1.5 26C1.5 39.531 12.469 50.5 26 50.5C39.531 50.5 50.5 39.531 50.5 26C50.5 12.469 39.531 1.5 26 1.5ZM0.5 26C0.5 11.9167 11.9167 0.5 26 0.5C40.0833 0.5 51.5 11.9167 51.5 26C51.5 40.0833 40.0833 51.5 26 51.5C11.9167 51.5 0.5 40.0833 0.5 26Z" fill="#475E6D"/>
<path fill-rule="evenodd" clip-rule="evenodd" d="M30.0329 20.7325C30.0329 23.3461 27.8781 25.4651 25.2196 25.4651C22.5614 25.4651 20.4062 23.3461 20.4062 20.7325C20.4062 18.1186 22.5614 16 25.2196 16C27.8781 16 30.0329 18.1186 30.0329 20.7325ZM18 34.24V32.5639C18 28.6434 21.233 25.4651 25.22 25.4651C29.2074 25.4651 32.44 28.6434 32.44 32.5639V34.2155L18 34.24Z" fill="#475E6D"/>
<path d="M18 34.24H17.25V34.9913L18.0013 34.99L18 34.24ZM32.44 34.2155L32.4413 34.9655L33.19 34.9643V34.2155H32.44ZM29.2829 20.7325C29.2829 22.92 27.4759 24.7151 25.2196 24.7151V26.2151C28.2804 26.2151 30.7829 23.7722 30.7829 20.7325H29.2829ZM25.2196 24.7151C22.9636 24.7151 21.1562 22.9199 21.1562 20.7325H19.6562C19.6562 23.7722 22.1592 26.2151 25.2196 26.2151V24.7151ZM21.1562 20.7325C21.1562 18.5448 22.9636 16.75 25.2196 16.75V15.25C22.1593 15.25 19.6562 17.6924 19.6562 20.7325H21.1562ZM25.2196 16.75C27.476 16.75 29.2829 18.5447 29.2829 20.7325H30.7829C30.7829 17.6925 28.2803 15.25 25.2196 15.25V16.75ZM18.75 34.24V32.5639H17.25V34.24H18.75ZM18.75 32.5639C18.75 29.0695 21.6351 26.2151 25.22 26.2151V24.7151C20.8308 24.7151 17.25 28.2172 17.25 32.5639H18.75ZM25.22 26.2151C28.8053 26.2151 31.69 29.0695 31.69 32.5639H33.19C33.19 28.2172 29.6096 24.7151 25.22 24.7151V26.2151ZM31.69 32.5639V34.2155H33.19V32.5639H31.69ZM32.4387 33.4655L17.9987 33.49L18.0013 34.99L32.4413 34.9655L32.4387 33.4655Z" fill="#475E6D"/>
</svg>
