<?xml version="1.0" encoding="iso-8859-1"?>
<!-- Generator: Adobe Illustrator 19.0.0, SVG Export Plug-In . SVG Version: 6.00 Build 0)  -->
<svg version="1.1" id="Layer_1" xmlns="http://www.w3.org/2000/svg" xmlns:xlink="http://www.w3.org/1999/xlink" x="0px" y="0px"
	 viewBox="0 0 512 512" style="enable-background:new 0 0 512 512;" xml:space="preserve">
<circle style="fill:#324A5E;" cx="256" cy="256" r="256"/>
<path style="fill:#2B3B4E;" d="M273.899,511.367c124.035-8.57,223.753-105.479,236.673-228.269L406.214,178.74l-189.288,85.306
	L109.64,308.691l53.658,53.658l-23.662,14.755L273.899,511.367z"/>
<path style="fill:#FFD15D;" d="M312.889,256c0-47.128-50.94-85.333-113.778-85.333S85.333,208.872,85.333,256
	c0,35.723,29.281,66.301,70.813,79.019c-1.55,23.483-16.51,42.086-16.51,42.086c32.125-6.647,50.717-20.858,61.449-35.809
	C263.008,340.502,312.889,302.632,312.889,256z"/>
<path style="fill:#F9B54C;" d="M199.111,170.667c-1.638,0-3.263,0.041-4.884,0.093v178.774c2.582-2.691,4.858-5.451,6.858-8.237
	c61.924-0.793,111.804-38.664,111.804-85.295C312.889,208.872,261.949,170.667,199.111,170.667z"/>
<path style="fill:#FC6F58;" d="M199.111,227.556c0-47.128,50.94-85.333,113.778-85.333s113.778,38.205,113.778,85.333
	c0,35.723-29.281,66.301-70.813,79.019c1.55,23.483,16.51,42.086,16.51,42.086c-32.125-6.647-50.717-20.858-61.449-35.809
	C248.992,312.058,199.111,274.187,199.111,227.556z"/>
<path style="fill:#F1543F;" d="M426.667,227.556c0-47.056-50.785-85.211-113.49-85.328v173.604
	c11.017,13.833,29.206,26.624,59.187,32.828c0,0-14.96-18.603-16.51-42.086C397.386,293.857,426.667,263.278,426.667,227.556z"/>
<g>
</g>
<g>
</g>
<g>
</g>
<g>
</g>
<g>
</g>
<g>
</g>
<g>
</g>
<g>
</g>
<g>
</g>
<g>
</g>
<g>
</g>
<g>
</g>
<g>
</g>
<g>
</g>
<g>
</g>
</svg>
