<svg width="51" height="51" viewBox="0 0 51 51" fill="none" xmlns="http://www.w3.org/2000/svg">
<path fill-rule="evenodd" clip-rule="evenodd" d="M25.5 1C11.969 1 1 11.969 1 25.5C1 39.031 11.969 50 25.5 50C39.031 50 50 39.031 50 25.5C50 11.969 39.031 1 25.5 1ZM0 25.5C0 11.4167 11.4167 0 25.5 0C39.5833 0 51 11.4167 51 25.5C51 39.5833 39.5833 51 25.5 51C11.4167 51 0 39.5833 0 25.5Z" fill="white"/>
<path d="M38.4966 23.0925C37.7499 27.7178 36.7999 32.3471 35.3024 36.8231C34.3027 39.8098 33.2823 43.091 30.7768 45.3352C29.2585 46.6958 26.8567 47.4093 24.8158 46.6833C23.1026 46.0735 22.0282 44.5221 21.9618 42.8545C21.9203 41.7304 22.3393 40.5689 22.8288 39.5567C23.6667 37.8186 24.7162 36.1718 25.6952 34.4959C25.8819 34.1724 26.0685 33.8529 26.2469 33.5252C28.5367 29.3521 30.8182 25.1293 32.5937 20.7446C34.5599 21.3959 36.5345 22.1758 38.4966 23.0925Z" fill="white"/>
<path d="M15.8719 17.6583C17.9045 16.2728 19.8915 14.8293 21.7582 13.2695C19.7961 13.0082 17.8133 12.8423 15.8346 12.7344C15.3658 12.7095 14.8971 12.6846 14.4283 12.668C13.2585 12.6224 11.9021 12.5851 10.9853 13.3857C10.4834 13.8212 10.164 14.431 10.1183 15.0657C10.081 15.5801 10.2137 16.194 10.6037 16.5839C10.9397 16.9158 11.4499 17.0651 11.9104 17.1688C12.487 17.3016 13.076 17.368 13.6651 17.4385C14.2624 17.509 14.8639 17.5754 15.4654 17.6334C15.5981 17.6459 15.7309 17.6583 15.8636 17.6708" fill="white"/>
<path d="M26.7355 14.124C29.1954 14.6467 31.6968 15.3353 34.2023 16.2272C33.7377 17.7537 33.1943 19.2595 32.5928 20.7446C29.465 19.7034 26.3539 18.9691 23.334 18.4713C24.5287 17.0195 25.6777 15.5469 26.7355 14.124Z" fill="white"/>
<path d="M38.4961 23.0927C38.7616 21.4624 38.9897 19.8446 39.1847 18.2766C40.2798 18.7951 41.3749 19.3551 42.4576 19.9649C42.86 20.1889 43.2499 20.4295 43.6108 20.6867C44.7889 21.5288 45.6517 22.599 45.4775 24.1795C45.2991 25.8097 43.8058 25.6106 42.5904 25.1751C42.1963 25.034 41.8105 24.8598 41.4413 24.6648L38.4961 23.0927Z" fill="white"/>
<path d="M15.8719 17.6584C18.2654 17.7912 20.7668 18.0442 23.3387 18.4715C21.4761 20.7281 19.5845 22.9806 17.4233 25.0049C15.3907 26.9048 13.0511 28.8752 10.1432 29.4933C9.38825 29.655 8.59595 29.7214 7.82438 29.6053C4.95797 29.178 5.06168 25.876 6.42229 24.1587C7.16896 23.2212 8.20602 22.516 9.26381 21.8855C11.5246 20.5414 13.7107 19.1352 15.8719 17.6584Z" fill="white"/>
<path d="M24.7779 10.4985C26.1925 10.511 27.6568 10.5856 29.1543 10.7433C28.4242 11.8094 27.6112 12.9501 26.7359 14.1241C25.0517 13.7673 23.3883 13.4852 21.7539 13.2695C22.8075 12.386 23.8197 11.4692 24.7779 10.4985Z" fill="white"/>
<path d="M31.6431 6.59516C31.6431 6.76939 31.5975 6.94776 31.4938 7.11784C31.3859 7.29621 31.2739 7.47873 31.1578 7.66955C29.9465 7.48288 28.7518 7.35428 27.582 7.27547C27.7438 7.05976 27.9014 6.84405 28.0549 6.62835C28.6025 5.86508 29.5607 5.43367 30.5521 5.50833C31.1993 5.55811 31.6431 6.0559 31.6431 6.59516Z" fill="white"/>
<path d="M27.5865 7.27968C27.3293 7.61983 27.0638 7.95583 26.7901 8.28769C26.1512 9.05511 25.4834 9.78934 24.7823 10.4987C23.3844 10.4862 22.0404 10.5526 20.7544 10.6314C19.6593 10.6978 18.8297 9.94697 18.838 8.99289C18.8421 8.56147 19.0246 8.16325 19.3233 7.86457C19.622 7.5659 20.0368 7.36679 20.5055 7.32946C22.6916 7.15938 25.0768 7.1096 27.5865 7.27968Z" fill="white"/>
<path d="M31.1618 7.67358C32.6676 7.90588 34.2024 8.22529 35.7497 8.65256C35.6584 9.63568 35.5215 10.6147 35.3432 11.5853C35.3266 11.6766 35.31 11.7679 35.2934 11.8591C33.211 11.3074 31.1535 10.9507 29.1582 10.7391C29.9256 9.61909 30.6018 8.58204 31.1618 7.67358Z" fill="white"/>
<path d="M43.2089 13.1451C43.2379 12.7013 43.101 12.2491 42.8687 11.8633C42.458 11.1913 41.7155 10.8678 40.9937 10.5442C40.6453 10.3866 40.2968 10.2372 39.9442 10.092C39.8861 11.0959 39.8115 12.1827 39.7119 13.3318C39.7078 13.3816 41.0435 13.9291 41.2219 13.9996C42.5286 14.514 43.1549 13.9457 43.2089 13.1451Z" fill="white"/>
<path d="M35.2941 11.8591C36.7584 12.2491 38.2352 12.7303 39.7119 13.3317C39.5792 14.8832 39.4008 16.5507 39.1851 18.2764C37.53 17.4965 35.8666 16.8162 34.2031 16.223C34.6428 14.7919 35.0079 13.34 35.2941 11.8591Z" fill="white"/>
<path d="M39.9438 10.0921C38.5417 9.51555 37.1396 9.03851 35.75 8.65272C35.7168 8.64443 35.833 6.98515 35.8952 6.77359C36.2395 5.65772 37.3553 5.46691 38.3841 5.96054C40.1139 6.79433 40.0309 8.54072 39.9438 10.0921Z" fill="white"/>
</svg>
