<svg width="25" height="25" viewBox="0 0 25 25" fill="none" xmlns="http://www.w3.org/2000/svg">
<g id="F_icon">
<path id="Blue 1" d="M23.6203 25C24.3822 25 25 24.3822 25 23.6201V1.3798C25 0.61763 24.3823 -1.73921e-08 23.6203 -1.73921e-08H1.37981C0.617635 -1.73921e-08 -1.73922e-08 0.61763 -1.73922e-08 1.3798V23.6201C-1.73922e-08 24.3821 0.617538 25 1.37981 25H23.6203Z" fill="#3C5A99"/>
<path id="f" d="M7.15426 21.2242V11.5428H10.4039L10.8904 7.7698H7.15426V5.36097C7.15426 4.2686 7.4576 3.52419 9.02405 3.52419L11.022 3.52331V0.148708C10.6764 0.102728 9.49045 1.00652e-07 8.11064 1.00652e-07C5.23006 1.00652e-07 3.25793 1.75831 3.25793 4.98731V7.7698H-2.78275e-07V11.5428H3.25793V21.2242H7.15426Z" transform="translate(10.0952 3.77588)" fill="white"/>
</g>
</svg>
