<svg width="25" height="25" viewBox="0 0 25 25" fill="none" xmlns="http://www.w3.org/2000/svg">
<g id="search">
<path id="Vector" d="M5.54053 8.35644L4.67031 11.6051L1.4897 11.6724C0.53916 9.90933 0 7.89219 0 5.74863C0 3.67583 0.504102 1.72114 1.39766 2.6226e-07H1.39834L4.22998 0.51914L5.47041 3.33379C5.21079 4.09067 5.06929 4.90317 5.06929 5.74863C5.06938 6.66621 5.2356 7.54536 5.54053 8.35644Z" transform="translate(0 6.75146)" fill="#FBBB00"/>
<path id="Vector_2" d="M12.0068 -2.50339e-07C12.1503 0.756152 12.2252 1.53706 12.2252 2.33516C12.2252 3.23008 12.1311 4.10303 11.9519 4.94507C11.3434 7.81045 9.75337 10.3125 7.55078 12.0831L7.5501 12.0824L3.9835 11.9004L3.47871 8.74932C4.94023 7.89219 6.08242 6.55083 6.68408 4.94507H-4.52995e-07V-2.50339e-07H6.78159H12.0068Z" transform="translate(12.7749 10.165)" fill="#518EF8"/>
<path id="Vector_3" d="M18.8352 7.1394L18.8358 7.14009C16.6937 8.86191 13.9725 9.89214 11.0103 9.89214C6.25 9.89214 2.11128 7.23145 3.7998e-08 3.31592L4.05083 -1.66893e-07C5.10645 2.81729 7.82417 4.8228 11.0103 4.8228C12.3798 4.8228 13.6628 4.45259 14.7637 3.8063L18.8352 7.1394Z" transform="translate(1.48975 15.1079)" fill="#28B446"/>
<path id="Vector_4" d="M19.0811 2.87773L15.0316 6.19297C13.8922 5.48076 12.5453 5.06934 11.1023 5.06934C7.84409 5.06934 5.07554 7.16685 4.0728 10.0852L0.000683618 6.75137H2.68221e-08C2.08037 2.74038 6.27129 0 11.1023 0C14.1353 0 16.9162 1.08037 19.0811 2.87773Z" transform="translate(1.39746)" fill="#F14336"/>
</g>
</svg>
