<svg width="72" height="72" viewBox="0 0 72 72" fill="none" xmlns="http://www.w3.org/2000/svg">
    <mask id="mask0" mask-type="alpha" maskUnits="userSpaceOnUse" x="0" y="0" width="72"
        height="72">
        <rect width="72" height="72" fill="white" />
    </mask>
    <g mask="url(#mask0)">
        <path
            d="M60 24C60 23.4477 60.4477 23 61 23H65C65.5523 23 66 23.4477 66 24C66 28.053 63.7675 31.7931 60 34.8018V47C60 47.5523 59.5523 48 59 48H55C54.4477 48 54 47.5523 54 47V38.4013C49.7377 40.3222 44.595 41.5778 39 41.9111V53C39 53.5523 38.5523 54 38 54H34C33.4477 54 33 53.5523 33 53V41.9111C27.405 41.5778 22.2623 40.3222 18 38.4013V47C18 47.5523 17.5523 48 17 48H13C12.4477 48 12 47.5523 12 47V34.8018C8.23254 31.7931 6 28.053 6 24C6 23.4477 6.44772 23 7 23H11C11.5523 23 12 23.4477 12 24C12 29.8116 22.314 36 36 36C49.686 36 60 29.8116 60 24Z"
            fill="#666666" />
    </g>
</svg>
