<svg width="72" height="72" viewBox="0 0 72 72" fill="none" xmlns="http://www.w3.org/2000/svg">
    <mask id="mask0" mask-type="alpha" maskUnits="userSpaceOnUse" x="0" y="0" width="72"
        height="72">
        <rect width="72" height="72" fill="white" />
    </mask>
    <g mask="url(#mask0)">
        <path
            d="M55.0919 55.0919C44.5477 65.6361 27.4523 65.6361 16.9081 55.0919C6.36396 44.5477 6.36396 27.4523 16.9081 16.9081C27.4523 6.36398 44.5477 6.36398 55.0919 16.9081C65.636 27.4523 65.636 44.5477 55.0919 55.0919Z"
            stroke="#666666" stroke-width="6" />
        <path
            d="M45.1494 26.8507C44.7761 27.224 44.1772 27.2432 43.7708 26.9062C43.2695 26.4905 42.6098 25.9673 42.1524 25.6938C37.5437 22.938 31.4846 23.545 27.5148 27.5147C22.8285 32.201 22.8285 39.799 27.5148 44.4853C31.4485 48.4189 37.4336 49.0507 42.0262 46.3806C42.5211 46.0929 43.2384 45.5282 43.7707 45.0897C44.1773 44.7549 44.7749 44.7748 45.1473 45.1472L47.9895 47.9894C48.3921 48.392 48.3776 49.0486 47.9493 49.4237C47.4424 49.8678 46.7951 50.417 46.3494 50.7309C39.3255 55.678 29.5546 55.0103 23.2722 48.7279C16.2428 41.6985 16.2428 30.3015 23.2722 23.2721C29.595 16.9493 39.4514 16.3137 46.4846 21.3653C46.8925 21.6582 47.4811 22.1606 47.9531 22.5761C48.3797 22.9517 48.3932 23.6069 47.9912 24.0089L45.1494 26.8507Z"
            fill="#666666" />
    </g>
</svg>
