<svg width="81" height="62" viewBox="0 0 81 62" fill="none" xmlns="http://www.w3.org/2000/svg">
<path d="M57.4 17.6C57.4 21.3 54.4 24.3 50.7 24.3C47 24.3 44 21.3 44 17.6C44 13.9 47 10.9 50.7 10.9C54.4 10.9 57.4 13.9 57.4 17.6ZM79.8 54L71.4 43C60.6 26.9 54.2 26.6 41.2 37.1L39.6 35.1C29.7 20.1 21.7 17.6 7 30.8L1.2 35.5L79.8 54ZM52.5 50.9L41.2 37.1L52.5 50.9ZM80 2.9C80 1.8 79.1 1 78.1 1H2.9C1.8 1 1 1.9 1 2.9V59C1 60.1 1.9 60.9 2.9 60.9H78C79.1 60.9 79.9 60 79.9 59V2.9H80Z" stroke="black" stroke-width="0.5" stroke-miterlimit="10" stroke-linecap="round" stroke-linejoin="round"/>
</svg>
