<svg width="22" height="22" viewBox="0 0 22 22" fill="none" xmlns="http://www.w3.org/2000/svg">
<path fill-rule="evenodd" clip-rule="evenodd" d="M18.6149 0.846191H3.38416C1.98801 0.846191 0.845703 1.9885 0.845703 3.38465V18.6154C0.845703 20.0116 1.98801 21.1539 3.38416 21.1539H18.6149C20.0107 21.1539 21.1534 20.0116 21.1534 18.6154V3.38465C21.1534 1.9885 20.0107 0.846191 18.6149 0.846191Z" stroke="#B3C1C9"/>
<path d="M15.2309 21.1537V21.6537C15.4219 21.6537 15.5962 21.5449 15.6801 21.3734C15.764 21.2018 15.7428 20.9975 15.6256 20.8467L15.2309 21.1537ZM9.30784 13.5383L9.70252 13.2314C9.60779 13.1096 9.46214 13.0383 9.30784 13.0383C9.15355 13.0383 9.00789 13.1096 8.91317 13.2314L9.30784 13.5383ZM3.38477 21.1537L2.99009 20.8467C2.87285 20.9975 2.85171 21.2018 2.93561 21.3734C3.01951 21.5449 3.1938 21.6537 3.38477 21.6537V21.1537ZM19.0384 21.1537V21.6537C19.2117 21.6537 19.3726 21.564 19.4637 21.4166C19.5548 21.2692 19.5631 21.0851 19.4856 20.9301L19.0384 21.1537ZM16.923 16.923L17.3702 16.6994C17.2855 16.53 17.1124 16.423 16.923 16.423C16.7336 16.423 16.5605 16.53 16.4758 16.6994L16.923 16.923ZM14.8076 21.1537L14.3604 20.9301C14.2829 21.0851 14.2912 21.2692 14.3823 21.4166C14.4734 21.564 14.6343 21.6537 14.8076 21.6537V21.1537ZM17.2693 6.3461C17.2693 7.23807 16.5459 7.96148 15.654 7.96148V8.96148C17.0982 8.96148 18.2693 7.79036 18.2693 6.3461H17.2693ZM15.654 7.96148C14.762 7.96148 14.0386 7.23807 14.0386 6.3461H13.0386C13.0386 7.79036 14.2097 8.96148 15.654 8.96148V7.96148ZM14.0386 6.3461C14.0386 5.45412 14.762 4.73071 15.654 4.73071V3.73071C14.2097 3.73071 13.0386 4.90184 13.0386 6.3461H14.0386ZM15.654 4.73071C16.5459 4.73071 17.2693 5.45412 17.2693 6.3461H18.2693C18.2693 4.90184 17.0982 3.73071 15.654 3.73071V4.73071ZM15.6256 20.8467L9.70252 13.2314L8.91317 13.8453L14.8362 21.4607L15.6256 20.8467ZM8.91317 13.2314L2.99009 20.8467L3.77944 21.4607L9.70252 13.8453L8.91317 13.2314ZM15.2309 20.6537H3.38477V21.6537H15.2309V20.6537ZM19.4856 20.9301L17.3702 16.6994L16.4758 17.1466L18.5912 21.3773L19.4856 20.9301ZM16.4758 16.6994L14.3604 20.9301L15.2548 21.3773L17.3702 17.1466L16.4758 16.6994ZM19.0384 20.6537H14.8076V21.6537H19.0384V20.6537Z" fill="#B3C1C9"/>
</svg>
