<svg width="49" height="49" viewBox="0 0 49 49" fill="none" xmlns="http://www.w3.org/2000/svg">
<path d="M48.5272 24.115C48.5272 37.1722 37.9428 47.7572 24.8862 47.7572C11.8297 47.7572 1.24527 37.1722 1.24527 24.115C1.24527 11.0578 11.8297 0.472839 24.8862 0.472839C37.9428 0.472839 48.5272 11.0578 48.5272 24.115Z" fill="white"/>
<path fill-rule="evenodd" clip-rule="evenodd" d="M24.8862 0.945686C12.0908 0.945686 1.71807 11.3189 1.71807 24.115C1.71807 36.9111 12.0908 47.2843 24.8862 47.2843C37.6816 47.2843 48.0544 36.9111 48.0544 24.115C48.0544 11.3189 37.6816 0.945686 24.8862 0.945686ZM0.77243 24.115C0.77243 10.7967 11.5685 0 24.8862 0C38.2039 0 49 10.7967 49 24.115C49 37.4333 38.2039 48.23 24.8862 48.23C11.5685 48.23 0.77243 37.4333 0.77243 24.115Z" fill="#EA8439"/>
<path d="M17.2261 21.8719C17.2869 21.4533 17.3258 20.9308 17.33 20.5667C18.7054 20.4146 19.7787 19.2636 19.7787 17.844C19.7787 16.3247 18.547 15.0919 17.0268 15.0919C15.5065 15.0919 14.2737 16.3247 14.2737 17.844C14.2737 19.2636 15.3491 20.4146 16.7225 20.5667C16.7277 20.9308 16.7666 21.4533 16.8264 21.8719C12.9046 21.98 9.75601 25.1843 9.75601 29.1336C9.75601 33.15 13.0116 36.4089 17.0278 36.4089C21.044 36.4089 24.3017 33.1521 24.3017 29.1336C24.2996 25.1843 21.15 21.979 17.2261 21.8719ZM16.286 16.5639C15.5275 16.8944 15.3376 18.1304 15.0659 17.5166C14.7962 16.9007 15.1928 16.1316 15.9503 15.799C16.711 15.4654 17.544 15.6941 17.8126 16.3079C18.0843 16.9238 17.0435 16.2303 16.286 16.5639ZM17.0257 30.5983C14.8791 30.5983 13.1385 28.8577 13.1385 26.7099C13.1385 24.5632 14.8791 22.8204 17.0257 22.8204C19.1734 22.8204 20.9129 24.5632 20.9129 26.7099C20.9129 28.8577 19.1734 30.5983 17.0257 30.5983Z" fill="#EA8439"/>
<path d="M32.6194 16.7108C32.6823 16.2901 32.7191 15.7707 32.7233 15.4066C34.0987 15.2535 35.1741 14.1014 35.1741 12.6818C35.1741 11.1646 33.9403 9.9297 32.4201 9.9297C30.8998 9.9297 29.6691 11.1646 29.6691 12.6818C29.6691 14.1014 30.7403 15.2535 32.1158 15.4066C32.12 15.7697 32.1588 16.2901 32.2197 16.7108C28.2968 16.8189 25.1472 20.0253 25.1472 23.9735C25.1472 27.99 28.4038 31.2467 32.4201 31.2467C36.4384 31.2467 39.6939 27.99 39.6939 23.9735C39.6918 20.0253 36.5433 16.8168 32.6194 16.7108ZM31.6814 11.3997C30.9229 11.7333 30.7319 12.9703 30.4623 12.3566C30.1895 11.7396 30.5872 10.9695 31.3457 10.6369C32.1064 10.3032 32.9383 10.532 33.208 11.1468C33.4766 11.7616 32.4389 11.0692 31.6814 11.3997ZM32.4201 25.4362C30.2745 25.4362 28.5329 23.6955 28.5329 21.5488C28.5329 19.401 30.2745 17.6604 32.4201 17.6604C34.5677 17.6604 36.3072 19.401 36.3072 21.5488C36.3072 23.6955 34.5667 25.4362 32.4201 25.4362Z" fill="#EA8439"/>
</svg>
