<svg width="49" height="49" viewBox="0 0 49 49" fill="none" xmlns="http://www.w3.org/2000/svg">
<path d="M48.2781 24.115C48.2781 37.1722 37.6937 47.7572 24.6372 47.7572C11.5806 47.7572 0.996216 37.1722 0.996216 24.115C0.996216 11.0578 11.5806 0.472839 24.6372 0.472839C37.6937 0.472839 48.2781 11.0578 48.2781 24.115Z" fill="white"/>
<path fill-rule="evenodd" clip-rule="evenodd" d="M24.6372 0.945686C11.8417 0.945686 1.46901 11.3189 1.46901 24.115C1.46901 36.9111 11.8417 47.2843 24.6372 47.2843C37.4326 47.2843 47.8053 36.9111 47.8053 24.115C47.8053 11.3189 37.4326 0.945686 24.6372 0.945686ZM0.523376 24.115C0.523376 10.7967 11.3195 0 24.6372 0C37.9548 0 48.7509 10.7967 48.7509 24.115C48.7509 37.4333 37.9548 48.23 24.6372 48.23C11.3195 48.23 0.523376 37.4333 0.523376 24.115Z" fill="#EA8439"/>
<path d="M14.374 27.506V38.8696H20.5696V33.745C20.5696 31.2413 22.6065 29.2044 25.11 29.2044C27.6136 29.2044 29.6504 31.2413 29.6504 33.745V38.8696H35.846V27.506H14.374Z" fill="#EA8439"/>
<path d="M27.9548 33.745C27.9548 32.1762 26.6786 30.9 25.11 30.9C23.5413 30.9 22.2651 32.1763 22.2651 33.745V38.8695H27.9548L27.9548 33.745Z" fill="#EA8439"/>
<path d="M36.9305 25.8102L26.2024 12.6097L27.5114 10.9992L26.1955 9.9297L25.1099 11.2655L24.0244 9.9297L22.7085 10.9992L24.0175 12.6097L13.2895 25.8102H36.9305Z" fill="#EA8439"/>
</svg>
