<svg width="52" height="52" viewBox="0 0 52 52" fill="none" xmlns="http://www.w3.org/2000/svg">
<path d="M51 26C51 39.8071 39.8071 51 26 51C12.1929 51 1 39.8071 1 26C1 12.1929 12.1929 1 26 1C39.8071 1 51 12.1929 51 26Z" fill="white"/>
<path fill-rule="evenodd" clip-rule="evenodd" d="M26 1.5C12.469 1.5 1.5 12.469 1.5 26C1.5 39.531 12.469 50.5 26 50.5C39.531 50.5 50.5 39.531 50.5 26C50.5 12.469 39.531 1.5 26 1.5ZM0.5 26C0.5 11.9167 11.9167 0.5 26 0.5C40.0833 0.5 51.5 11.9167 51.5 26C51.5 40.0833 40.0833 51.5 26 51.5C11.9167 51.5 0.5 40.0833 0.5 26Z" fill="#475E6D"/>
<path d="M37.3579 28.8998L33.3109 23.1768C32.4933 21.7052 28.1193 20.07 28.1193 20.07C27.1791 19.5386 27.8331 17.5764 27.8331 17.5764C28.7734 17.5764 29.3048 16.7997 29.3048 16.7997C30.245 15.6551 29.7953 12.998 29.7953 12.998C29.7953 10.4635 26.8929 8.82838 26.8929 8.82838C23.8679 5.23106 21.824 8.05169 21.824 8.05169C19.1669 10.3409 22.2736 12.7936 22.2736 12.7936C23.3365 14.7149 24.8899 15.4099 24.8899 15.4099C24.9308 19.2933 24.5629 18.9254 24.5629 18.9254L21.824 18.7619C19.4939 18.6802 18.799 19.7021 18.799 19.7021C17.5317 21.1737 13.73 27.837 13.73 27.837C12.3401 29.9218 13.3621 31.2299 13.3621 31.2299C15.5695 34.4184 19.4939 38.0158 19.4939 38.0158L19.9436 37.934C30.1632 37.6887 34.7008 42.9621 34.7008 42.9621C34.7825 40.6729 33.2291 37.1164 33.2291 37.1164C34.3737 37.3617 34.292 37.1164 34.292 37.1164L37.317 31.9657C38.8295 29.5948 37.3579 28.8998 37.3579 28.8998ZM21.3334 35.8083C20.9247 36.1354 20.3932 35.8083 20.3932 35.8083L15.8966 30.0444C15.4878 29.5539 15.8966 28.9816 15.8966 28.9816L19.4939 24.444L22.3963 30.5759C23.7453 33.56 21.3334 35.8083 21.3334 35.8083ZM26.8112 25.2616C26.2798 25.9974 25.7892 26.161 25.7892 26.161L26.2798 27.142C26.3615 27.1012 26.525 27.142 26.525 27.142C26.8929 27.2238 26.7703 27.3464 26.7703 27.3464C26.525 27.1829 26.525 27.3056 26.525 27.3056C26.6885 27.3873 26.6068 27.5917 26.6068 27.5917C26.2389 27.1012 25.9936 27.6326 25.9936 27.6326C25.9527 27.4282 26.0345 27.1829 26.0345 27.1829L25.5439 26.2018C24.9716 26.3245 24.6446 26.161 24.6446 26.161L24.1949 27.142C24.3176 27.3464 24.2767 27.5508 24.2767 27.5508C24.2767 27.4691 24.0314 27.3056 24.0314 27.3056C23.8679 27.2647 23.7044 27.4691 23.7044 27.4691L23.6635 27.51C23.6226 27.3056 23.7862 27.1829 23.7862 27.1829C23.7044 27.142 23.5 27.2238 23.5 27.2238C23.6226 26.9376 23.9906 27.0194 23.9906 27.0194L24.4811 26.1201C23.2547 25.7113 23.1321 24.7711 23.1321 24.7711C22.7233 22.7271 24.3993 21.9504 24.3993 21.9504C26.1162 21.1738 26.4433 22.3592 26.4433 22.3592C26.4842 22.5636 26.6885 22.9724 26.6885 22.9724C26.7294 23.0951 26.6885 23.1768 26.6885 23.1768C26.4842 23.1359 26.3206 22.9315 26.3206 22.9315C26.2389 22.8498 25.9936 22.8089 25.9936 22.8089C25.7483 22.8089 25.5031 22.4819 25.5031 22.4819C25.2578 22.1957 24.7672 22.4001 24.7672 22.4001C24.1132 22.6454 23.9497 23.2177 23.9497 23.2177C23.7453 24.1579 24.6037 24.4849 24.6037 24.4849C25.9936 24.812 26.7294 23.5856 26.7294 23.5856C26.8521 23.8717 26.6885 24.117 26.6885 24.117C26.8521 24.0353 26.9747 23.79 26.9747 23.79C27.0565 24.0761 26.8929 24.3623 26.8929 24.3623C27.0156 24.2805 27.1791 23.9944 27.1791 23.9944C27.2608 24.812 26.8112 25.2616 26.8112 25.2616ZM35.7227 32.2519L33.965 35.2769C33.965 35.2769 33.8423 36.0127 33.3109 35.6448L29.1004 31.3117C29.1004 31.3117 27.9967 29.6356 29.7953 25.793C29.7953 25.793 30.3676 23.6674 31.267 25.139L35.7636 30.2079C35.7227 30.2079 36.6629 30.8211 35.7227 32.2519Z" fill="#475E6D"/>
</svg>
