<svg width="50" height="49" viewBox="0 0 50 49" fill="none" xmlns="http://www.w3.org/2000/svg">
<path d="M48.5309 24.115C48.5309 37.1722 37.9465 47.7572 24.89 47.7572C11.8334 47.7572 1.24902 37.1722 1.24902 24.115C1.24902 11.0578 11.8334 0.472839 24.89 0.472839C37.9465 0.472839 48.5309 11.0578 48.5309 24.115Z" fill="white"/>
<path fill-rule="evenodd" clip-rule="evenodd" d="M24.89 0.945686C12.0946 0.945686 1.72188 11.3189 1.72188 24.115C1.72188 36.9111 12.0946 47.2843 24.89 47.2843C37.6854 47.2843 48.0582 36.9111 48.0582 24.115C48.0582 11.3189 37.6854 0.945686 24.89 0.945686ZM0.776245 24.115C0.776245 10.7967 11.5724 0 24.89 0C38.2077 0 49.0038 10.7967 49.0038 24.115C49.0038 37.4333 38.2077 48.23 24.89 48.23C11.5724 48.23 0.776245 37.4333 0.776245 24.115Z" fill="#EA8439"/>
<path d="M35.6304 26.8573L31.8034 21.4451C31.0303 20.0534 26.8941 18.5071 26.8941 18.5071C26.005 18.0045 26.6235 16.1489 26.6235 16.1489C27.5126 16.1489 28.0151 15.4144 28.0151 15.4144C28.9042 14.332 28.479 11.8192 28.479 11.8192C28.479 9.42237 25.7344 7.87604 25.7344 7.87604C22.8738 4.47409 20.941 7.14153 20.941 7.14153C18.4283 9.3064 21.3662 11.6259 21.3662 11.6259C22.3713 13.4428 23.8402 14.1 23.8402 14.1C23.8789 17.7726 23.531 17.4247 23.531 17.4247L20.941 17.27C18.7376 17.1927 18.0804 18.1592 18.0804 18.1592C16.882 19.5509 13.287 25.8522 13.287 25.8522C11.9727 27.8238 12.9391 29.0609 12.9391 29.0609C15.0265 32.0762 18.7376 35.4781 18.7376 35.4781L19.1628 35.4008C28.8269 35.1689 33.1178 40.1558 33.1178 40.1558C33.1951 37.9909 31.7261 34.6277 31.7261 34.6277C32.8085 34.8596 32.7312 34.6277 32.7312 34.6277L35.5918 29.7567C37.0221 27.5145 35.6304 26.8573 35.6304 26.8573ZM20.4771 33.3906C20.0905 33.6999 19.588 33.3906 19.588 33.3906L15.3358 27.9398C14.9492 27.4759 15.3358 26.9346 15.3358 26.9346L18.7376 22.6436L21.4822 28.4423C22.7578 31.2644 20.4771 33.3906 20.4771 33.3906ZM25.6571 23.4167C25.1545 24.1126 24.6907 24.2672 24.6907 24.2672L25.1545 25.195C25.2318 25.1564 25.3865 25.195 25.3865 25.195C25.7344 25.2723 25.6184 25.3883 25.6184 25.3883C25.3865 25.2337 25.3865 25.3496 25.3865 25.3496C25.5411 25.427 25.4638 25.6203 25.4638 25.6203C25.1159 25.1564 24.8839 25.6589 24.8839 25.6589C24.8453 25.4656 24.9226 25.2337 24.9226 25.2337L24.4587 24.3059C23.9175 24.4218 23.6083 24.2672 23.6083 24.2672L23.1831 25.195C23.299 25.3883 23.2604 25.5816 23.2604 25.5816C23.2604 25.5043 23.0284 25.3496 23.0284 25.3496C22.8738 25.311 22.7192 25.5043 22.7192 25.5043L22.6805 25.5429C22.6419 25.3496 22.7965 25.2337 22.7965 25.2337C22.7192 25.195 22.5259 25.2723 22.5259 25.2723C22.6419 25.0017 22.9898 25.079 22.9898 25.079L23.4536 24.2285C22.294 23.842 22.178 22.9528 22.178 22.9528C21.7914 21.0199 23.3763 20.2854 23.3763 20.2854C24.9999 19.5509 25.3092 20.672 25.3092 20.672C25.3478 20.8653 25.5411 21.2519 25.5411 21.2519C25.5798 21.3678 25.5411 21.4451 25.5411 21.4451C25.3478 21.4065 25.1932 21.2132 25.1932 21.2132C25.1159 21.1359 24.8839 21.0972 24.8839 21.0972C24.652 21.0972 24.4201 20.7879 24.4201 20.7879C24.1881 20.5173 23.7242 20.7106 23.7242 20.7106C23.1057 20.9426 22.9511 21.4838 22.9511 21.4838C22.7578 22.3729 23.5696 22.6822 23.5696 22.6822C24.8839 22.9915 25.5798 21.8317 25.5798 21.8317C25.6957 22.1023 25.5411 22.3343 25.5411 22.3343C25.6957 22.257 25.8117 22.025 25.8117 22.025C25.889 22.2956 25.7344 22.5662 25.7344 22.5662C25.8503 22.4889 26.005 22.2183 26.005 22.2183C26.0823 22.9915 25.6571 23.4167 25.6571 23.4167ZM34.0842 30.0273L32.4219 32.888C32.4219 32.888 32.306 33.5839 31.8034 33.236L27.8218 29.1382C27.8218 29.1382 26.7781 27.5532 28.479 23.9193C28.479 23.9193 29.0202 21.909 29.8706 23.3007L34.1228 28.0944C34.0842 28.0944 34.9733 28.6743 34.0842 30.0273Z" fill="#EA8439"/>
</svg>
