<svg width="52" height="52" viewBox="0 0 52 52" fill="none" xmlns="http://www.w3.org/2000/svg">
<path d="M51 26C51 39.8071 39.8071 51 26 51C12.1929 51 1 39.8071 1 26C1 12.1929 12.1929 1 26 1C39.8071 1 51 12.1929 51 26Z" fill="white"/>
<path fill-rule="evenodd" clip-rule="evenodd" d="M26 1.5C12.469 1.5 1.5 12.469 1.5 26C1.5 39.531 12.469 50.5 26 50.5C39.531 50.5 50.5 39.531 50.5 26C50.5 12.469 39.531 1.5 26 1.5ZM0.5 26C0.5 11.9167 11.9167 0.5 26 0.5C40.0833 0.5 51.5 11.9167 51.5 26C51.5 40.0833 40.0833 51.5 26 51.5C11.9167 51.5 0.5 40.0833 0.5 26Z" fill="#475E6D"/>
<path d="M17.8995 23.6281C17.9639 23.1854 18.0049 22.6329 18.0094 22.2479C19.4639 22.087 20.5989 20.8699 20.5989 19.3688C20.5989 17.7623 19.2964 16.4586 17.6887 16.4586C16.0811 16.4586 14.7774 17.7623 14.7774 19.3688C14.7774 20.8699 15.9146 22.087 17.367 22.2479C17.3725 22.6329 17.4136 23.1854 17.4768 23.6281C13.3296 23.7424 10 27.1307 10 31.3068C10 35.5539 13.4427 39 17.6898 39C21.9369 39 25.3819 35.5562 25.3819 31.3068C25.3796 27.1307 22.049 23.7413 17.8995 23.6281ZM16.9054 18.0152C16.1033 18.3647 15.9024 19.6717 15.6151 19.0226C15.33 18.3714 15.7493 17.5581 16.5504 17.2064C17.3548 16.8536 18.2357 17.0955 18.5197 17.7445C18.8071 18.3958 17.7065 17.6624 16.9054 18.0152ZM17.6876 32.8557C15.4176 32.8557 13.577 31.015 13.577 28.7439C13.577 26.4739 15.4176 24.6311 17.6876 24.6311C19.9587 24.6311 21.7982 26.4739 21.7982 28.7439C21.7982 31.015 19.9587 32.8557 17.6876 32.8557Z" fill="#475E6D"/>
<path d="M34.1777 18.1706C34.2443 17.7257 34.2831 17.1765 34.2875 16.7915C35.7421 16.6295 36.8793 15.4113 36.8793 13.9102C36.8793 12.3059 35.5745 11 33.9669 11C32.3593 11 31.0578 12.3059 31.0578 13.9102C31.0578 15.4113 32.1906 16.6295 33.6452 16.7915C33.6496 17.1754 33.6906 17.7257 33.755 18.1706C29.6066 18.2849 26.276 21.6754 26.276 25.8504C26.276 30.0975 29.7198 33.5413 33.9669 33.5413C38.2162 33.5413 41.6589 30.0975 41.6589 25.8504C41.6567 21.6754 38.3272 18.2826 34.1777 18.1706ZM33.1858 12.5544C32.3837 12.9072 32.1817 14.2153 31.8966 13.5662C31.6081 12.9139 32.0286 12.0995 32.8308 11.7478C33.6352 11.395 34.515 11.6368 34.8001 12.287C35.0841 12.9372 33.9869 12.2049 33.1858 12.5544ZM33.9669 27.397C31.698 27.397 29.8563 25.5564 29.8563 23.2864C29.8563 21.0153 31.698 19.1747 33.9669 19.1747C36.238 19.1747 38.0775 21.0153 38.0775 23.2864C38.0775 25.5564 36.2369 27.397 33.9669 27.397Z" fill="#475E6D"/>
</svg>
