<svg width="52" height="52" viewBox="0 0 52 52" fill="none" xmlns="http://www.w3.org/2000/svg">
<path d="M51 26C51 39.8071 39.8071 51 26 51C12.1929 51 1 39.8071 1 26C1 12.1929 12.1929 1 26 1C39.8071 1 51 12.1929 51 26Z" fill="white"/>
<path fill-rule="evenodd" clip-rule="evenodd" d="M26 1.5C12.469 1.5 1.5 12.469 1.5 26C1.5 39.531 12.469 50.5 26 50.5C39.531 50.5 50.5 39.531 50.5 26C50.5 12.469 39.531 1.5 26 1.5ZM0.5 26C0.5 11.9167 11.9167 0.5 26 0.5C40.0833 0.5 51.5 11.9167 51.5 26C51.5 40.0833 40.0833 51.5 26 51.5C11.9167 51.5 0.5 40.0833 0.5 26Z" fill="#475E6D"/>
<path d="M15.1465 29.5857V41.602H21.6982V36.1831C21.6982 33.5355 23.8522 31.3816 26.4997 31.3816C29.1471 31.3816 31.3011 33.5356 31.3011 36.1831V41.602H37.8528V29.5857H15.1465Z" fill="#475E6D"/>
<path d="M29.5089 36.1832C29.5089 34.5243 28.1594 33.1748 26.5005 33.1748C24.8417 33.1748 23.4922 34.5244 23.4922 36.1832V41.6021H29.509L29.5089 36.1832Z" fill="#475E6D"/>
<path d="M39 27.7926L27.6552 13.8339L29.0395 12.1309L27.648 11L26.5 12.4125L25.352 11L23.9605 12.1309L25.3447 13.8339L14 27.7926H39Z" fill="#475E6D"/>
</svg>
