<svg width="46" height="49" viewBox="0 0 46 49" fill="none" xmlns="http://www.w3.org/2000/svg">
<path d="M45.1862 24.115C45.1862 37.1722 35.1767 47.7572 22.8293 47.7572C10.4819 47.7572 0.472351 37.1722 0.472351 24.115C0.472351 11.0578 10.4819 0.472839 22.8293 0.472839C35.1767 0.472839 45.1862 11.0578 45.1862 24.115Z" fill="white"/>
<path fill-rule="evenodd" clip-rule="evenodd" d="M22.8293 0.945686C10.7289 0.945686 0.919546 11.3189 0.919546 24.115C0.919546 36.9111 10.7289 47.2843 22.8293 47.2843C34.9298 47.2843 44.7391 36.9111 44.7391 24.115C44.7391 11.3189 34.9298 0.945686 22.8293 0.945686ZM0.0252686 24.115C0.0252686 10.7967 10.235 0 22.8293 0C35.4237 0 45.6334 10.7967 45.6334 24.115C45.6334 37.4333 35.4237 48.23 22.8293 48.23C10.235 48.23 0.0252686 37.4333 0.0252686 24.115Z" fill="#EA8439"/>
<path d="M30.2158 17.9043C29.7833 16.4193 29.3989 16.3169 29.3989 16.3169L24.2575 14.2688L24.1614 14.0128L24.0172 13.5007L24.0653 13.0911L24.2575 12.8863C26.5159 6.63944 21.1822 7.10027 21.1822 7.10027C20.7017 7.25388 20.3173 7.4587 20.029 7.71471C18.0589 9.50684 19.9329 13.6031 19.9329 13.6031H20.4134V14.0128V14.32V15.088L19.6927 15.6513L16.4252 17.9555C15.8486 18.4163 15.8967 18.8771 15.8967 18.8771L14.8876 26.1993C14.6473 26.9673 14.8876 27.2745 14.8876 27.2745L18.6836 34.7503V36.2864L19.1641 41.0995L19.2122 41.0483C19.5485 40.6899 20.8939 39.3074 23.3926 38.4369C23.3926 38.4369 24.3055 37.9249 24.4497 37.2593C24.4497 37.2593 24.5458 37.6689 24.8341 38.0273C26.0354 37.7201 27.3808 37.5665 28.9665 37.6177L29.2067 37.6689L29.5911 32.7021L32.0417 25.0216L30.2158 17.9043ZM19.2122 32.1901L16.5213 26.6089L18.4434 20.3108C18.4434 20.3108 20.1732 24.2535 19.2122 32.1901ZM28.7262 31.0124C28.7262 31.0124 28.6301 30.6028 28.486 29.9371V29.9883C28.486 29.9883 28.486 29.8859 28.4379 29.7323C27.9574 27.4793 27.0925 22.615 27.573 18.4163L29.8794 24.7655L28.7262 31.0124Z" fill="#EA8439"/>
<path d="M24.4616 21.05V16.9404H24.1262V21.05V21.318V21.4967C25.1323 21.6754 25.9707 22.5688 25.9707 23.5515C25.9707 24.7129 24.8808 25.6063 23.6232 25.6063C22.2818 25.6063 21.2757 24.7129 21.2757 23.5515C21.2757 22.5688 22.0303 21.7647 23.1202 21.4967V21.318V21.05V16.9404H22.7848V21.1394C21.6949 21.4967 20.9404 22.3901 20.9404 23.4622C20.9404 24.8023 22.1141 25.8744 23.6232 25.8744C25.1323 25.8744 26.306 24.8023 26.306 23.4622C26.306 22.3008 25.4676 21.4074 24.4616 21.05Z" fill="white"/>
<path d="M24.4616 22.9043V27.0139H24.1262V22.9043V22.7256V22.5469C25.1323 22.3682 25.9707 21.4748 25.9707 20.4921C25.9707 19.3307 24.8808 18.4373 23.6232 18.4373C22.2818 18.4373 21.2757 19.3307 21.2757 20.4921C21.2757 21.4748 22.0303 22.2789 23.1202 22.5469V22.7256V22.9936V27.1032H22.7848V22.9043C21.6949 22.5469 20.9404 21.6535 20.9404 20.5814C20.9404 19.2413 22.1141 18.1693 23.6232 18.1693C25.1323 18.1693 26.306 19.2413 26.306 20.5814C26.306 21.6535 25.4676 22.5469 24.4616 22.9043Z" fill="white"/>
</svg>
