<svg width="52" height="52" viewBox="0 0 52 52" fill="none" xmlns="http://www.w3.org/2000/svg">
<path d="M51 26C51 39.8071 39.8071 51 26 51C12.1929 51 1 39.8071 1 26C1 12.1929 12.1929 1 26 1C39.8071 1 51 12.1929 51 26Z" fill="white"/>
<path fill-rule="evenodd" clip-rule="evenodd" d="M26 1.5C12.469 1.5 1.5 12.469 1.5 26C1.5 39.531 12.469 50.5 26 50.5C39.531 50.5 50.5 39.531 50.5 26C50.5 12.469 39.531 1.5 26 1.5ZM0.5 26C0.5 11.9167 11.9167 0.5 26 0.5C40.0833 0.5 51.5 11.9167 51.5 26C51.5 40.0833 40.0833 51.5 26 51.5C11.9167 51.5 0.5 40.0833 0.5 26Z" fill="#475E6D"/>
<path d="M29.4446 31.1778C29.4446 31.1778 32.0369 33.7733 32.0438 33.777C32.8704 34.6101 32.6566 36.0741 31.8726 36.8707L28.2565 40.6389C26.8597 42.0319 24.9933 40.0984 26.3492 38.7497L28.6432 36.454L26.3973 34.2258L29.4446 31.1778ZM21.382 31.1778C21.382 31.1778 18.7934 33.7733 18.7934 33.777C17.9599 34.6101 18.1738 36.0741 18.9489 36.8707L22.581 40.6389C23.9723 42.0319 25.839 40.0984 24.49 38.7497L22.1998 36.454L24.4283 34.2258L21.382 31.1778ZM25.5035 21.5224C27.5799 21.5224 29.2645 19.8422 29.2645 17.7559C29.2645 15.6819 27.5802 14 25.5035 14C23.425 14 21.737 15.6819 21.737 17.7559C21.737 19.8405 23.4233 21.5224 25.5035 21.5224ZM29.5789 29.6716L29.6338 27.1058L32.7609 30.0228C33.0153 30.2649 33.342 30.3795 33.6687 30.3795C34.0216 30.3795 34.3804 30.2383 34.6416 29.9594C35.1432 29.4192 35.1149 28.5786 34.5778 28.077C34.5778 28.077 30.9934 24.1816 30.4778 23.7277C29.5244 22.882 28.1259 22.4026 25.8568 22.4026H25.1451C22.8743 22.4026 21.4775 22.882 20.5203 23.726C20.0067 24.1799 16.422 28.077 16.422 28.077C15.8869 28.5783 15.8552 29.4192 16.3582 29.9594C16.6198 30.2383 16.9761 30.3795 17.3315 30.3795C17.6581 30.3795 17.9848 30.2649 18.2409 30.0228L21.3667 27.1075L21.4212 29.6729H29.5793V29.6716H29.5789Z" fill="#475E6D"/>
</svg>
