<svg width="52" height="52" viewBox="0 0 52 52" fill="none" xmlns="http://www.w3.org/2000/svg">
<path d="M51 26C51 39.8071 39.8071 51 26 51C12.1929 51 1 39.8071 1 26C1 12.1929 12.1929 1 26 1C39.8071 1 51 12.1929 51 26Z" fill="white"/>
<path fill-rule="evenodd" clip-rule="evenodd" d="M26 1.5C12.469 1.5 1.5 12.469 1.5 26C1.5 39.531 12.469 50.5 26 50.5C39.531 50.5 50.5 39.531 50.5 26C50.5 12.469 39.531 1.5 26 1.5ZM0.5 26C0.5 11.9167 11.9167 0.5 26 0.5C40.0833 0.5 51.5 11.9167 51.5 26C51.5 40.0833 40.0833 51.5 26 51.5C11.9167 51.5 0.5 40.0833 0.5 26Z" fill="#475E6D"/>
<path d="M34.2597 19.4325C33.7761 17.8624 33.3463 17.7541 33.3463 17.7541L27.597 15.5883L27.4896 15.3176L27.3284 14.7761L27.3821 14.343L27.597 14.1264C30.1224 7.52075 24.1582 8.00806 24.1582 8.00806C23.6209 8.17049 23.191 8.38707 22.8687 8.65779C20.6657 10.5528 22.7612 14.8844 22.7612 14.8844H23.2985V15.3176V15.6424V16.4546L22.4925 17.0502L18.8388 19.4867C18.194 19.974 18.2478 20.4613 18.2478 20.4613L17.1194 28.204C16.8507 29.0161 17.1194 29.341 17.1194 29.341L21.3642 37.2461V38.8704L21.9015 43.96L21.9552 43.9059C22.3313 43.5268 23.8358 42.0649 26.6299 41.1445C26.6299 41.1445 27.6507 40.603 27.8119 39.8992C27.8119 39.8992 27.9194 40.3323 28.2418 40.7113C29.5851 40.3865 31.0896 40.224 32.8627 40.2782L33.1313 40.3323L33.5612 35.0803L36.3015 26.9586L34.2597 19.4325ZM21.9552 34.5389L18.9463 28.6371L21.0955 21.9773C21.0955 21.9773 23.0299 26.1465 21.9552 34.5389ZM32.594 33.2935C32.594 33.2935 32.4866 32.8604 32.3254 32.1565V32.2106C32.3254 32.2106 32.3254 32.1024 32.2716 31.9399C31.7343 29.5576 30.7672 24.4138 31.3045 19.974L33.8836 26.6879L32.594 33.2935Z" fill="#475E6D"/>
<path d="M27.8242 22.759V18.4133H27.4492V22.759V23.0424V23.2313C28.5742 23.4203 29.5117 24.365 29.5117 25.4042C29.5117 26.6323 28.293 27.577 26.8867 27.577C25.3867 27.577 24.2617 26.6323 24.2617 25.4042C24.2617 24.365 25.1055 23.5148 26.3242 23.2313V23.0424V22.759V18.4133H25.9492V22.8535C24.7305 23.2313 23.8867 24.1761 23.8867 25.3097C23.8867 26.7268 25.1992 27.8604 26.8867 27.8604C28.5742 27.8604 29.8867 26.7268 29.8867 25.3097C29.8867 24.0816 28.9492 23.1369 27.8242 22.759Z" fill="white"/>
<path d="M27.8242 24.7198V29.0655H27.4492V24.7198V24.5309V24.342C28.5742 24.153 29.5117 23.2083 29.5117 22.1691C29.5117 20.941 28.293 19.9963 26.8867 19.9963C25.3867 19.9963 24.2617 20.941 24.2617 22.1691C24.2617 23.2083 25.1055 24.0585 26.3242 24.342V24.5309V24.8143V29.16H25.9492V24.7198C24.7305 24.342 23.8867 23.3973 23.8867 22.2636C23.8867 20.8465 25.1992 19.7129 26.8867 19.7129C28.5742 19.7129 29.8867 20.8465 29.8867 22.2636C29.8867 23.3973 28.9492 24.342 27.8242 24.7198Z" fill="white"/>
</svg>
