<svg width="49" height="49" viewBox="0 0 49 49" fill="none" xmlns="http://www.w3.org/2000/svg">
<path d="M47.7547 24.115C47.7547 37.1722 37.1703 47.7572 24.1137 47.7572C11.0572 47.7572 0.472778 37.1722 0.472778 24.115C0.472778 11.0578 11.0572 0.472839 24.1137 0.472839C37.1703 0.472839 47.7547 11.0578 47.7547 24.115Z" fill="white"/>
<path fill-rule="evenodd" clip-rule="evenodd" d="M24.1138 0.945686C11.3184 0.945686 0.945638 11.3189 0.945638 24.115C0.945638 36.9111 11.3184 47.2843 24.1138 47.2843C36.9092 47.2843 47.2819 36.9111 47.2819 24.115C47.2819 11.3189 36.9092 0.945686 24.1138 0.945686ZM0 24.115C0 10.7967 10.7961 0 24.1138 0C37.4315 0 48.2276 10.7967 48.2276 24.115C48.2276 37.4333 37.4315 48.23 24.1138 48.23C10.7961 48.23 0 37.4333 0 24.115Z" fill="#EA8439"/>
<path fill-rule="evenodd" clip-rule="evenodd" d="M27.9279 19.1336C27.9279 21.6052 25.8903 23.6091 23.3762 23.6091C20.8626 23.6091 18.8245 21.6052 18.8245 19.1336C18.8245 16.6617 20.8626 14.6581 23.3762 14.6581C25.8903 14.6581 27.9279 16.6617 27.9279 19.1336ZM16.5486 31.9074V30.3224C16.5486 26.6148 19.6059 23.6091 23.3762 23.6091C27.1469 23.6091 30.2037 26.6148 30.2037 30.3224V31.8843L16.5486 31.9074Z" fill="#EA8439"/>
<path d="M23.3762 23.6091C25.8903 23.6091 27.9279 21.6052 27.9279 19.1336C27.9279 16.6617 25.8903 14.6581 23.3762 14.6581C20.8626 14.6581 18.8245 16.6617 18.8245 19.1336C18.8245 21.6052 20.8626 23.6091 23.3762 23.6091ZM23.3762 23.6091C19.6059 23.6091 16.5486 26.6148 16.5486 30.3224V31.9074L30.2037 31.8843V30.3224C30.2037 26.6148 27.1469 23.6091 23.3762 23.6091Z" stroke="#EA8439" stroke-width="1.5" stroke-linecap="round"/>
</svg>
