<svg width="49" height="49" viewBox="0 0 49 49" fill="none" xmlns="http://www.w3.org/2000/svg">
<path d="M48.0291 24.115C48.0291 37.1722 37.4446 47.7572 24.3881 47.7572C11.3316 47.7572 0.747131 37.1722 0.747131 24.115C0.747131 11.0578 11.3316 0.472839 24.3881 0.472839C37.4446 0.472839 48.0291 11.0578 48.0291 24.115Z" fill="white"/>
<path fill-rule="evenodd" clip-rule="evenodd" d="M24.3881 0.945686C11.5927 0.945686 1.21999 11.3189 1.21999 24.115C1.21999 36.9111 11.5927 47.2843 24.3881 47.2843C37.1835 47.2843 47.5563 36.9111 47.5563 24.115C47.5563 11.3189 37.1835 0.945686 24.3881 0.945686ZM0.274353 24.115C0.274353 10.7967 11.0705 0 24.3881 0C37.7058 0 48.5019 10.7967 48.5019 24.115C48.5019 37.4333 37.7058 48.23 24.3881 48.23C11.0705 48.23 0.274353 37.4333 0.274353 24.115Z" fill="#EA8439"/>
<path d="M27.6454 29.0116C27.6454 29.0116 30.0969 31.4661 30.1033 31.4696C30.885 32.2575 30.6828 33.6419 29.9414 34.3953L26.5219 37.9588C25.201 39.2762 23.4361 37.4476 24.7183 36.1722L26.8876 34.0012L24.7638 31.894L27.6454 29.0116ZM20.0211 29.0116C20.0211 29.0116 17.5732 31.4661 17.5732 31.4696C16.7851 32.2575 16.9873 33.6419 17.7203 34.3953L21.155 37.9588C22.4706 39.2762 24.2359 37.4476 22.9602 36.1722L20.7944 34.0012L22.9018 31.894L20.0211 29.0116ZM23.9186 19.8806C25.8821 19.8806 27.4751 18.2917 27.4751 16.3187C27.4751 14.3573 25.8824 12.7668 23.9186 12.7668C21.9531 12.7668 20.3568 14.3573 20.3568 16.3187C20.3568 18.2901 21.9515 19.8806 23.9186 19.8806ZM27.7725 27.5872L27.8244 25.1607L30.7815 27.9193C31.022 28.1483 31.331 28.2567 31.6399 28.2567C31.9737 28.2567 32.3129 28.1231 32.5599 27.8593C33.0343 27.3485 33.0075 26.5536 32.4996 26.0792C32.4996 26.0792 29.1101 22.3954 28.6225 21.9661C27.7209 21.1664 26.3984 20.7129 24.2526 20.7129H23.5796C21.4323 20.7129 20.1114 21.1664 19.2062 21.9645C18.7206 22.3938 15.3307 26.0792 15.3307 26.0792C14.8248 26.5533 14.7948 27.3485 15.2704 27.8593C15.5178 28.1231 15.8548 28.2567 16.1908 28.2567C16.4997 28.2567 16.8086 28.1483 17.0508 27.9193L20.0066 25.1624L20.0582 27.5885H27.7728V27.5872H27.7725Z" fill="#EA8439"/>
</svg>
