<svg width="16" height="22" viewBox="0 0 16 22" fill="none" xmlns="http://www.w3.org/2000/svg">
<path d="M15.4248 0.387835C15.4248 0.173636 15.2512 0 15.0369 0C14.8227 0 14.6491 0.173636 14.6491 0.387835V0.994123H13.839V0.387835C13.839 0.173636 13.6654 0 13.4511 0C13.2369 0 13.0633 0.173636 13.0633 0.387835V0.994123H12.2532V0.387835C12.2532 0.173636 12.0796 0 11.8653 0C11.6511 0 11.4775 0.173636 11.4775 0.387835V0.994123H10.6674V0.387835C10.6674 0.173636 10.4938 0 10.2796 0C10.0653 0 9.89175 0.173636 9.89175 0.387835V0.994123H9.08162V0.387835C9.08162 0.173636 8.90802 0 8.69378 0C8.47954 0 8.30595 0.173636 8.30595 0.387835V0.994123H7.49582V0.387835C7.49582 0.173636 7.32218 0 7.10798 0C6.89378 0 6.72015 0.173636 6.72015 0.387835V0.994123H5.91001V0.387835C5.91001 0.173636 5.73638 0 5.52218 0C5.30798 0 5.13434 0.173636 5.13434 0.387835V0.994123H4.32421V0.387835C4.32421 0.173636 4.15058 0 3.93638 0C3.72218 0 3.54854 0.173636 3.54854 0.387835V0.994123H2.73841V0.387835C2.73841 0.173636 2.56477 0 2.35058 0C2.13638 0 1.96274 0.173636 1.96274 0.387835V0.994123H1.15287V0.387835C1.15287 0.173636 0.979231 0 0.765032 0C0.550834 0 0.377197 0.173636 0.377197 0.387835L0.377369 13.6511C0.377369 13.8653 0.551006 14.039 0.765204 14.039C0.979403 14.039 1.15304 13.8653 1.15304 13.6511V4.32325L2.54922 3.51389L4.13923 4.43535C4.20046 4.47089 4.26732 4.48773 4.33337 4.48773C4.46713 4.48773 4.59732 4.41838 4.66925 4.29429C4.77667 4.10896 4.71347 3.87165 4.52819 3.76427L2.7437 2.73006C2.62343 2.66032 2.47501 2.66036 2.35474 2.73006L1.15308 3.42667V1.76979H14.6493V3.42671L13.4477 2.73006C13.3274 2.66032 13.179 2.6604 13.0586 2.73006L11.4696 3.65148L9.88019 2.73006C9.75992 2.66032 9.61146 2.66032 9.49119 2.73006L7.90174 3.65152L6.31224 2.73006C6.19193 2.66032 6.04356 2.66036 5.92325 2.73006L5.08893 3.21376C4.90365 3.32118 4.84052 3.55849 4.9479 3.74377C5.05528 3.92905 5.29264 3.99218 5.47792 3.8848L6.11777 3.51389L7.70726 4.43535C7.82753 4.50509 7.97599 4.50509 8.09626 4.43535L9.68571 3.51389L11.2752 4.43535C11.3956 4.50509 11.5439 4.50505 11.6642 4.43535L13.2532 3.51393L14.6493 4.32329V17.6767L13.2527 18.4861L11.6632 17.5646C11.4779 17.4573 11.2407 17.5203 11.1332 17.7057C11.0257 17.8909 11.0889 18.1282 11.2742 18.2357L13.0582 19.2699C13.1184 19.3047 13.1856 19.3222 13.2527 19.3222C13.3199 19.3222 13.387 19.3047 13.4472 19.2699L14.6494 18.5732V20.2302H1.15313V18.5734L2.35423 19.2699C2.47454 19.3396 2.623 19.3396 2.74322 19.2699L4.33272 18.3484L5.92217 19.2699C6.04249 19.3396 6.1909 19.3396 6.31117 19.2699L7.90067 18.3484L9.49012 19.2699C9.55028 19.3047 9.61748 19.3221 9.68464 19.3221C9.7518 19.3221 9.81905 19.3047 9.87916 19.2699L10.518 18.8995C10.7033 18.792 10.7664 18.5548 10.659 18.3695C10.5517 18.1842 10.3144 18.1211 10.129 18.2285L9.68464 18.486L8.09519 17.5646C7.97487 17.4948 7.8265 17.4949 7.70619 17.5646L6.11674 18.486L4.52724 17.5646C4.40697 17.4948 4.25856 17.4948 4.13824 17.5646L2.54879 18.486L1.15308 17.6767V15.0214C1.15308 14.8072 0.979446 14.6336 0.765247 14.6336C0.551049 14.6336 0.377412 14.8072 0.377412 15.0214L0.37724 21.6122C0.37724 21.8264 0.550877 22 0.765075 22C0.979274 22 1.15291 21.8264 1.15291 21.6122V21.0057H1.96304V21.6122C1.96304 21.8264 2.13668 22 2.35088 22C2.56508 22 2.73871 21.8264 2.73871 21.6122V21.0057H3.54884V21.6122C3.54884 21.8264 3.72248 22 3.93668 22C4.15088 22 4.32451 21.8264 4.32451 21.6122V21.0057H5.13464V21.6122C5.13464 21.8264 5.30828 22 5.52248 22C5.73668 22 5.91032 21.8264 5.91032 21.6122V21.0057H6.72045V21.6122C6.72045 21.8264 6.89408 22 7.10828 22C7.32248 22 7.49612 21.8264 7.49612 21.6122V21.0057H8.30625V21.6122C8.30625 21.8264 8.47984 22 8.69408 22C8.90833 22 9.08192 21.8264 9.08192 21.6122V21.0057H9.89205V21.6122C9.89205 21.8264 10.0656 22 10.2799 22C10.4941 22 10.6677 21.8264 10.6677 21.6122V21.0057H11.4778V21.6122C11.4778 21.8264 11.6514 22 11.8656 22C12.0799 22 12.2535 21.8264 12.2535 21.6122V21.0057H13.0636V21.6122C13.0636 21.8264 13.2372 22 13.4514 22C13.6657 22 13.8393 21.8264 13.8393 21.6122V21.0057H14.6494V21.6122C14.6494 21.8264 14.823 22 15.0372 22C15.2515 22 15.4251 21.8264 15.4251 21.6122V0.387835H15.4248Z" fill="#E8E8E8"/>
<path d="M11.1188 10.7726L10.1291 9.40453C10.0035 9.23093 9.76107 9.19209 9.58757 9.31756C9.41402 9.44311 9.37509 9.68559 9.5006 9.85914L10.3259 11L7.90092 14.3525L5.47559 11L7.90092 7.6475L8.60913 8.62667C8.73468 8.80026 8.97715 8.8391 9.15066 8.71363C9.32425 8.58799 9.36318 8.34556 9.23763 8.17197L8.21523 6.75839C8.14232 6.65754 8.0254 6.5979 7.901 6.5979C7.77661 6.5979 7.65969 6.65758 7.58677 6.75839L4.68274 10.7726C4.5846 10.9083 4.5846 11.0916 4.68274 11.2273L7.58677 15.2415C7.65973 15.3423 7.77661 15.402 7.901 15.402C8.0254 15.402 8.14232 15.3422 8.21523 15.2415L11.1188 11.2273C11.2169 11.0916 11.2169 10.9083 11.1188 10.7726Z" fill="#E8E8E8"/>
<path d="M12.1589 7.40704H11.8099V7.058C11.8099 6.8438 11.6362 6.67017 11.422 6.67017C11.2078 6.67017 11.0342 6.8438 11.0342 7.058V7.40704H10.6852C10.471 7.40704 10.2974 7.58067 10.2974 7.79487C10.2974 8.00907 10.471 8.18271 10.6852 8.18271H11.0342V8.5317C11.0342 8.7459 11.2078 8.91953 11.422 8.91953C11.6363 8.91953 11.8099 8.7459 11.8099 8.5317V8.18271H12.1589C12.3731 8.18271 12.5467 8.00907 12.5467 7.79487C12.5466 7.58067 12.3731 7.40704 12.1589 7.40704Z" fill="#E8E8E8"/>
<path d="M12.1589 14.187H11.8099V13.838C11.8099 13.6238 11.6363 13.4502 11.422 13.4502C11.2078 13.4502 11.0342 13.6238 11.0342 13.838V14.187H10.6852C10.471 14.187 10.2974 14.3607 10.2974 14.5749C10.2974 14.7891 10.471 14.9627 10.6852 14.9627H11.0342V15.3117C11.0342 15.5259 11.2078 15.6996 11.422 15.6996C11.6363 15.6996 11.8099 15.5259 11.8099 15.3117V14.9627H12.1589C12.3731 14.9627 12.5467 14.7891 12.5467 14.5749C12.5467 14.3607 12.3731 14.187 12.1589 14.187Z" fill="#E8E8E8"/>
<path d="M8.6379 10.6121H8.28886V10.2631C8.28886 10.0489 8.11527 9.87524 7.90103 9.87524C7.68679 9.87524 7.51319 10.0489 7.51319 10.2631V10.6121H7.1642C6.95 10.6121 6.77637 10.7857 6.77637 10.9999C6.77637 11.2141 6.95 11.3877 7.1642 11.3877H7.51319V11.7368C7.51319 11.951 7.68683 12.1246 7.90103 12.1246C8.11523 12.1246 8.28886 11.951 8.28886 11.7368V11.3877H8.6379C8.85214 11.3877 9.02573 11.2141 9.02573 10.9999C9.02573 10.7857 8.85214 10.6121 8.6379 10.6121Z" fill="#E8E8E8"/>
<path d="M4.86812 7.40704H4.51913V7.058C4.51913 6.8438 4.3455 6.67017 4.1313 6.67017C3.9171 6.67017 3.74346 6.8438 3.74346 7.058V7.40704H3.39443C3.18023 7.40704 3.00659 7.58067 3.00659 7.79487C3.00659 8.00907 3.18023 8.18271 3.39443 8.18271H3.74346V8.5317C3.74346 8.7459 3.9171 8.91953 4.1313 8.91953C4.3455 8.91953 4.51913 8.7459 4.51913 8.5317V8.18271H4.86812C5.08232 8.18271 5.25596 8.00907 5.25596 7.79487C5.25592 7.58067 5.08228 7.40704 4.86812 7.40704Z" fill="#E8E8E8"/>
<path d="M4.86812 14.187H4.51913V13.838C4.51913 13.6238 4.3455 13.4502 4.1313 13.4502C3.9171 13.4502 3.74346 13.6238 3.74346 13.838V14.187H3.39443C3.18023 14.187 3.00659 14.3607 3.00659 14.5749C3.00659 14.7891 3.18023 14.9627 3.39443 14.9627H3.74346V15.3117C3.74346 15.5259 3.9171 15.6996 4.1313 15.6996C4.3455 15.6996 4.51913 15.5259 4.51913 15.3117V14.9627H4.86812C5.08232 14.9627 5.25596 14.7891 5.25596 14.5749C5.25596 14.3607 5.08228 14.187 4.86812 14.187Z" fill="#E8E8E8"/>
</svg>
