<svg width="23" height="22" viewBox="0 0 23 22" fill="none" xmlns="http://www.w3.org/2000/svg">
<path d="M22.4865 19.7599L21.8408 16.3506C21.6198 15.1826 20.8739 14.1773 19.8457 13.6614C19.7943 13.6355 19.7521 13.6154 19.717 13.5998L14.429 11.1766C14.1039 11.0269 13.7405 11.0155 13.4058 11.1445C13.066 11.2754 12.7933 11.5435 12.6579 11.8795C12.4024 12.5105 12.6785 13.2448 13.2865 13.5512L16.5401 15.1888C16.6488 15.2435 16.7328 15.3363 16.7766 15.45C16.831 15.5914 16.8178 15.7471 16.7407 15.8771C16.6108 16.0952 16.3302 16.1778 16.1022 16.065L12.3532 14.2086C12.0975 14.082 11.8904 13.8706 11.77 13.613L9.73454 9.26965C9.4023 8.56004 8.56965 8.22473 7.83921 8.50613L7.82802 8.51043C7.45394 8.6576 7.16022 8.94193 7.00081 9.31101C6.84153 9.67992 6.83605 10.0883 6.98511 10.4609L9.36331 16.4212C9.6358 17.1051 10.1461 17.6682 10.8003 18.0066L12.6198 18.9485C12.806 19.0449 13.0353 18.9721 13.1317 18.7858C13.2281 18.5996 13.1553 18.3704 12.969 18.274L11.1494 17.332C10.6575 17.0775 10.2738 16.6542 10.0689 16.1399L7.69046 10.179C7.61694 9.99527 7.61966 9.79393 7.69814 9.61215C7.77674 9.43011 7.92167 9.28987 8.10424 9.21802L8.11183 9.21508C8.47223 9.07629 8.88276 9.24175 9.04669 9.59184L11.082 13.935C11.2749 14.3477 11.6067 14.6867 12.0162 14.8894L15.7654 16.7459C16.3468 17.0332 17.0619 16.8223 17.3935 16.2654C17.5905 15.9336 17.624 15.5369 17.4854 15.1771C17.3736 14.8869 17.1591 14.6501 16.8815 14.5104L13.6281 12.8729C13.3706 12.7431 13.2537 12.432 13.3622 12.1641C13.4202 12.02 13.5327 11.9097 13.6789 11.8534C13.8205 11.7988 13.9741 11.8035 14.1119 11.867L19.4048 14.2923C19.4382 14.3071 19.4713 14.3234 19.5045 14.3401C20.3228 14.7507 20.9171 15.5551 21.0944 16.4918L21.7401 19.9012C21.7746 20.0835 21.9339 20.2104 22.1128 20.2104C22.1363 20.2104 22.1601 20.2082 22.1839 20.2038C22.3901 20.1648 22.5255 19.9661 22.4865 19.7599Z" fill="#E8E8E8"/>
<path d="M17.8227 21.4853L17.7283 21.2365C17.5771 20.8361 17.2845 20.5074 16.9047 20.3111L14.3379 18.9823C14.1516 18.8859 13.9224 18.9587 13.826 19.145C13.7296 19.3312 13.8024 19.5604 13.9887 19.6568L16.5557 20.9857C16.7688 21.0959 16.9329 21.2802 17.0179 21.5052L17.1124 21.7545C17.1699 21.9063 17.3143 21.9998 17.4676 21.9998C17.5123 21.9998 17.5578 21.9918 17.6021 21.975C17.7983 21.9007 17.897 21.6815 17.8227 21.4853Z" fill="#E8E8E8"/>
<path d="M15.3909 5.37797L13.6567 3.68469C13.5065 3.53813 13.2662 3.54098 13.1196 3.69105C12.9731 3.84115 12.976 4.08158 13.126 4.22813L14.8605 5.92173C14.9695 6.02788 15.0303 6.17018 15.0319 6.32244C15.0334 6.47487 14.9753 6.61862 14.8702 6.72521L14.865 6.73047C14.655 6.94041 14.3149 6.95217 14.0905 6.75723L11.0215 4.09325C10.7204 3.83133 10.3343 3.6778 9.93438 3.66104L6.39265 3.51186C5.81354 3.48878 5.30607 3.91945 5.23694 4.49479C5.19632 4.8372 5.31278 5.1733 5.55645 5.41697C5.75297 5.61349 6.01405 5.7292 6.29146 5.74267L9.37387 5.89273C9.58798 5.90326 9.7612 6.07938 9.76835 6.29428C9.77234 6.4096 9.72922 6.51838 9.6468 6.60081C9.56701 6.6806 9.46313 6.72319 9.34847 6.72214L4.41525 6.66301C4.38516 6.66301 4.35472 6.66182 4.32427 6.66037C3.56738 6.62454 2.84742 6.21514 2.39833 5.56532L0.7264 3.14677C0.607087 2.9742 0.370565 2.93108 0.198043 3.05031C0.025521 3.16958 -0.0176863 3.40614 0.101583 3.57866L1.77346 5.99709C2.35621 6.84044 3.29629 7.37196 4.28782 7.41898C4.33011 7.42104 4.37432 7.42284 4.41069 7.42249L9.33869 7.48162C9.65693 7.48592 9.95785 7.36393 10.1839 7.13789C10.4134 6.90839 10.5387 6.59138 10.5275 6.26857C10.5074 5.66213 10.017 5.16378 9.41102 5.13408L6.32843 4.98402C6.23983 4.97972 6.15648 4.94274 6.09362 4.87993C6.01554 4.80185 5.97826 4.69416 5.99124 4.58485C6.01331 4.40114 6.17526 4.2627 6.36111 4.27077L9.90262 4.41996C10.1311 4.42952 10.3515 4.51703 10.5234 4.66661L13.5926 7.33072C13.8421 7.54742 14.1528 7.65467 14.463 7.65467C14.8044 7.65467 15.1451 7.52461 15.4022 7.26756L15.4094 7.26036C15.6594 7.00674 15.7951 6.6709 15.7915 6.31476C15.7878 5.95884 15.6455 5.62599 15.3909 5.37797Z" fill="#E8E8E8"/>
<path d="M12.7224 2.77227L11.5007 1.57935C11.0446 1.13359 10.4427 0.867069 9.80583 0.82895L4.32442 0.499741C4.1358 0.488511 3.95881 0.408238 3.82572 0.273396L3.66693 0.112762C3.51936 -0.0364243 3.27889 -0.0377402 3.12984 0.109779C2.9807 0.257254 2.97934 0.497723 3.12681 0.646865L3.28543 0.807237C3.55025 1.07552 3.90319 1.23558 4.27911 1.25795L9.76034 1.58712C10.2149 1.61436 10.6443 1.80447 10.9698 2.12267L12.1917 3.31572C12.2656 3.38783 12.3613 3.4238 12.457 3.4238C12.5557 3.4238 12.6544 3.38555 12.7288 3.30936C12.8753 3.15925 12.8725 2.91882 12.7224 2.77227Z" fill="#E8E8E8"/>
</svg>
