<svg width="20" height="24" viewBox="0 0 20 24" fill="none" xmlns="http://www.w3.org/2000/svg">
<path d="M13.4462 10.4201C13.1596 10.7655 12.7364 11.0078 12.1993 11.1527C12.0863 10.7504 11.9147 10.3563 11.6628 9.99824L14.0641 7.40169C14.0773 8.35044 13.9766 9.78154 13.4462 10.4201ZM7.46244 13.3376C6.56869 12.399 6.36739 10.1863 6.32421 9.04894L11.3135 14.2786C10.3926 14.3677 8.47719 14.4035 7.46244 13.3376ZM11.726 13.914L6.71169 8.65789C7.83864 8.75441 10.0612 9.06104 10.9607 10.0057C12.0426 11.1417 11.8798 13.0257 11.726 13.914ZM10.8339 8.24924C11.3454 7.63324 12.6558 7.27601 13.5872 7.10716L11.3056 9.57419C11.0762 9.34841 10.7888 9.15646 10.466 8.99284C10.5468 8.69996 10.6681 8.44834 10.8339 8.24924ZM14.2813 6.45239C14.1625 6.46339 11.3718 6.74114 10.4107 7.89806C10.2105 8.13896 10.0606 8.43211 9.95861 8.76789C8.30916 8.12989 6.16581 8.06829 6.04591 8.06526H6.03932C5.89054 8.06526 5.76817 8.18406 5.76432 8.33366C5.76047 8.49371 5.68457 12.2681 7.06424 13.7168C7.96816 14.6658 9.40779 14.8721 10.4896 14.8721C11.2816 14.8721 11.8817 14.7615 11.9383 14.7508C11.9496 14.7486 11.9595 14.7434 11.9705 14.7398C11.9793 14.737 11.9873 14.7348 11.9961 14.731C12.025 14.7183 12.0519 14.7021 12.0747 14.6807C12.0753 14.6801 12.0761 14.6798 12.0767 14.6793C12.0786 14.6771 12.0794 14.6743 12.0816 14.6721C12.1017 14.6515 12.1182 14.6276 12.1311 14.6012C12.135 14.5929 12.1388 14.585 12.1421 14.5762C12.1449 14.5687 12.1495 14.5624 12.1515 14.5544C12.1754 14.4692 12.5461 13.1104 12.3181 11.6944C12.9809 11.5209 13.5034 11.2118 13.8697 10.7707C14.8311 9.61379 14.5921 6.81924 14.5816 6.70071C14.575 6.62784 14.5398 6.56046 14.4832 6.51371C14.4271 6.46806 14.3548 6.44551 14.2813 6.45239Z" fill="#E8E8E8"/>
<path d="M10.1889 22.3678C2.67454 16.0689 1.68454 6.03635 1.56519 4.21035C2.49634 4.20595 5.26284 3.97935 6.79046 1.55H13.7711C14.0403 2.19735 15.1571 4.1779 18.8135 4.48947C18.7004 6.21537 17.7313 16.0488 10.1889 22.3678ZM19.1187 3.96065C15.0042 3.71177 14.2575 1.30195 14.2281 1.20075C14.1948 1.08195 14.0865 1 13.9633 1H6.63619C6.53884 1 6.44864 1.0517 6.39941 1.1353C4.78709 3.86825 1.32979 3.65622 1.29486 3.65347C1.21869 3.64742 1.14141 3.6752 1.08531 3.72882C1.02949 3.78217 0.998413 3.85697 1.00006 3.93452C1.00309 4.05305 1.39634 15.8748 10.0143 22.9376C10.0652 22.9794 10.127 23 10.1889 23C10.2508 23 10.3124 22.9794 10.3633 22.9376C18.9809 15.8748 19.3745 4.35748 19.3772 4.24198C19.3808 4.09402 19.2667 3.96945 19.1187 3.96065Z" fill="#E8E8E8" stroke="#979797" stroke-width="0.2"/>
</svg>
