<svg width="24" height="22" viewBox="0 0 24 22" fill="none" xmlns="http://www.w3.org/2000/svg">
<path d="M12.1106 4.70752C12.0417 4.96486 12.1949 5.22908 12.452 5.29741L15.9048 6.21985C15.9651 6.24465 16.0302 6.25649 16.0957 6.25539C16.0999 6.25594 16.1032 6.25704 16.1076 6.25704C16.1131 6.25704 16.1192 6.25484 16.1247 6.25484C16.1401 6.25374 16.1555 6.25153 16.1704 6.24905C16.2327 6.24051 16.2936 6.22426 16.3487 6.19257C16.4591 6.12865 16.5399 6.02313 16.5727 5.89942L17.5155 2.36919C17.5844 2.11186 17.4315 1.84763 17.1741 1.77875C16.9165 1.70877 16.6526 1.86279 16.584 2.1204L15.9357 4.54882L13.899 1.0208C13.5356 0.391237 12.8576 0 12.1302 0C11.4031 0 10.725 0.391237 10.3613 1.0208L5.16037 10.0328C5.02757 10.2636 5.10664 10.5585 5.33725 10.6915C5.41275 10.7356 5.49568 10.756 5.57778 10.756C5.74447 10.756 5.9062 10.6698 5.99602 10.5149L11.1976 1.50296C11.389 1.17096 11.7469 0.964318 12.131 0.964318C12.5154 0.964318 12.873 1.17096 13.065 1.50296L15.0846 5.00233L12.7013 4.3656C12.4423 4.29645 12.1795 4.44964 12.1106 4.70752Z" fill="#28B446"/>
<path d="M17.6558 7.52888C17.5233 7.29855 17.2277 7.21892 16.9971 7.35227C16.7665 7.48507 16.6874 7.78016 16.8208 8.01104L21.8515 16.7271C21.8586 16.74 21.8663 16.7519 21.8749 16.7637C22.0024 16.945 22.0699 17.1594 22.0699 17.3826C22.0699 17.9766 21.5867 18.4604 20.9924 18.4604H20.9858H16.9136L18.6838 16.6905C18.8723 16.502 18.8723 16.197 18.6838 16.0085C18.4956 15.8201 18.1904 15.8195 18.0022 16.0085L15.4173 18.5921C15.2288 18.7805 15.2288 19.0855 15.417 19.274L18.0002 21.8592C18.0948 21.9534 18.2179 22 18.3413 22C18.4648 22 18.5885 21.9534 18.6824 21.8592C18.8706 21.6707 18.8706 21.3657 18.6827 21.1773L16.9307 19.4247H20.9858H20.9924C22.1184 19.4247 23.0343 18.5089 23.0343 17.3826C23.0343 16.9671 22.9106 16.5678 22.6764 16.2279L17.6558 7.52888Z" fill="#28B446"/>
<path d="M3.27583 19.4246H13.4541C13.7208 19.4246 13.9362 19.2088 13.9362 18.9424C13.9362 18.676 13.7208 18.4603 13.4541 18.4603H3.27583C2.89176 18.4603 2.53413 18.2536 2.3421 17.9216C2.15006 17.5891 2.15006 17.1763 2.3421 16.8438L4.27376 13.4973L4.94576 15.9032C5.00527 16.1161 5.19896 16.2556 5.41001 16.2556C5.45299 16.2556 5.49652 16.2503 5.54005 16.2382C5.79656 16.1663 5.94644 15.9004 5.87481 15.6439L4.89148 12.123C4.85704 11.9999 4.77521 11.8955 4.66362 11.8329C4.55259 11.7698 4.42034 11.7544 4.29746 11.7883L0.777698 12.7719C0.52119 12.8441 0.371307 13.11 0.442942 13.3659C0.514577 13.6227 0.781555 13.7723 1.03696 13.7007L3.4293 13.0323L1.50727 16.3616C1.14331 16.9912 1.14331 17.7737 1.50727 18.4043C1.87123 19.0333 2.54874 19.4246 3.27583 19.4246Z" fill="#28B446"/>
</svg>
