<svg width="22" height="22" viewBox="0 0 22 22" fill="none" xmlns="http://www.w3.org/2000/svg">
<path d="M13.8469 7.53418C13.4076 7.53418 13.1071 7.78808 12.8651 7.99224C12.7559 8.08469 12.6055 8.21146 12.5364 8.21146C12.5218 8.21146 12.5025 8.20374 12.489 8.19747C12.1545 8.03672 11.7485 8.24298 11.5557 8.69016C11.4177 9.00918 11.3738 9.49347 11.7025 9.80863C12.3396 10.4197 12.9019 10.5479 13.2613 10.5479C13.8363 10.5479 14.3099 10.2124 14.498 9.67173C14.5615 9.48858 14.6707 9.32468 14.7762 9.16607C14.9832 8.85509 15.3301 8.33437 14.744 7.88649C14.4337 7.64937 14.1405 7.53418 13.8469 7.53418ZM14.1606 8.78922C14.0434 8.96536 13.8973 9.18495 13.8053 9.45038C13.7162 9.70637 13.5227 9.84749 13.2612 9.84749C12.9483 9.84749 12.5777 9.6577 12.2187 9.31348C12.1902 9.28582 12.1764 9.22032 12.1826 9.14223C12.1924 9.02913 12.2381 8.92793 12.2775 8.87015C12.3633 8.89781 12.4499 8.91184 12.5368 8.91184C12.8811 8.91184 13.129 8.70243 13.3478 8.51789C13.5205 8.3722 13.6833 8.2346 13.8469 8.2346C13.967 8.2346 14.1157 8.30182 14.2891 8.43421C14.3212 8.45908 14.3348 8.47517 14.3384 8.47586C14.3307 8.5336 14.2289 8.687 14.1606 8.78922Z" fill="#28B446"/>
<path d="M4.76387 5.21611C4.95398 5.28534 5.16231 5.18284 5.22949 4.98826C6.10372 2.45202 8.45507 0.748272 11.0797 0.748272C11.4895 0.748272 11.8974 0.789441 12.2962 0.870595C12.2929 1.0977 12.317 1.34011 12.34 1.57735C12.3615 1.79507 12.3955 2.14564 12.3667 2.28559C11.6456 2.54637 11.1308 3.00278 10.9487 3.54564C10.8151 3.9437 10.8717 4.36236 11.1074 4.72529C11.2311 4.91535 11.3391 5.12935 11.4431 5.3366C11.6602 5.76722 11.9427 6.32877 12.3944 6.32877C12.4903 6.32877 12.5943 6.30334 12.7067 6.24573C12.9884 6.10096 13.1694 5.76985 13.3606 5.41928C13.5456 5.08108 13.7755 4.65979 13.9988 4.65979C14.1273 4.65979 14.1762 4.68412 14.2739 5.15811C14.3396 5.4765 14.4214 5.87271 14.7665 6.04927C15.2453 6.2958 16.7293 6.05374 17.563 5.6905C17.5783 5.68375 17.5882 5.67143 17.6021 5.66283C17.6236 5.65012 17.644 5.6374 17.6619 5.62092C17.6798 5.60448 17.6933 5.5865 17.7076 5.56704C17.7214 5.54796 17.7345 5.52964 17.7451 5.50793C17.7554 5.48663 17.7612 5.46453 17.7674 5.44099C17.7736 5.41779 17.7788 5.39535 17.7802 5.37101C17.7821 5.34707 17.7791 5.32314 17.7762 5.29845C17.774 5.28162 17.7769 5.26553 17.7729 5.24869C17.2558 3.28864 15.939 1.64508 14.1605 0.738933C13.9788 0.646512 13.761 0.722492 13.6715 0.907291C13.5814 1.09249 13.6555 1.31696 13.8357 1.40899C15.3281 2.16884 16.4484 3.51197 16.9646 5.12111C16.2089 5.37215 15.2851 5.45559 15.1015 5.38601C15.0574 5.34111 15.014 5.12974 14.988 5.00326C14.9092 4.62164 14.7629 3.91156 13.9988 3.91156C13.3475 3.91156 13.002 4.54496 12.7239 5.05416C12.6385 5.21129 12.5017 5.46159 12.4119 5.55024C12.3218 5.45037 12.1857 5.18025 12.0916 4.99352C11.9836 4.77838 11.861 4.53483 11.7147 4.31036C11.6052 4.14125 11.5793 3.96614 11.6388 3.7888C11.7497 3.45809 12.131 3.15351 12.6586 2.97393C13.1928 2.79172 13.1253 2.10706 13.0662 1.50286C13.0367 1.2017 13.0035 0.860467 13.0465 0.657692C13.0885 0.460529 12.9703 0.264462 12.779 0.215095C12.2265 0.0722098 11.6544 0 11.0797 0C8.14639 0 5.5188 1.90433 4.54164 4.73871C4.47412 4.93363 4.57376 5.14728 4.76387 5.21611Z" fill="#28B446"/>
<path d="M4.4509 18.9863C4.54588 18.9863 4.64081 18.9507 4.71313 18.8798C4.85818 18.7377 4.85818 18.508 4.71313 18.366L1.35383 15.0763C1.32897 15.0549 0.741832 14.5417 0.741832 13.535V8.08378C0.741832 7.68294 1.07452 7.35693 1.48366 7.35693C1.89242 7.35693 2.2255 7.6829 2.2255 8.08378V10.9609C2.2255 11.1615 2.39127 11.3243 2.59639 11.3243C2.80151 11.3243 2.96728 11.1615 2.96728 10.9609V8.08378C2.96728 7.28206 2.30187 6.63013 1.48366 6.63013C0.665419 6.63013 0 7.28211 0 8.08378V13.535C0 14.892 0.837891 15.6003 0.850497 15.6091L4.18867 18.8798C4.261 18.9507 4.35593 18.9863 4.4509 18.9863Z" fill="#28B446"/>
<path d="M17.781 7.10748C17.781 6.98157 17.7777 6.85639 17.7715 6.73234C17.7605 6.52733 17.5876 6.36577 17.388 6.38096C17.1867 6.39136 17.032 6.56629 17.0426 6.77095C17.048 6.88276 17.0513 6.99454 17.0513 7.10744C17.0513 10.5527 14.3265 13.3628 10.9556 13.4208C9.74224 12.6026 9.87832 11.8434 10.0903 11.3394C10.7849 9.68915 9.78166 8.94003 9.40407 8.65773C9.38 8.63988 9.35773 8.6243 9.33879 8.60946C9.33443 8.47279 9.39463 8.1463 9.4402 7.90152C9.52412 7.44542 9.62916 6.87789 9.62916 6.3007C9.62916 5.81748 9.38766 5.43158 8.96664 5.24216C8.49786 5.03119 7.87107 5.10806 7.53765 5.41709C7.31803 5.62026 7.24176 5.90849 7.33334 6.1874C7.42089 6.45482 7.38259 6.93543 7.13997 7.33656C7.01556 7.5423 6.78936 7.79897 6.41875 7.85394C6.35564 7.86361 6.32572 7.85878 6.32281 7.86139C6.28707 7.81421 6.25312 7.63183 6.23089 7.5104C6.12983 6.96812 5.94198 5.95789 4.32839 5.95789C4.31124 5.95789 4.29628 5.96568 4.27986 5.9679C4.25434 5.97125 4.22989 5.9746 4.20616 5.98314C4.185 5.99093 4.16747 6.00172 4.14853 6.01321C4.12664 6.02583 4.10621 6.03811 4.08761 6.05482C4.07081 6.07006 4.05841 6.08786 4.04456 6.1061C4.02998 6.12542 4.01574 6.14361 4.0048 6.16551C3.99385 6.18779 3.98838 6.21156 3.98218 6.23606C3.97782 6.25278 3.96867 6.26688 3.96649 6.28433C3.93255 6.56699 3.91797 6.81321 3.91797 7.1074C3.91797 10.0943 5.77563 12.7689 8.54057 13.7632C8.58071 13.7777 8.62193 13.7847 8.66207 13.7847C8.81239 13.7847 8.95321 13.6893 9.0061 13.5366C9.07322 13.3435 8.97326 13.1311 8.78357 13.0627C6.30973 12.1732 4.64766 9.77977 4.64766 7.10744C4.64766 6.97003 4.65168 6.84411 4.65933 6.71932C5.35649 6.8055 5.42763 7.18435 5.51373 7.64898C5.58303 8.01965 5.71257 8.70974 6.52426 8.58939C7.03061 8.51401 7.46985 8.2072 7.76137 7.72624C8.08937 7.18396 8.19552 6.47123 8.01857 5.97761C8.05944 5.91297 8.32903 5.81382 8.60081 5.89517C8.86856 5.97578 8.8996 6.1652 8.8996 6.30074C8.8996 6.80886 8.80183 7.33847 8.72303 7.76411C8.60337 8.41111 8.5242 8.83862 8.78032 9.09899C8.82265 9.14243 8.88977 9.19518 8.97224 9.25686C9.3367 9.52872 9.8861 9.93916 9.41985 11.0467C9.07728 11.8608 9.01306 13.0527 10.6551 14.1072C10.7131 14.1447 10.7806 14.1644 10.8496 14.1644C14.6717 14.1644 17.781 10.9988 17.781 7.10748Z" fill="#28B446"/>
<path d="M8.37147 19.7997H8.00314V16.866C8.00314 15.5164 7.17476 14.786 7.15853 14.7731L4.58009 12.2061C4.3031 11.9299 3.94617 11.7697 3.57599 11.7543C3.18517 11.7407 2.8209 11.8834 2.54131 12.1617C2.26139 12.4401 2.11627 12.8061 2.13172 13.1919C2.14717 13.5604 2.30852 13.9158 2.5859 14.1915L4.42764 16.0251C4.57168 16.1685 4.80447 16.1685 4.94847 16.0251C5.09247 15.8817 5.09247 15.65 4.94847 15.5066L3.10674 13.673C2.96049 13.5274 2.8758 13.3459 2.86842 13.1618C2.86069 12.9807 2.92808 12.8141 3.06219 12.6803C3.19665 12.5468 3.35943 12.4794 3.54581 12.4875C3.73073 12.4948 3.91341 12.5791 4.05926 12.7247L6.65496 15.3079C6.67965 15.3303 7.2664 15.8635 7.2664 16.8661V19.7997H2.47795C2.27425 19.7997 2.10962 19.964 2.10962 20.1664V21.6333C2.10962 21.8357 2.27425 22 2.47795 22C2.68164 22 2.84628 21.8357 2.84628 21.6333V20.5331H8.0031V21.6333C8.0031 21.8357 8.16773 22 8.37143 22C8.57512 22 8.73976 21.8357 8.73976 21.6333V20.1664C8.7398 19.964 8.57517 19.7997 8.37147 19.7997Z" fill="#28B446"/>
<path d="M20.5165 6.63013C19.6983 6.63013 19.0329 7.28211 19.0329 8.08378V10.9609C19.0329 11.1615 19.1987 11.3243 19.4038 11.3243C19.6089 11.3243 19.7747 11.1615 19.7747 10.9609V8.08378C19.7747 7.68294 20.1074 7.35693 20.5165 7.35693C20.9253 7.35693 21.2583 7.6829 21.2583 8.08378V13.535C21.2583 14.5417 20.6712 15.0548 20.6252 15.0952L17.287 18.366C17.142 18.5081 17.142 18.7377 17.287 18.8798C17.3593 18.9507 17.4543 18.9863 17.5492 18.9863C17.6442 18.9863 17.7391 18.9507 17.8115 18.8798L21.1263 15.6298C21.1623 15.6003 22.0001 14.892 22.0001 13.535V8.08378C22.0001 7.28211 21.3347 6.63013 20.5165 6.63013Z" fill="#28B446"/>
<path d="M19.5221 19.7997H14.7336V16.866C14.7336 15.8634 15.3204 15.3302 15.3623 15.2917L17.9407 12.7247C18.0866 12.5791 18.2693 12.4948 18.4542 12.4874C18.642 12.4794 18.8034 12.5468 18.9378 12.6803C19.0718 12.8142 19.1393 12.9807 19.1315 13.1618C19.1242 13.3459 19.0395 13.5274 18.8932 13.673L17.0516 15.5066C16.9075 15.65 16.9075 15.8818 17.0516 16.0251C17.1956 16.1685 17.4284 16.1685 17.5724 16.0251L19.4141 14.1916C19.6915 13.9158 19.8525 13.5604 19.8683 13.1919C19.8838 12.8061 19.7387 12.4401 19.4587 12.1618C19.1792 11.8834 18.8152 11.7404 18.4241 11.7543C18.0539 11.7697 17.6969 11.93 17.42 12.2061L14.8607 14.7555C14.8253 14.786 13.9969 15.5165 13.9969 16.866V19.7997H13.6286C13.4249 19.7997 13.2603 19.964 13.2603 20.1664V21.6333C13.2603 21.8357 13.4249 22 13.6286 22C13.8323 22 13.9969 21.8357 13.9969 21.6333V20.5331H19.1537V21.6333C19.1537 21.8357 19.3184 22 19.5221 22C19.7258 22 19.8904 21.8357 19.8904 21.6333V20.1664C19.8904 19.964 19.7258 19.7997 19.5221 19.7997Z" fill="#28B446"/>
</svg>
