<svg width="31" height="30" viewBox="0 0 31 30" fill="none" xmlns="http://www.w3.org/2000/svg">
<path d="M30.7346 26.0414L22.6561 12.0491L26.3936 8.31162L25.6643 7.58241L22.1221 11.1247L15.8484 0.257883C15.7563 0.0983452 15.5862 0 15.4019 0C15.2175 0 15.0474 0.0983452 14.9553 0.257883L8.52243 11.4L4.70518 7.58277L3.97597 8.31199L7.98881 12.3248L0.0691148 26.0414C-0.0230383 26.201 -0.0230383 26.3977 0.0691148 26.5572C0.161268 26.7167 0.331368 26.8151 0.515674 26.8151H6.43168L3.97597 29.2708L4.70518 30L7.8901 26.8151H22.4794L25.6643 30L26.3936 29.2708L23.9378 26.8151H30.288C30.4723 26.8151 30.6424 26.7167 30.7346 26.5572C30.8267 26.3977 30.8267 26.201 30.7346 26.0414ZM15.4019 1.54693L21.3674 11.8794L15.1848 18.062L9.2775 12.1547L15.4019 1.54693ZM7.46285 25.7835H1.40879L8.74388 13.0792L14.4556 18.7912L7.46285 25.7835ZM8.92127 25.7835L15.1844 19.5201L21.4475 25.7835H8.92127ZM22.9063 25.7835L15.914 18.7912L21.901 12.8042L29.3949 25.7839H22.9063V25.7835Z" fill="#B3C1C9"/>
</svg>
