<svg width="45" height="45" viewBox="0 0 45 45" fill="none" xmlns="http://www.w3.org/2000/svg">
<path d="M35.8306 34.8352C38.9211 31.4846 40.637 27.0933 40.637 22.535C40.637 17.9768 38.9211 13.5855 35.8306 10.2349L44.7853 1.24387C44.853 1.17621 44.9067 1.09588 44.9433 1.00748C44.9799 0.919076 44.9988 0.824326 44.9988 0.72864C44.9988 0.632954 44.9799 0.538204 44.9433 0.449802C44.9067 0.361399 44.853 0.281074 44.7853 0.213414C44.7177 0.145753 44.6374 0.092082 44.549 0.0554644C44.4606 0.0188468 44.3658 -2.46962e-09 44.2701 0C44.1744 2.46962e-09 44.0797 0.0188468 43.9913 0.0554644C43.9029 0.092082 43.8226 0.145753 43.7549 0.213414L34.8364 9.17545C31.4858 6.08494 27.0946 4.369 22.5363 4.369C17.978 4.369 13.5868 6.08494 10.2362 9.17545L1.2451 0.213414C1.10846 0.0767672 0.923126 4.18135e-08 0.729878 4.32533e-08C0.536631 4.46932e-08 0.351299 0.0767672 0.214652 0.213414C0.0780057 0.35006 0.00123852 0.535393 0.00123852 0.72864C0.00123851 0.921887 0.0780057 1.10722 0.214652 1.24387L9.64837 10.6776L21.4768 22.4988L10.1999 33.7684C7.9782 31.353 6.51792 28.3362 6.00164 25.0952C5.48536 21.8543 5.936 18.533 7.2972 15.5468C7.37803 15.3717 7.38598 15.1716 7.3193 14.9906C7.25261 14.8096 7.11676 14.6625 6.94162 14.5817C6.76648 14.5009 6.56641 14.4929 6.38541 14.5596C6.20441 14.6263 6.05731 14.7621 5.97648 14.9373C4.48293 18.1988 3.98979 21.8298 4.5594 25.3715C5.12902 28.9132 6.73581 32.2065 9.17669 34.8352L0.214652 43.7537C0.146636 43.8211 0.0926504 43.9014 0.0558091 43.9898C0.0189678 44.0782 0 44.1731 0 44.2689C0 44.3647 0.0189678 44.4595 0.0558091 44.548C0.0926504 44.6364 0.146636 44.7167 0.214652 44.7841C0.282113 44.8521 0.362373 44.9061 0.450802 44.943C0.539232 44.9798 0.634081 44.9988 0.729878 44.9988C0.825676 44.9988 0.920525 44.9798 1.00895 44.943C1.09738 44.9061 1.17764 44.8521 1.2451 44.7841L10.1999 35.8221C12.8285 38.2508 16.1168 39.8478 19.651 40.4121C23.1851 40.9764 26.8072 40.4827 30.0615 38.9933C30.2351 38.9127 30.3698 38.7669 30.4364 38.5875C30.503 38.4081 30.4961 38.2097 30.4171 38.0354C30.3779 37.9479 30.3217 37.869 30.2519 37.8033C30.1821 37.7377 30.0999 37.6865 30.0101 37.6527C29.9204 37.619 29.8249 37.6034 29.7291 37.6068C29.6332 37.6102 29.5391 37.6325 29.4519 37.6725C27.273 38.6792 24.9002 39.1968 22.5 39.1892C18.3306 39.201 14.3087 37.6472 11.2303 34.8352L22.5 23.522L43.7549 44.7841C43.8224 44.8521 43.9026 44.9061 43.991 44.943C44.0795 44.9798 44.1743 44.9988 44.2701 44.9988C44.3659 44.9988 44.4608 44.9798 44.5492 44.943C44.6376 44.9061 44.7179 44.8521 44.7853 44.7841C44.8534 44.7167 44.9073 44.6364 44.9442 44.548C44.981 44.4595 45 44.3647 45 44.2689C45 44.1731 44.981 44.0782 44.9442 43.9898C44.9073 43.9014 44.8534 43.8211 44.7853 43.7537L35.8306 34.8352ZM11.2376 10.2059C14.309 7.38018 18.3301 5.81183 22.5036 5.81183C26.6771 5.81183 30.6983 7.38018 33.7697 10.2059L22.5 21.4756L11.2376 10.2059ZM34.8364 11.2291C37.6621 14.3005 39.2305 18.3216 39.2305 22.4951C39.2305 26.6686 37.6621 30.6898 34.8364 33.7612L23.5232 22.4988L34.8364 11.2291Z" fill="#B3C1C9"/>
</svg>
