<svg width="45" height="45" viewBox="0 0 45 45" fill="none" xmlns="http://www.w3.org/2000/svg">
<path d="M22.5 45C18.0499 45 13.6998 43.6804 9.99968 41.2081C6.29957 38.7357 3.41569 35.2217 1.71272 31.1104C0.00974854 26.999 -0.435826 22.475 0.432341 18.1105C1.30051 13.7459 3.44343 9.73679 6.59011 6.59011C9.73679 3.44343 13.7459 1.30051 18.1105 0.432341C22.475 -0.435826 26.999 0.00974854 31.1104 1.71272C35.2217 3.41569 38.7357 6.29957 41.2081 9.99968C43.6804 13.6998 45 18.0499 45 22.5C45 25.4547 44.418 28.3806 43.2873 31.1104C42.1566 33.8402 40.4992 36.3206 38.4099 38.4099C36.3206 40.4992 33.8402 42.1566 31.1104 43.2873C28.3806 44.418 25.4547 45 22.5 45V45ZM22.5 1.80001C18.4059 1.80001 14.4038 3.01404 10.9997 5.28859C7.59561 7.56313 4.94244 10.796 3.3757 14.5785C1.80897 18.3609 1.39904 22.523 2.19775 26.5384C2.99647 30.5538 4.96795 34.2422 7.8629 37.1371C10.7578 40.0321 14.4462 42.0035 18.4616 42.8023C22.477 43.601 26.6391 43.191 30.4216 41.6243C34.204 40.0576 37.4369 37.4044 39.7114 34.0003C41.986 30.5962 43.2 26.5941 43.2 22.5C43.2 17.01 41.0191 11.7449 37.1371 7.8629C33.2551 3.9809 27.99 1.80001 22.5 1.80001Z" fill="#B3C1C9"/>
</svg>
