<svg width="30" height="30" viewBox="0 0 30 30" fill="none" xmlns="http://www.w3.org/2000/svg">
<path d="M29.4747 0H0.52529C0.234979 0 0 0.23498 0 0.52529V29.4747C0 29.7647 0.234979 30 0.52529 30H29.4747C29.7647 30 30 29.7647 30 29.4747V0.52529C30 0.23533 29.765 0 29.4747 0ZM16.2885 17.3699C16.2507 17.3752 16.2132 17.3815 16.1754 17.386C16.0774 17.3979 15.9776 17.406 15.8778 17.4137C15.8396 17.4165 15.8021 17.4211 15.7639 17.4235C15.6267 17.4316 15.4876 17.4365 15.3476 17.4365C15.2117 17.4365 15.0772 17.4319 14.9438 17.4239C14.8923 17.4207 14.8419 17.4155 14.7908 17.4113C14.7106 17.405 14.6307 17.3983 14.5519 17.3892C14.4899 17.3818 14.4287 17.3727 14.3674 17.364C14.3022 17.3545 14.2371 17.3451 14.173 17.3339C14.1068 17.3223 14.0413 17.3093 13.9762 17.2957C13.9195 17.2838 13.8631 17.2715 13.8074 17.2586C13.7405 17.2428 13.6743 17.2264 13.6089 17.2085C13.5896 17.2032 13.5707 17.1973 13.5514 17.192L15.0005 15.7429L16.582 17.3244C16.5806 17.3248 16.5795 17.3251 16.5781 17.3251C16.4829 17.3426 16.3859 17.3566 16.2885 17.3699ZM11.4559 15.9422C11.4272 15.9051 11.3995 15.8676 11.3739 15.8298C11.3519 15.7972 11.3312 15.7643 11.3112 15.731C11.2864 15.6897 11.2626 15.648 11.2412 15.6057C11.2258 15.5752 11.2128 15.544 11.1995 15.5132C11.1799 15.4677 11.161 15.4225 11.1459 15.3759C11.0976 15.2275 11.0689 15.0751 11.0689 14.9196C11.0689 14.2252 11.5784 13.5864 12.3828 13.1256L14.2571 14.9998L12.4879 16.7697C12.4529 16.7508 12.4168 16.7326 12.3825 16.7133C12.3366 16.6871 12.2932 16.6594 12.2491 16.6321C12.1923 16.5967 12.1349 16.5613 12.0817 16.5239C12.0456 16.4987 12.0123 16.4717 11.978 16.4458C11.9321 16.4111 11.8859 16.3764 11.8428 16.34C11.8085 16.3109 11.7766 16.2808 11.7441 16.2511C11.7063 16.2164 11.6688 16.1814 11.6338 16.1457C11.6016 16.1127 11.5718 16.0791 11.542 16.0452C11.5123 16.0112 11.4832 15.9769 11.4559 15.9422ZM14.0438 12.5285C14.222 12.4938 14.4041 12.4665 14.5887 12.4466C14.6395 12.441 14.691 12.4368 14.7424 12.4322C14.9385 12.4154 15.1368 12.4035 15.3378 12.4031C15.3409 12.4031 15.3441 12.4028 15.3472 12.4028C15.4918 12.4028 15.6354 12.4073 15.7769 12.4161C15.7808 12.4164 15.7846 12.4168 15.7885 12.4172C15.9264 12.4259 16.0627 12.4385 16.1964 12.455C16.1982 12.4553 16.1999 12.4557 16.202 12.4557C16.3775 12.4774 16.5477 12.5082 16.7151 12.5425L15.0005 14.2571L13.4264 12.6829C13.5777 12.6367 13.7328 12.5968 13.8911 12.5618C13.9415 12.5509 13.992 12.5387 14.0438 12.5285ZM18.3704 13.1589C18.4576 13.2107 18.541 13.2643 18.6205 13.3203C18.6394 13.3336 18.6569 13.3476 18.6751 13.3613C18.7388 13.4078 18.8005 13.4555 18.8586 13.5049C18.8891 13.5308 18.9174 13.5577 18.9465 13.5847C18.9875 13.6222 19.0281 13.66 19.0659 13.6989C19.1051 13.7398 19.1416 13.7819 19.1769 13.8239C19.199 13.8498 19.2214 13.8757 19.2421 13.902C19.2851 13.958 19.3247 14.0154 19.3608 14.0736C19.3692 14.0872 19.3786 14.1005 19.3867 14.1145C19.428 14.1846 19.4644 14.2557 19.4953 14.3282C19.4963 14.331 19.4977 14.3334 19.4988 14.3362C19.5639 14.4927 19.6038 14.6545 19.6154 14.8202C19.6154 14.8219 19.6164 14.8237 19.6164 14.8254C19.6185 14.8569 19.6248 14.8881 19.6248 14.92C19.6248 15.6582 19.0481 16.3327 18.1544 16.7977C18.1004 16.8261 18.0458 16.8537 17.9901 16.8804C17.9299 16.9087 17.8679 16.936 17.8049 16.9623C17.7814 16.9721 17.7576 16.9819 17.7341 16.9917L15.7429 15.0005L17.8472 12.8962C18.0251 12.9733 18.1953 13.0559 18.3515 13.1477C18.3578 13.1512 18.3638 13.155 18.3704 13.1589ZM10.0183 14.9196C10.0183 15.0681 10.0351 15.2134 10.0603 15.3567C8.84308 16.6706 7.76273 17.4116 7.00632 17.4358C6.72231 17.4533 6.48418 17.3552 6.26671 17.1521C5.68434 16.3764 4.24119 14.0413 4.77734 12.8721C5.00391 12.3772 5.62025 12.0964 6.60044 12.0379C8.11538 11.9721 10.2964 12.0754 11.4699 12.4539C10.5681 13.0902 10.0183 13.9534 10.0183 14.9196ZM20.6723 14.9697C22.0629 13.355 23.2924 12.4445 24.1451 12.4038C24.4428 12.3874 24.682 12.4798 24.904 12.6868C25.4864 13.4628 26.9295 15.7979 26.3934 16.9669C26.1668 17.4617 25.5504 17.7425 24.5703 17.801C22.591 17.8893 20.3371 17.6935 19.3804 17.2701C20.1736 16.6583 20.6544 15.8588 20.6723 14.9697ZM16.6317 11.4566C16.6188 11.4545 16.6062 11.452 16.5932 11.4499C16.4895 11.4338 16.3852 11.4198 16.2794 11.4079C16.2041 11.3991 16.1281 11.3921 16.0518 11.3851C15.9804 11.3792 15.9096 11.3722 15.8371 11.368C15.6757 11.3582 15.5125 11.3519 15.3472 11.3519C15.3423 11.3519 15.3374 11.3526 15.3322 11.3526C15.1115 11.3529 14.8962 11.3641 14.6833 11.3813C14.6384 11.3851 14.5943 11.39 14.5495 11.3946C14.3467 11.4142 14.1485 11.4408 13.9545 11.4748C13.944 11.4765 13.9335 11.4783 13.9233 11.48C13.4597 11.563 13.024 11.6856 12.6224 11.8428C12.5961 11.8253 12.5646 11.8106 12.5369 11.7942L1.79369 1.05058H28.207L17.5836 11.674C17.281 11.5823 16.963 11.5098 16.6317 11.4566ZM10.4063 11.1491C8.82067 10.9148 7.062 10.9663 6.54616 10.9887C5.13908 11.0731 4.22263 11.5595 3.82166 12.4354C2.91816 14.4087 5.19301 17.4781 5.45566 17.8213C5.47072 17.8416 5.48753 17.8602 5.50574 17.8781C5.93718 18.3004 6.45511 18.4997 7.04063 18.4856C8.02678 18.4534 9.18907 17.7597 10.5019 16.4213C10.5058 16.4269 10.5103 16.4321 10.5139 16.4374C10.6634 16.6548 10.8441 16.8594 11.0528 17.0495C11.0693 17.0646 11.0861 17.0796 11.1029 17.0947C11.1694 17.1532 11.2374 17.2106 11.3091 17.2663C11.3172 17.2726 11.3259 17.2785 11.334 17.2848C11.4534 17.3759 11.5798 17.4624 11.7126 17.5443L1.05058 28.2067V1.79369L10.4063 11.1491ZM12.711 18.0318C12.7968 18.064 12.885 18.0927 12.974 18.1218C13.031 18.1404 13.0878 18.1593 13.1463 18.1764C13.2201 18.1985 13.2951 18.2192 13.3707 18.2388C13.4457 18.2584 13.5217 18.2762 13.598 18.2934C13.6628 18.3081 13.7265 18.3239 13.7927 18.3368C13.93 18.3641 14.0697 18.3872 14.2115 18.4072C14.2637 18.4146 14.3166 18.4198 14.3691 18.4261C14.4801 18.4394 14.5919 18.4506 14.7053 18.4594C14.7561 18.4632 14.8069 18.4674 14.858 18.4702C15.0194 18.4797 15.1823 18.4863 15.3472 18.4863C15.5062 18.4863 15.6645 18.48 15.8217 18.4709C15.896 18.4667 15.9692 18.4604 16.0424 18.4541C16.1103 18.4482 16.1782 18.4415 16.2458 18.4338C16.6709 18.3872 17.0793 18.3113 17.4617 18.2034L28.2067 28.9494H1.79369L12.711 18.0318ZM18.9567 18.2135C20.1634 18.7644 22.1375 18.8744 23.5029 18.8744C23.9648 18.8744 24.3566 18.8621 24.6249 18.8502C26.0316 18.7662 26.9484 18.2794 27.349 17.4039C28.2525 15.4306 25.9777 12.3611 25.7154 12.0176C25.7 11.9976 25.6832 11.9787 25.6653 11.9612C25.2248 11.5301 24.7002 11.3224 24.0957 11.3547C23.0417 11.4047 21.7922 12.2014 20.3746 13.7251C20.0384 13.0727 19.434 12.5128 18.6425 12.1006L28.9498 1.79334V28.2063L18.9567 18.2135Z" fill="#B3C1C9"/>
</svg>
