<svg width="35" height="35" viewBox="0 0 35 35" fill="none" xmlns="http://www.w3.org/2000/svg">
<path d="M0 0V35H35V0H0ZM33.6 33.6H1.4V1.4H33.6V33.6Z" fill="#B3C1C9"/>
<path d="M17.5 30.1C19.9921 30.1 22.4281 29.3611 24.5002 27.9765C26.5723 26.592 28.1872 24.6242 29.1409 22.3218C30.0946 20.0195 30.3441 17.4861 29.8579 15.0419C29.3717 12.5977 28.1717 10.3526 26.4096 8.59048C24.6474 6.82834 22.4023 5.62831 19.9581 5.14214C17.514 4.65596 14.9805 4.90548 12.6782 5.85915C10.3758 6.81281 8.408 8.42778 7.02349 10.4998C5.63899 12.5719 4.90001 15.008 4.90001 17.5C4.90001 20.8418 6.22751 24.0466 8.59046 26.4096C10.9534 28.7725 14.1583 30.1 17.5 30.1V30.1ZM17.5 6.30003C19.7152 6.30003 21.8806 6.9569 23.7224 8.18757C25.5642 9.41824 26.9998 11.1674 27.8475 13.214C28.6952 15.2605 28.917 17.5125 28.4848 19.685C28.0526 21.8576 26.986 23.8533 25.4196 25.4196C23.8533 26.986 21.8576 28.0527 19.685 28.4848C17.5124 28.917 15.2605 28.6952 13.214 27.8475C11.1674 26.9998 9.41822 25.5642 8.18755 23.7224C6.95688 21.8806 6.30001 19.7152 6.30001 17.5C6.30001 14.5296 7.48001 11.6808 9.58041 9.58043C11.6808 7.48003 14.5296 6.30003 17.5 6.30003V6.30003Z" fill="#B3C1C9"/>
<path d="M17.5 19.6C17.9153 19.6 18.3214 19.4769 18.6667 19.2461C19.012 19.0154 19.2812 18.6874 19.4402 18.3037C19.5991 17.9199 19.6407 17.4977 19.5597 17.0903C19.4786 16.683 19.2786 16.3088 18.9849 16.0151C18.6912 15.7214 18.3171 15.5214 17.9097 15.4404C17.5023 15.3593 17.0801 15.4009 16.6964 15.5599C16.3126 15.7188 15.9847 15.988 15.7539 16.3333C15.5232 16.6787 15.4 17.0847 15.4 17.5C15.4 18.057 15.6213 18.5911 16.0151 18.9849C16.4089 19.3788 16.9431 19.6 17.5 19.6ZM17.5 16.8C17.6385 16.8 17.7738 16.8411 17.8889 16.918C18.004 16.9949 18.0937 17.1042 18.1467 17.2321C18.1997 17.3601 18.2136 17.5008 18.1866 17.6366C18.1595 17.7724 18.0929 17.8971 17.995 17.995C17.8971 18.0929 17.7724 18.1596 17.6366 18.1866C17.5008 18.2136 17.36 18.1997 17.2321 18.1467C17.1042 18.0938 16.9949 18.004 16.918 17.8889C16.8411 17.7738 16.8 17.6385 16.8 17.5C16.8 17.3144 16.8738 17.1363 17.005 17.0051C17.1363 16.8738 17.3144 16.8 17.5 16.8Z" fill="#B3C1C9"/>
</svg>
