<svg width="33" height="39" viewBox="0 0 33 39" fill="none" xmlns="http://www.w3.org/2000/svg">
<path d="M0 0V33H33V0H0ZM31.68 31.68H1.32V1.32H31.68V31.68Z" fill="#B3C1C9"/>
<path d="M16.5 28.38C18.8496 28.38 21.1465 27.6833 23.1002 26.3779C25.0538 25.0725 26.5765 23.2171 27.4757 21.0463C28.3749 18.8755 28.6101 16.4868 28.1517 14.1823C27.6933 11.8778 26.5619 9.76102 24.9004 8.09957C23.239 6.43812 21.1222 5.30666 18.8177 4.84827C16.5132 4.38988 14.1245 4.62514 11.9537 5.52431C9.78293 6.42348 7.92753 7.94617 6.62214 9.89983C5.31675 11.8535 4.62 14.1504 4.62 16.5C4.62 19.6508 5.87164 22.6725 8.09957 24.9004C10.3275 27.1284 13.3492 28.38 16.5 28.38V28.38ZM16.5 5.94C18.5886 5.94 20.6302 6.55933 22.3668 7.71968C24.1034 8.88003 25.4569 10.5293 26.2562 12.4589C27.0554 14.3885 27.2646 16.5117 26.8571 18.5602C26.4496 20.6086 25.4439 22.4902 23.967 23.967C22.4902 25.4439 20.6086 26.4496 18.5602 26.8571C16.5117 27.2646 14.3885 27.0554 12.4589 26.2562C10.5293 25.4569 8.88003 24.1034 7.71968 22.3668C6.55933 20.6302 5.94 18.5886 5.94 16.5C5.94 13.6993 7.05257 11.0133 9.03295 9.03295C11.0133 7.05257 13.6993 5.94 16.5 5.94V5.94Z" fill="#B3C1C9"/>
<path d="M13.2 18.48C13.5916 18.48 13.9744 18.3639 14.3 18.1463C14.6256 17.9288 14.8794 17.6195 15.0293 17.2577C15.1791 16.8959 15.2184 16.4978 15.142 16.1137C15.0656 15.7297 14.877 15.3769 14.6001 15.0999C14.3232 14.823 13.9704 14.6345 13.5863 14.5581C13.2022 14.4817 12.8041 14.5209 12.4423 14.6707C12.0805 14.8206 11.7713 15.0744 11.5537 15.4C11.3361 15.7256 11.22 16.1084 11.22 16.5C11.22 17.0251 11.4286 17.5288 11.7999 17.9001C12.1713 18.2714 12.6749 18.48 13.2 18.48V18.48ZM13.2 15.84C13.3305 15.84 13.4581 15.8787 13.5667 15.9513C13.6752 16.0238 13.7598 16.1269 13.8098 16.2475C13.8597 16.368 13.8728 16.5008 13.8473 16.6288C13.8219 16.7568 13.759 16.8744 13.6667 16.9667C13.5744 17.059 13.4568 17.1219 13.3288 17.1473C13.2007 17.1728 13.068 17.1597 12.9474 17.1098C12.8268 17.0598 12.7238 16.9752 12.6512 16.8667C12.5787 16.7582 12.54 16.6306 12.54 16.5C12.54 16.325 12.6095 16.1571 12.7333 16.0333C12.8571 15.9096 13.025 15.84 13.2 15.84Z" fill="#B3C1C9"/>
<path d="M19.8 18.48C20.1916 18.48 20.5744 18.3639 20.9 18.1463C21.2256 17.9288 21.4794 17.6195 21.6293 17.2577C21.7791 16.8959 21.8184 16.4978 21.742 16.1137C21.6656 15.7297 21.477 15.3769 21.2001 15.0999C20.9232 14.823 20.5704 14.6345 20.1863 14.5581C19.8022 14.4817 19.4041 14.5209 19.0423 14.6707C18.6805 14.8206 18.3713 15.0744 18.1537 15.4C17.9361 15.7256 17.82 16.1084 17.82 16.5C17.82 17.0251 18.0286 17.5288 18.3999 17.9001C18.7713 18.2714 19.2749 18.48 19.8 18.48V18.48ZM19.8 15.84C19.9305 15.84 20.0581 15.8787 20.1667 15.9513C20.2752 16.0238 20.3598 16.1269 20.4098 16.2475C20.4597 16.368 20.4728 16.5008 20.4473 16.6288C20.4219 16.7568 20.359 16.8744 20.2667 16.9667C20.1744 17.059 20.0568 17.1219 19.9288 17.1473C19.8007 17.1728 19.668 17.1597 19.5474 17.1098C19.4268 17.0598 19.3238 16.9752 19.2512 16.8667C19.1787 16.7582 19.14 16.6306 19.14 16.5C19.14 16.325 19.2095 16.1571 19.3333 16.0333C19.4571 15.9096 19.625 15.84 19.8 15.84Z" fill="#B3C1C9"/>
<path d="M32.34 36.96H0.66C0.484957 36.96 0.317084 37.0295 0.19331 37.1533C0.0695356 37.277 0 37.4449 0 37.62C0 37.795 0.0695356 37.9629 0.19331 38.0867C0.317084 38.2104 0.484957 38.28 0.66 38.28H32.34C32.515 38.28 32.6829 38.2104 32.8067 38.0867C32.9305 37.9629 33 37.795 33 37.62C33 37.4449 32.9305 37.277 32.8067 37.1533C32.6829 37.0295 32.515 36.96 32.34 36.96Z" fill="#B3C1C9"/>
</svg>
