<svg width="35" height="35" viewBox="0 0 35 35" fill="none" xmlns="http://www.w3.org/2000/svg">
<path d="M17.5 19.6C17.9153 19.6 18.3214 19.4769 18.6667 19.2461C19.012 19.0154 19.2812 18.6874 19.4402 18.3037C19.5991 17.9199 19.6407 17.4977 19.5597 17.0903C19.4786 16.683 19.2786 16.3088 18.9849 16.0151C18.6912 15.7214 18.3171 15.5214 17.9097 15.4404C17.5023 15.3593 17.0801 15.4009 16.6964 15.5599C16.3126 15.7188 15.9847 15.988 15.7539 16.3333C15.5232 16.6787 15.4 17.0847 15.4 17.5C15.4 18.057 15.6213 18.5911 16.0151 18.9849C16.4089 19.3788 16.9431 19.6 17.5 19.6ZM17.5 16.8C17.6385 16.8 17.7738 16.8411 17.8889 16.918C18.004 16.9949 18.0937 17.1042 18.1467 17.2321C18.1997 17.3601 18.2136 17.5008 18.1866 17.6366C18.1595 17.7724 18.0929 17.8971 17.995 17.995C17.8971 18.0929 17.7724 18.1596 17.6366 18.1866C17.5008 18.2136 17.36 18.1997 17.2321 18.1467C17.1042 18.0938 16.9949 18.004 16.918 17.8889C16.8411 17.7738 16.8 17.6385 16.8 17.5C16.8 17.3144 16.8738 17.1363 17.005 17.0051C17.1363 16.8738 17.3144 16.8 17.5 16.8Z" fill="#B3C1C9"/>
<path d="M11.2 19.6C11.6153 19.6 12.0213 19.4769 12.3667 19.2461C12.712 19.0154 12.9812 18.6874 13.1401 18.3037C13.2991 17.9199 13.3407 17.4977 13.2596 17.0903C13.1786 16.683 12.9786 16.3088 12.6849 16.0151C12.3912 15.7214 12.017 15.5214 11.6097 15.4404C11.2023 15.3593 10.7801 15.4009 10.3964 15.5599C10.0126 15.7188 9.68466 15.988 9.4539 16.3333C9.22315 16.6787 9.09999 17.0847 9.09999 17.5C9.09999 18.057 9.32124 18.5911 9.71507 18.9849C10.1089 19.3788 10.643 19.6 11.2 19.6ZM11.2 16.8C11.3384 16.8 11.4738 16.8411 11.5889 16.918C11.704 16.9949 11.7937 17.1042 11.8467 17.2321C11.8997 17.3601 11.9136 17.5008 11.8865 17.6366C11.8595 17.7724 11.7929 17.8971 11.695 17.995C11.5971 18.0929 11.4723 18.1596 11.3366 18.1866C11.2008 18.2136 11.06 18.1997 10.9321 18.1467C10.8042 18.0938 10.6949 18.004 10.618 17.8889C10.541 17.7738 10.5 17.6385 10.5 17.5C10.5 17.3144 10.5737 17.1363 10.705 17.0051C10.8363 16.8738 11.0143 16.8 11.2 16.8Z" fill="#B3C1C9"/>
<path d="M23.8 19.6C24.2154 19.6 24.6214 19.4769 24.9667 19.2461C25.3121 19.0154 25.5812 18.6874 25.7402 18.3037C25.8991 17.9199 25.9407 17.4977 25.8597 17.0903C25.7786 16.683 25.5786 16.3088 25.2849 16.0151C24.9912 15.7214 24.6171 15.5214 24.2097 15.4404C23.8023 15.3593 23.3801 15.4009 22.9964 15.5599C22.6127 15.7188 22.2847 15.988 22.0539 16.3333C21.8232 16.6787 21.7 17.0847 21.7 17.5C21.7 18.057 21.9213 18.5911 22.3151 18.9849C22.7089 19.3788 23.2431 19.6 23.8 19.6ZM23.8 16.8C23.9385 16.8 24.0738 16.8411 24.1889 16.918C24.304 16.9949 24.3937 17.1042 24.4467 17.2321C24.4997 17.3601 24.5136 17.5008 24.4866 17.6366C24.4596 17.7724 24.3929 17.8971 24.295 17.995C24.1971 18.0929 24.0724 18.1596 23.9366 18.1866C23.8008 18.2136 23.66 18.1997 23.5321 18.1467C23.4042 18.0938 23.2949 18.004 23.218 17.8889C23.1411 17.7738 23.1 17.6385 23.1 17.5C23.1 17.3144 23.1738 17.1363 23.305 17.0051C23.4363 16.8738 23.6144 16.8 23.8 16.8Z" fill="#B3C1C9"/>
<path d="M0 0V35H35V0H0ZM33.6 33.6H1.4V1.4H33.6V33.6Z" fill="#B3C1C9"/>
<path d="M17.5 30.1C19.9921 30.1 22.4281 29.3611 24.5002 27.9765C26.5723 26.592 28.1872 24.6242 29.1409 22.3218C30.0946 20.0195 30.3441 17.4861 29.8579 15.0419C29.3717 12.5977 28.1717 10.3526 26.4096 8.59048C24.6474 6.82834 22.4023 5.62831 19.9581 5.14214C17.514 4.65596 14.9805 4.90548 12.6782 5.85915C10.3758 6.81281 8.408 8.42778 7.02349 10.4998C5.63899 12.5719 4.90001 15.008 4.90001 17.5C4.90001 20.8418 6.22751 24.0466 8.59046 26.4096C10.9534 28.7725 14.1583 30.1 17.5 30.1V30.1ZM17.5 6.30003C19.7152 6.30003 21.8806 6.9569 23.7224 8.18757C25.5642 9.41824 26.9998 11.1674 27.8475 13.214C28.6952 15.2605 28.917 17.5125 28.4848 19.685C28.0526 21.8576 26.986 23.8533 25.4196 25.4196C23.8533 26.986 21.8576 28.0527 19.685 28.4848C17.5124 28.917 15.2605 28.6952 13.214 27.8475C11.1674 26.9998 9.41822 25.5642 8.18755 23.7224C6.95688 21.8806 6.30001 19.7152 6.30001 17.5C6.30001 14.5296 7.48001 11.6808 9.58041 9.58043C11.6808 7.48003 14.5296 6.30003 17.5 6.30003V6.30003Z" fill="#B3C1C9"/>
</svg>
