<svg width="35" height="35" viewBox="0 0 35 35" fill="none" xmlns="http://www.w3.org/2000/svg">
<path d="M0 0V35H35V0H0ZM33.6 33.6H1.4V1.4H33.6V33.6Z" fill="#B3C1C9"/>
<path d="M17.5 30.1C19.9921 30.1 22.4281 29.3611 24.5002 27.9765C26.5723 26.592 28.1872 24.6242 29.1409 22.3218C30.0946 20.0195 30.3441 17.4861 29.8579 15.0419C29.3717 12.5977 28.1717 10.3526 26.4096 8.59048C24.6474 6.82834 22.4023 5.62831 19.9581 5.14214C17.514 4.65596 14.9805 4.90548 12.6782 5.85915C10.3758 6.81281 8.408 8.42778 7.02349 10.4998C5.63899 12.5719 4.90001 15.008 4.90001 17.5C4.90001 20.8418 6.22751 24.0466 8.59046 26.4096C10.9534 28.7725 14.1583 30.1 17.5 30.1V30.1ZM17.5 6.30003C19.7152 6.30003 21.8806 6.9569 23.7224 8.18757C25.5642 9.41824 26.9998 11.1674 27.8475 13.214C28.6952 15.2605 28.917 17.5125 28.4848 19.685C28.0526 21.8576 26.986 23.8533 25.4196 25.4196C23.8533 26.986 21.8576 28.0527 19.685 28.4848C17.5124 28.917 15.2605 28.6952 13.214 27.8475C11.1674 26.9998 9.41822 25.5642 8.18755 23.7224C6.95688 21.8806 6.30001 19.7152 6.30001 17.5C6.30001 14.5296 7.48001 11.6808 9.58041 9.58043C11.6808 7.48003 14.5296 6.30003 17.5 6.30003V6.30003Z" fill="#B3C1C9"/>
<path d="M14 19.6C14.4153 19.6 14.8214 19.4769 15.1667 19.2461C15.512 19.0154 15.7812 18.6874 15.9402 18.3037C16.0991 17.9199 16.1407 17.4977 16.0597 17.0903C15.9786 16.683 15.7786 16.3088 15.4849 16.0151C15.1912 15.7214 14.8171 15.5214 14.4097 15.4404C14.0023 15.3593 13.5801 15.4009 13.1964 15.5599C12.8126 15.7188 12.4847 15.988 12.2539 16.3333C12.0232 16.6787 11.9 17.0847 11.9 17.5C11.9 18.057 12.1213 18.5911 12.5151 18.9849C12.9089 19.3788 13.4431 19.6 14 19.6ZM14 16.8C14.1385 16.8 14.2738 16.8411 14.3889 16.918C14.504 16.9949 14.5937 17.1042 14.6467 17.2321C14.6997 17.3601 14.7136 17.5008 14.6866 17.6366C14.6595 17.7724 14.5929 17.8971 14.495 17.995C14.3971 18.0929 14.2724 18.1596 14.1366 18.1866C14.0008 18.2136 13.86 18.1997 13.7321 18.1467C13.6042 18.0938 13.4949 18.004 13.418 17.8889C13.3411 17.7738 13.3 17.6385 13.3 17.5C13.3 17.3144 13.3738 17.1363 13.505 17.0051C13.6363 16.8738 13.8144 16.8 14 16.8Z" fill="#B3C1C9"/>
<path d="M21 19.6C21.4153 19.6 21.8214 19.4769 22.1667 19.2461C22.512 19.0154 22.7812 18.6874 22.9402 18.3037C23.0991 17.9199 23.1407 17.4977 23.0597 17.0903C22.9786 16.683 22.7786 16.3088 22.4849 16.0151C22.1912 15.7214 21.8171 15.5214 21.4097 15.4404C21.0023 15.3593 20.5801 15.4009 20.1964 15.5599C19.8127 15.7188 19.4847 15.988 19.2539 16.3333C19.0232 16.6787 18.9 17.0847 18.9 17.5C18.9 18.057 19.1213 18.5911 19.5151 18.9849C19.9089 19.3788 20.4431 19.6 21 19.6ZM21 16.8C21.1385 16.8 21.2738 16.8411 21.3889 16.918C21.504 16.9949 21.5937 17.1042 21.6467 17.2321C21.6997 17.3601 21.7136 17.5008 21.6866 17.6366C21.6595 17.7724 21.5929 17.8971 21.495 17.995C21.3971 18.0929 21.2724 18.1596 21.1366 18.1866C21.0008 18.2136 20.86 18.1997 20.7321 18.1467C20.6042 18.0938 20.4949 18.004 20.418 17.8889C20.3411 17.7738 20.3 17.6385 20.3 17.5C20.3 17.3144 20.3738 17.1363 20.505 17.0051C20.6363 16.8738 20.8144 16.8 21 16.8Z" fill="#B3C1C9"/>
</svg>
