<svg width="33" height="33" viewBox="0 0 33 33" fill="none" xmlns="http://www.w3.org/2000/svg">
<path d="M0 0V33H33V0H0ZM31.68 31.68H1.32V1.32H31.68V31.68Z" fill="#B3C1C9"/>
<path d="M16.5 28.38C18.8497 28.38 21.1465 27.6832 23.1002 26.3779C25.0539 25.0725 26.5765 23.2171 27.4757 21.0463C28.3749 18.8755 28.6101 16.4868 28.1518 14.1823C27.6934 11.8778 26.5619 9.76102 24.9004 8.09957C23.239 6.43812 21.1222 5.30666 18.8177 4.84827C16.5132 4.38988 14.1245 4.62514 11.9537 5.52431C9.78296 6.42348 7.92755 7.94617 6.62216 9.89982C5.31677 11.8535 4.62002 14.1504 4.62002 16.5C4.62002 19.6508 5.87166 22.6725 8.09959 24.9004C10.3275 27.1284 13.3492 28.38 16.5 28.38V28.38ZM16.5 5.94C18.5886 5.94 20.6303 6.55933 22.3668 7.71968C24.1034 8.88003 25.4569 10.5293 26.2562 12.4589C27.0555 14.3885 27.2646 16.5117 26.8571 18.5602C26.4497 20.6086 25.4439 22.4902 23.9671 23.967C22.4902 25.4439 20.6086 26.4496 18.5602 26.8571C16.5117 27.2646 14.3885 27.0554 12.4589 26.2562C10.5293 25.4569 8.88005 24.1034 7.7197 22.3668C6.55935 20.6302 5.94002 18.5886 5.94002 16.5C5.94002 13.6993 7.05259 11.0133 9.03297 9.03295C11.0134 7.05257 13.6993 5.94 16.5 5.94V5.94Z" fill="#B3C1C9"/>
<path d="M16.5 18.48C16.8916 18.48 17.2744 18.3639 17.6 18.1463C17.9256 17.9288 18.1794 17.6195 18.3293 17.2577C18.4791 16.8959 18.5184 16.4978 18.442 16.1137C18.3656 15.7297 18.177 15.3769 17.9001 15.0999C17.6232 14.823 17.2704 14.6345 16.8863 14.5581C16.5022 14.4817 16.1041 14.5209 15.7423 14.6707C15.3805 14.8206 15.0713 15.0744 14.8537 15.4C14.6361 15.7256 14.52 16.1084 14.52 16.5C14.52 17.0251 14.7286 17.5288 15.0999 17.9001C15.4712 18.2714 15.9749 18.48 16.5 18.48V18.48ZM16.5 15.84C16.6305 15.84 16.7581 15.8787 16.8667 15.9513C16.9752 16.0238 17.0598 16.1269 17.1098 16.2474C17.1597 16.368 17.1728 16.5008 17.1473 16.6288C17.1218 16.7568 17.059 16.8744 16.9667 16.9667C16.8744 17.059 16.7568 17.1219 16.6288 17.1473C16.5007 17.1728 16.368 17.1597 16.2474 17.1098C16.1268 17.0598 16.0237 16.9752 15.9512 16.8667C15.8787 16.7582 15.84 16.6306 15.84 16.5C15.84 16.325 15.9095 16.1571 16.0333 16.0333C16.1571 15.9096 16.325 15.84 16.5 15.84Z" fill="#B3C1C9"/>
</svg>
