<svg width="33" height="45" viewBox="0 0 33 45" fill="none" xmlns="http://www.w3.org/2000/svg">
<path d="M0 0V33H33V0H0ZM31.5652 31.5652H1.43478V1.43478H31.5652V31.5652Z" fill="#B3C1C9"/>
<path d="M16.5 28.6956C18.9121 28.6956 21.27 27.9804 23.2756 26.6403C25.2811 25.3002 26.8443 23.3955 27.7673 21.1671C28.6904 18.9386 28.9319 16.4864 28.4613 14.1207C27.9908 11.755 26.8292 9.58194 25.1236 7.87635C23.418 6.17076 21.245 5.00923 18.8793 4.53866C16.5135 4.06809 14.0614 4.30961 11.8329 5.23267C9.60447 6.15573 7.69977 7.71887 6.3597 9.72444C5.01962 11.73 4.30436 14.0879 4.30436 16.5C4.30436 19.7345 5.58926 22.8365 7.87638 25.1236C10.1635 27.4107 13.2655 28.6956 16.5 28.6956V28.6956ZM16.5 5.73911C18.6283 5.73911 20.7088 6.37022 22.4784 7.55264C24.248 8.73506 25.6273 10.4157 26.4418 12.382C27.2562 14.3483 27.4693 16.5119 27.0541 18.5993C26.6389 20.6867 25.614 22.6041 24.1091 24.1091C22.6042 25.614 20.6868 26.6389 18.5994 27.0541C16.5119 27.4693 14.3483 27.2562 12.382 26.4417C10.4157 25.6273 8.7351 24.248 7.55268 22.4784C6.37026 20.7088 5.73914 18.6283 5.73914 16.5C5.73914 13.646 6.87287 10.9089 8.89093 8.8909C10.909 6.87284 13.6461 5.73911 16.5 5.73911V5.73911Z" fill="#B3C1C9"/>
<path d="M16.5 18.6521C16.9257 18.6521 17.3418 18.5259 17.6957 18.2894C18.0496 18.0529 18.3255 17.7168 18.4884 17.3236C18.6513 16.9303 18.6939 16.4976 18.6108 16.0801C18.5278 15.6626 18.3228 15.2791 18.0218 14.9781C17.7208 14.6771 17.3374 14.4722 16.9199 14.3891C16.5024 14.3061 16.0697 14.3487 15.6764 14.5116C15.2831 14.6745 14.947 14.9503 14.7105 15.3043C14.4741 15.6582 14.3478 16.0743 14.3478 16.5C14.3478 17.0707 14.5746 17.6182 14.9782 18.0218C15.3818 18.4254 15.9292 18.6521 16.5 18.6521ZM16.5 15.7826C16.6419 15.7826 16.7806 15.8246 16.8986 15.9035C17.0165 15.9823 17.1085 16.0943 17.1628 16.2254C17.2171 16.3565 17.2313 16.5007 17.2036 16.6399C17.1759 16.7791 17.1076 16.9069 17.0073 17.0072C16.907 17.1076 16.7791 17.1759 16.64 17.2036C16.5008 17.2312 16.3566 17.217 16.2255 17.1627C16.0944 17.1084 15.9823 17.0165 15.9035 16.8985C15.8247 16.7805 15.7826 16.6418 15.7826 16.5C15.7826 16.3097 15.8582 16.1272 15.9927 15.9927C16.1273 15.8581 16.3097 15.7826 16.5 15.7826Z" fill="#B3C1C9"/>
<path d="M22.9565 18.6521C23.3822 18.6521 23.7983 18.5259 24.1522 18.2894C24.5061 18.0529 24.782 17.7168 24.9449 17.3236C25.1078 16.9303 25.1504 16.4976 25.0674 16.0801C24.9843 15.6626 24.7793 15.2791 24.4783 14.9781C24.1774 14.6771 23.7939 14.4722 23.3764 14.3891C22.9589 14.3061 22.5262 14.3487 22.1329 14.5116C21.7397 14.6745 21.4036 14.9503 21.1671 15.3043C20.9306 15.6582 20.8044 16.0743 20.8044 16.5C20.8044 17.0707 21.0311 17.6182 21.4347 18.0218C21.8383 18.4254 22.3857 18.6521 22.9565 18.6521ZM22.9565 15.7826C23.0984 15.7826 23.2371 15.8246 23.3551 15.9035C23.4731 15.9823 23.565 16.0943 23.6193 16.2254C23.6736 16.3565 23.6878 16.5007 23.6601 16.6399C23.6325 16.7791 23.5641 16.9069 23.4638 17.0072C23.3635 17.1076 23.2357 17.1759 23.0965 17.2036C22.9573 17.2312 22.8131 17.217 22.682 17.1627C22.5509 17.1084 22.4389 17.0165 22.36 16.8985C22.2812 16.7805 22.2391 16.6418 22.2391 16.5C22.2391 16.3097 22.3147 16.1272 22.4493 15.9927C22.5838 15.8581 22.7663 15.7826 22.9565 15.7826Z" fill="#B3C1C9"/>
<path d="M12.1956 16.5C12.1956 16.0743 12.0694 15.6582 11.8329 15.3043C11.5964 14.9503 11.2603 14.6745 10.8671 14.5116C10.4738 14.3487 10.0411 14.3061 9.62358 14.3891C9.2061 14.4722 8.82262 14.6771 8.52164 14.9781C8.22065 15.2791 8.01567 15.6626 7.93263 16.0801C7.84959 16.4976 7.89221 16.9303 8.0551 17.3236C8.218 17.7168 8.49385 18.0529 8.84777 18.2894C9.20169 18.5259 9.61779 18.6521 10.0435 18.6521C10.6142 18.6521 11.1617 18.4254 11.5653 18.0218C11.9689 17.6182 12.1956 17.0707 12.1956 16.5ZM9.32606 16.5C9.32606 16.3581 9.36813 16.2194 9.44696 16.1014C9.52579 15.9834 9.63783 15.8915 9.76892 15.8372C9.90001 15.7829 10.0442 15.7687 10.1834 15.7963C10.3226 15.824 10.4504 15.8924 10.5507 15.9927C10.6511 16.093 10.7194 16.2208 10.7471 16.36C10.7747 16.4992 10.7605 16.6434 10.7062 16.7745C10.6519 16.9056 10.56 17.0176 10.442 17.0964C10.324 17.1753 10.1853 17.2173 10.0435 17.2173C9.85319 17.2173 9.67072 17.1418 9.53618 17.0072C9.40164 16.8727 9.32606 16.6902 9.32606 16.5Z" fill="#B3C1C9"/>
<path d="M32.2826 37.3043H0.717391C0.527127 37.3043 0.344656 37.3799 0.210119 37.5144C0.0755822 37.649 0 37.8314 0 38.0217C0 38.212 0.0755822 38.3944 0.210119 38.529C0.344656 38.6635 0.527127 38.7391 0.717391 38.7391H32.2826C32.4729 38.7391 32.6553 38.6635 32.7899 38.529C32.9244 38.3944 33 38.212 33 38.0217C33 37.8314 32.9244 37.649 32.7899 37.5144C32.6553 37.3799 32.4729 37.3043 32.2826 37.3043Z" fill="#B3C1C9"/>
<path d="M32.2826 43.0435H0.717391C0.527127 43.0435 0.344656 43.119 0.210119 43.2536C0.0755822 43.3881 0 43.5706 0 43.7608C0 43.9511 0.0755822 44.1336 0.210119 44.2681C0.344656 44.4027 0.527127 44.4782 0.717391 44.4782H32.2826C32.4729 44.4782 32.6553 44.4027 32.7899 44.2681C32.9244 44.1336 33 43.9511 33 43.7608C33 43.5706 32.9244 43.3881 32.7899 43.2536C32.6553 43.119 32.4729 43.0435 32.2826 43.0435Z" fill="#B3C1C9"/>
</svg>
