<svg width="45" height="45" viewBox="0 0 45 45" fill="none" xmlns="http://www.w3.org/2000/svg">
<path d="M38.5895 37.5808V6.72678L44.0986 1.22479C44.1653 1.15817 44.2181 1.07908 44.2542 0.99203C44.2902 0.904983 44.3088 0.811687 44.3088 0.717467C44.3088 0.623248 44.2902 0.529952 44.2542 0.442905C44.2181 0.355857 44.1653 0.276764 44.0986 0.210141C44.032 0.143518 43.9529 0.0906701 43.8659 0.054614C43.7788 0.0185578 43.6855 -2.43176e-09 43.5913 0C43.4971 2.43176e-09 43.4038 0.0185578 43.3168 0.054614C43.2297 0.0906701 43.1506 0.143518 43.084 0.210141L37.582 5.71927H6.728L1.22601 0.210141C1.09146 0.0755901 0.908971 4.11724e-08 0.718687 4.25901e-08C0.528403 4.40079e-08 0.345912 0.0755901 0.211361 0.210141C0.0768096 0.344693 0.00121953 0.527183 0.00121953 0.717467C0.00121952 0.907752 0.0768096 1.09024 0.211361 1.22479L5.92771 6.94114L21.1475 22.1538L7.14958 36.1517V12.1502C7.14958 11.9607 7.0743 11.7789 6.9403 11.6449C6.80629 11.5109 6.62455 11.4356 6.43504 11.4356C6.24553 11.4356 6.06378 11.5109 5.92978 11.6449C5.79578 11.7789 5.72049 11.9607 5.72049 12.1502V37.5808L0.211361 43.0828C0.144388 43.1492 0.0912298 43.2282 0.0549534 43.3153C0.0186769 43.4024 0 43.4958 0 43.5901C0 43.6844 0.0186769 43.7778 0.0549534 43.8649C0.0912298 43.952 0.144388 44.031 0.211361 44.0974C0.277787 44.1644 0.356816 44.2176 0.44389 44.2538C0.530964 44.2901 0.624359 44.3088 0.718687 44.3088C0.813015 44.3088 0.90641 44.2901 0.993484 44.2538C1.08056 44.2176 1.15959 44.1644 1.22601 44.0974L6.728 38.5883H30.7295C30.919 38.5883 31.1008 38.513 31.2348 38.379C31.3688 38.245 31.4441 38.0633 31.4441 37.8737C31.4441 37.6842 31.3688 37.5025 31.2348 37.3685C31.1008 37.2345 30.919 37.1592 30.7295 37.1592H8.15709L22.155 23.1613L37.3676 38.3811L43.084 44.0974C43.1504 44.1644 43.2294 44.2176 43.3165 44.2538C43.4036 44.2901 43.497 44.3088 43.5913 44.3088C43.6856 44.3088 43.779 44.2901 43.8661 44.2538C43.9532 44.2176 44.0322 44.1644 44.0986 44.0974C44.1656 44.031 44.2188 43.952 44.255 43.8649C44.2913 43.7778 44.31 43.6844 44.31 43.5901C44.31 43.4958 44.2913 43.4024 44.255 43.3153C44.2188 43.2282 44.1656 43.1492 44.0986 43.0828L38.5895 37.5808ZM8.15709 7.14836H36.1529L22.155 21.1463L8.15709 7.14836ZM37.1604 8.15587V36.1517L23.1625 22.1538L37.1604 8.15587Z" fill="#B3C1C9"/>
</svg>
