<svg width="45" height="45" viewBox="0 0 45 45" fill="none" xmlns="http://www.w3.org/2000/svg">
<path d="M37.1467 36.1268H45L38.859 11.5626H34.2568L44.5882 1.23839C44.6556 1.17103 44.709 1.09106 44.7454 1.00304C44.7819 0.91503 44.8007 0.820697 44.8007 0.725432C44.8007 0.630167 44.7819 0.535835 44.7454 0.447821C44.709 0.359808 44.6556 0.279837 44.5882 0.212474C44.5208 0.145112 44.4409 0.0916766 44.3528 0.0552202C44.2648 0.0187639 44.1705 -2.45875e-09 44.0752 0C43.98 2.45875e-09 43.8856 0.0187639 43.7976 0.0552202C43.7096 0.0916766 43.6296 0.145112 43.5623 0.212474L32.2194 11.5626H12.5825L1.23962 0.212474C1.10358 0.0764292 0.919062 4.16295e-08 0.726665 4.30629e-08C0.534269 4.44964e-08 0.349752 0.0764292 0.213707 0.212474C0.0776623 0.348519 0.00123307 0.533036 0.00123306 0.725432C0.00123306 0.917829 0.0776623 1.10235 0.213707 1.23839L11.7733 12.798L21.3823 22.3997L9.10016 34.6818H1.48527C1.66937 31.5574 3.03929 28.6212 5.31524 26.4728C7.59119 24.3245 10.6015 23.126 13.7312 23.1222H15.1762C15.3678 23.1222 15.5516 23.0461 15.6871 22.9106C15.8225 22.7751 15.8987 22.5913 15.8987 22.3997C15.8987 22.2081 15.8225 22.0243 15.6871 21.8888C15.5516 21.7534 15.3678 21.6772 15.1762 21.6772H13.7312C10.0906 21.6772 6.59907 23.1235 4.02475 25.6978C1.45043 28.2721 0.00418916 31.7636 0.00418916 35.4043C0.00418916 35.5959 0.0803069 35.7797 0.215797 35.9152C0.351288 36.0506 0.535053 36.1268 0.726665 36.1268H7.65521L0.213707 43.561C0.145991 43.6282 0.0922426 43.7081 0.0555634 43.7962C0.0188843 43.8842 0 43.9786 0 44.074C0 44.1694 0.0188843 44.2638 0.0555634 44.3518C0.0922426 44.4399 0.145991 44.5198 0.213707 44.587C0.280871 44.6547 0.360778 44.7084 0.448818 44.7451C0.536858 44.7818 0.63129 44.8007 0.726665 44.8007C0.822041 44.8007 0.916472 44.7818 1.00451 44.7451C1.09255 44.7084 1.17246 44.6547 1.23962 44.587L9.69259 36.1268H28.1808C28.3724 36.1268 28.5561 36.0506 28.6916 35.9152C28.8271 35.7797 28.9032 35.5959 28.9032 35.4043C28.9032 35.2127 28.8271 35.0289 28.6916 34.8934C28.5561 34.7579 28.3724 34.6818 28.1808 34.6818H11.1375L22.4009 23.4184L34.8926 35.9172L43.5623 44.587C43.6294 44.6547 43.7093 44.7084 43.7974 44.7451C43.8854 44.7818 43.9799 44.8007 44.0752 44.8007C44.1706 44.8007 44.265 44.7818 44.3531 44.7451C44.4411 44.7084 44.521 44.6547 44.5882 44.587C44.6559 44.5198 44.7097 44.4399 44.7463 44.3518C44.783 44.2638 44.8019 44.1694 44.8019 44.074C44.8019 43.9786 44.783 43.8842 44.7463 43.7962C44.7097 43.7081 44.6559 43.6282 44.5882 43.561L37.1467 36.1268ZM35.7017 34.6818L24.1421 23.1222H40.2606L43.1505 34.6818H35.7017ZM37.7319 13.0075L39.8993 21.6772H24.1421L32.8118 13.0075H37.7319ZM30.7744 13.0075L22.4009 21.381L14.0275 13.0075H30.7744Z" fill="#B3C1C9"/>
</svg>
