<svg width="45" height="26" viewBox="0 0 45 26" fill="none" xmlns="http://www.w3.org/2000/svg">
<path d="M38.8719 0H6.50393C6.31227 0 6.12846 0.0761372 5.99294 0.211662C5.85741 0.347187 5.78128 0.530998 5.78128 0.722659C5.78128 0.914321 5.85741 1.09813 5.99294 1.23366C6.12846 1.36918 6.31227 1.44532 6.50393 1.44532H37.73L39.833 10.1172H13.7305C6.28714 10.1172 0 16.7368 0 24.5704V25.2931H45L38.8719 0ZM13.7305 11.5625H40.1871L43.1644 23.8478H1.44532C1.85001 17.221 7.41449 11.5625 13.7305 11.5625Z" fill="#B3C1C9"/>
<path d="M18.7891 15.8986C18.3604 15.8986 17.9412 16.0257 17.5847 16.2639C17.2282 16.5022 16.9503 16.8407 16.7862 17.2369C16.6221 17.633 16.5792 18.0689 16.6628 18.4895C16.7465 18.91 16.953 19.2963 17.2562 19.5995C17.5594 19.9027 17.9457 20.1092 18.3662 20.1929C18.7867 20.2765 19.2227 20.2336 19.6188 20.0695C20.0149 19.9054 20.3535 19.6275 20.5918 19.271C20.83 18.9145 20.9571 18.4953 20.9571 18.0665C20.9571 17.4916 20.7287 16.9401 20.3221 16.5335C19.9156 16.127 19.3641 15.8986 18.7891 15.8986ZM18.7891 18.7892C18.6462 18.7892 18.5065 18.7468 18.3877 18.6674C18.2688 18.588 18.1762 18.4751 18.1215 18.3431C18.0668 18.211 18.0525 18.0657 18.0804 17.9256C18.1083 17.7854 18.1771 17.6566 18.2782 17.5555C18.3792 17.4545 18.508 17.3856 18.6482 17.3578C18.7883 17.3299 18.9337 17.3442 19.0657 17.3989C19.1977 17.4536 19.3106 17.5462 19.39 17.6651C19.4694 17.7839 19.5118 17.9236 19.5118 18.0665C19.5118 18.2582 19.4357 18.442 19.3001 18.5775C19.1646 18.7131 18.9808 18.7892 18.7891 18.7892Z" fill="#B3C1C9"/>
<path d="M26.7384 15.8986C26.3096 15.8986 25.8905 16.0257 25.5339 16.2639C25.1774 16.5022 24.8995 16.8407 24.7354 17.2369C24.5714 17.633 24.5284 18.0689 24.6121 18.4895C24.6957 18.91 24.9022 19.2963 25.2054 19.5995C25.5086 19.9027 25.8949 20.1092 26.3154 20.1929C26.736 20.2765 27.1719 20.2336 27.568 20.0695C27.9642 19.9054 28.3028 19.6275 28.541 19.271C28.7792 18.9145 28.9064 18.4953 28.9064 18.0665C28.9064 17.4916 28.678 16.9401 28.2714 16.5335C27.8648 16.127 27.3134 15.8986 26.7384 15.8986ZM26.7384 18.7892C26.5955 18.7892 26.4558 18.7468 26.3369 18.6674C26.2181 18.588 26.1254 18.4751 26.0707 18.3431C26.0161 18.211 26.0017 18.0657 26.0296 17.9256C26.0575 17.7854 26.1263 17.6566 26.2274 17.5555C26.3285 17.4545 26.4572 17.3856 26.5974 17.3578C26.7376 17.3299 26.8829 17.3442 27.0149 17.3989C27.147 17.4536 27.2599 17.5462 27.3393 17.6651C27.4187 17.7839 27.4611 17.9236 27.4611 18.0665C27.4611 18.2582 27.3849 18.442 27.2494 18.5775C27.1139 18.7131 26.9301 18.7892 26.7384 18.7892Z" fill="#B3C1C9"/>
</svg>
