<svg width="45" height="26" viewBox="0 0 45 26" fill="none" xmlns="http://www.w3.org/2000/svg">
<path d="M41.4662 10.6954C41.4621 10.6763 41.4621 10.6566 41.4662 10.6375L38.8719 0H6.50393C6.31227 0 6.12846 0.0761372 5.99294 0.211662C5.85741 0.347187 5.78128 0.530998 5.78128 0.722659C5.78128 0.914321 5.85741 1.09813 5.99294 1.23366C6.12846 1.36918 6.31227 1.44532 6.50393 1.44532H37.73L39.833 10.1172H13.7305C6.28714 10.1172 0 16.7368 0 24.5704V25.2931H45L41.4662 10.6954ZM13.7305 11.5625H40.1871L43.1644 23.8478H1.44532C1.85001 17.221 7.41449 11.5625 13.7305 11.5625Z" fill="#B3C1C9"/>
<path d="M22.4024 15.8986C21.9737 15.8986 21.5545 16.0257 21.198 16.2639C20.8415 16.5022 20.5636 16.8407 20.3995 17.2369C20.2354 17.633 20.1925 18.0689 20.2761 18.4895C20.3598 18.91 20.5663 19.2963 20.8695 19.5995C21.1727 19.9027 21.5589 20.1092 21.9795 20.1929C22.4 20.2765 22.8359 20.2336 23.2321 20.0695C23.6282 19.9054 23.9668 19.6275 24.2051 19.271C24.4433 18.9145 24.5704 18.4953 24.5704 18.0665C24.5704 17.4916 24.342 16.9401 23.9354 16.5335C23.5289 16.127 22.9774 15.8986 22.4024 15.8986ZM22.4024 18.7892C22.2595 18.7892 22.1198 18.7468 22.001 18.6674C21.8821 18.588 21.7895 18.4751 21.7348 18.3431C21.6801 18.211 21.6658 18.0657 21.6937 17.9256C21.7216 17.7854 21.7904 17.6566 21.8914 17.5555C21.9925 17.4545 22.1213 17.3856 22.2615 17.3578C22.4016 17.3299 22.5469 17.3442 22.679 17.3989C22.811 17.4536 22.9239 17.5462 23.0033 17.6651C23.0827 17.7839 23.1251 17.9236 23.1251 18.0665C23.1251 18.2582 23.049 18.442 22.9134 18.5775C22.7779 18.7131 22.5941 18.7892 22.4024 18.7892Z" fill="#B3C1C9"/>
</svg>
