<svg width="45" height="42" viewBox="0 0 45 42" fill="none" xmlns="http://www.w3.org/2000/svg">
<path d="M41.5318 10.6792L38.8584 0H6.50289C6.31126 0 6.12748 0.0761249 5.99198 0.211628C5.85647 0.347131 5.78035 0.530913 5.78035 0.722543C5.78035 0.914174 5.85647 1.09796 5.99198 1.23346C6.12748 1.36896 6.31126 1.44509 6.50289 1.44509H37.7312L39.8988 10.1156H13.7283C10.0873 10.1156 6.59549 11.562 4.02093 14.1365C1.44637 16.7111 0 20.203 0 23.8439V24.5665H45L41.5318 10.6792ZM13.7283 11.5607H40.2601L43.1503 23.1214H1.44509C1.62957 19.9905 3.00469 17.0488 5.28856 14.8993C7.57242 12.7497 10.592 11.5553 13.7283 11.5607V11.5607Z" fill="#B3C1C9"/>
<path d="M16.3945 27.5216C16.3077 27.4818 16.214 27.4595 16.1186 27.4561C16.0232 27.4528 15.928 27.4683 15.8387 27.5019C15.7493 27.5355 15.6675 27.5865 15.598 27.6519C15.5284 27.7172 15.4725 27.7958 15.4335 27.8829L10.1806 39.4436C10.1024 39.618 10.0965 39.8163 10.1643 39.9951C10.232 40.1738 10.3678 40.3185 10.5419 40.3973C10.6349 40.4397 10.7359 40.4619 10.8381 40.4624C10.9771 40.4621 11.1131 40.4217 11.2297 40.3461C11.3463 40.2705 11.4387 40.1628 11.4956 40.0361L16.7485 28.4754C16.8272 28.3018 16.8341 28.1043 16.7678 27.9256C16.7015 27.747 16.5673 27.6018 16.3945 27.5216Z" fill="#B3C1C9"/>
<path d="M29.3641 27.8829C29.3292 27.7907 29.2758 27.7065 29.2072 27.6357C29.1385 27.5649 29.0561 27.5088 28.965 27.4711C28.8739 27.4333 28.776 27.4146 28.6774 27.4161C28.5787 27.4176 28.4815 27.4393 28.3915 27.4798C28.3016 27.5203 28.2209 27.5788 28.1544 27.6517C28.088 27.7246 28.0371 27.8103 28.0051 27.9036C27.973 27.9968 27.9603 28.0957 27.9679 28.194C27.9755 28.2924 28.0031 28.3881 28.0491 28.4754L33.302 40.0361C33.359 40.1629 33.4513 40.2705 33.568 40.3461C33.6846 40.4217 33.8205 40.4621 33.9595 40.4624C34.0618 40.4619 34.1627 40.4398 34.2558 40.3974C34.4299 40.3185 34.5657 40.1739 34.6334 39.9951C34.7011 39.8164 34.6952 39.618 34.617 39.4436L29.3641 27.8829Z" fill="#B3C1C9"/>
<path d="M22.3988 31.7919C22.2072 31.7919 22.0234 31.868 21.8879 32.0035C21.7524 32.139 21.6763 32.3228 21.6763 32.5144V41.1849C21.6763 41.3766 21.7524 41.5603 21.8879 41.6958C22.0234 41.8314 22.2072 41.9075 22.3988 41.9075C22.5905 41.9075 22.7743 41.8314 22.9098 41.6958C23.0453 41.5603 23.1214 41.3766 23.1214 41.1849V32.5144C23.1214 32.3228 23.0453 32.139 22.9098 32.0035C22.7743 31.868 22.5905 31.7919 22.3988 31.7919Z" fill="#B3C1C9"/>
</svg>
