<svg width="45" height="45" viewBox="0 0 45 45" fill="none" xmlns="http://www.w3.org/2000/svg">
<path d="M44.3211 28.8461C44.4128 28.8158 44.4975 28.7675 44.5702 28.7039C44.6429 28.6403 44.7021 28.5628 44.7443 28.476C44.7865 28.3891 44.8109 28.2947 44.816 28.1983C44.8211 28.1018 44.8068 28.0054 44.7739 27.9146C44.7411 27.8237 44.6904 27.7405 44.6248 27.6696C44.5592 27.5987 44.48 27.5417 44.392 27.502C44.304 27.4622 44.2089 27.4406 44.1124 27.4382C44.0159 27.4358 43.9198 27.4529 43.83 27.4883L31.2414 32.1033L27.8541 24.556H45L41.5333 10.6746L38.861 0H6.51932C6.32778 0 6.14407 0.0760924 6.00863 0.211538C5.87318 0.346983 5.79709 0.530686 5.79709 0.722235C5.79709 0.913784 5.87318 1.09749 6.00863 1.23293C6.14407 1.36838 6.32778 1.44447 6.51932 1.44447H37.7343L39.901 10.1113H13.7417C10.1023 10.1113 6.61189 11.557 4.03843 14.1305C1.46497 16.704 0.0192099 20.1943 0.0192099 23.8338V24.556H16.9556L13.5322 32.0889L0.987005 27.4883C0.897163 27.4529 0.801135 27.4358 0.704599 27.4382C0.608063 27.4406 0.51298 27.4622 0.424974 27.502C0.336968 27.5417 0.257825 27.5987 0.192227 27.6696C0.126629 27.7405 0.0759075 27.8237 0.0430624 27.9146C0.0102173 28.0054 -0.00408441 28.1018 0.0010031 28.1983C0.00609062 28.2947 0.0304641 28.3891 0.0726819 28.476C0.1149 28.5628 0.174105 28.6403 0.246795 28.7039C0.319486 28.7675 0.404185 28.8158 0.495885 28.8461L20.314 36.1117L11.8855 39.2029L12.9544 36.834C12.9938 36.7477 13.0158 36.6545 13.0191 36.5597C13.0224 36.4649 13.0071 36.3703 12.9739 36.2815C12.9407 36.1926 12.8903 36.1111 12.8256 36.0418C12.761 35.9724 12.6832 35.9164 12.5969 35.877C12.5106 35.8377 12.4174 35.8157 12.3226 35.8124C12.2278 35.809 12.1333 35.8244 12.0444 35.8576C11.9555 35.8908 11.8741 35.9412 11.8047 36.0058C11.7353 36.0705 11.6793 36.1482 11.64 36.2345L9.97883 39.8818L0.495885 43.3774C0.336289 43.4354 0.202202 43.5477 0.117168 43.6946C0.0321345 43.8416 0.00159043 44.0138 0.0308994 44.181C0.0602084 44.3482 0.147497 44.4998 0.277437 44.6091C0.407377 44.7184 0.571662 44.7784 0.741445 44.7786C0.825191 44.7785 0.908283 44.7638 0.987005 44.7352L22.4085 36.8773L33.7765 41.0518C33.8883 41.1333 34.0212 41.1809 34.1593 41.1891L43.83 44.7352C43.9087 44.7638 43.9918 44.7785 44.0755 44.7786C44.2453 44.7784 44.4096 44.7184 44.5395 44.6091C44.6695 44.4998 44.7568 44.3482 44.7861 44.181C44.8154 44.0138 44.7849 43.8416 44.6998 43.6946C44.6148 43.5477 44.4807 43.4354 44.3211 43.3774L34.7226 39.8601L33.177 36.4223C33.1387 36.3355 33.0835 36.2571 33.0149 36.1916C32.9462 36.1261 32.8652 36.0747 32.7767 36.0405C32.6882 36.0063 32.5937 35.9899 32.4988 35.9922C32.4039 35.9945 32.3104 36.0155 32.2237 36.054C32.1366 36.093 32.0581 36.1488 31.9927 36.2184C31.9274 36.2879 31.8764 36.3696 31.8428 36.459C31.8093 36.5483 31.7937 36.6434 31.7971 36.7387C31.8005 36.8341 31.8227 36.9278 31.8625 37.0145L32.8231 39.1812L24.503 36.1117L44.3211 28.8461ZM13.7417 11.5558H40.2621L43.1511 23.1115H1.46368C1.64809 19.982 3.02262 17.0415 5.30551 14.8929C7.5884 12.7443 10.6067 11.5503 13.7417 11.5558V11.5558ZM14.89 32.5872L18.5373 24.556H26.2724L29.8836 32.6017L22.4085 35.3462L14.89 32.5872Z" fill="#B3C1C9"/>
</svg>
