<svg width="30" height="17" viewBox="0 0 30 17" fill="none" xmlns="http://www.w3.org/2000/svg">
<path d="M27.6879 7.11946L25.9056 0H4.33526C4.20751 0 4.08499 0.05075 3.99465 0.141085C3.90431 0.231421 3.85356 0.353942 3.85356 0.481696C3.85356 0.609449 3.90431 0.731971 3.99465 0.822306C4.08499 0.912642 4.20751 0.963391 4.33526 0.963391H25.1541L26.5992 6.74374H9.15222C6.7249 6.74374 4.397 7.70799 2.68062 9.42436C0.964249 11.1407 0 13.4686 0 15.896V16.3776H30L27.6879 7.11946ZM9.15222 7.70713H26.8401L28.7669 15.4143H0.963391C1.08638 13.327 2.00313 11.3659 3.52571 9.93284C5.04828 8.49983 7.06134 7.70351 9.15222 7.70713Z" fill="#B3C1C9"/>
</svg>
