<svg width="45" height="26" viewBox="0 0 45 26" fill="none" xmlns="http://www.w3.org/2000/svg">
<path d="M41.4662 10.6954C41.4621 10.6763 41.4621 10.6566 41.4662 10.6375L38.8719 0H6.50393C6.31227 0 6.12846 0.0761372 5.99294 0.211662C5.85741 0.347187 5.78128 0.530998 5.78128 0.722659C5.78128 0.914321 5.85741 1.09813 5.99294 1.23366C6.12846 1.36918 6.31227 1.44532 6.50393 1.44532H37.73L39.833 10.1172H13.7305C6.28714 10.1172 0 16.7368 0 24.5704V25.2931H45L41.4662 10.6954ZM13.7305 11.5625H40.1871L43.1644 23.8478H1.44532C1.85001 17.221 7.41449 11.5625 13.7305 11.5625Z" fill="#B3C1C9"/>
<path d="M15.1759 15.8986C14.7471 15.8986 14.3279 16.0257 13.9714 16.2639C13.6149 16.5022 13.337 16.8407 13.1729 17.2369C13.0088 17.633 12.9659 18.0689 13.0495 18.4895C13.1332 18.91 13.3397 19.2963 13.6429 19.5995C13.9461 19.9027 14.3324 20.1092 14.7529 20.1929C15.1734 20.2765 15.6094 20.2336 16.0055 20.0695C16.4016 19.9054 16.7402 19.6275 16.9785 19.271C17.2167 18.9145 17.3438 18.4953 17.3438 18.0665C17.3438 17.4916 17.1154 16.9401 16.7088 16.5335C16.3023 16.127 15.7508 15.8986 15.1759 15.8986ZM15.1759 18.7892C15.0329 18.7892 14.8932 18.7468 14.7744 18.6674C14.6555 18.588 14.5629 18.4751 14.5082 18.3431C14.4535 18.211 14.4392 18.0657 14.4671 17.9256C14.495 17.7854 14.5638 17.6566 14.6649 17.5555C14.7659 17.4545 14.8947 17.3856 15.0349 17.3578C15.1751 17.3299 15.3204 17.3442 15.4524 17.3989C15.5845 17.4536 15.6973 17.5462 15.7767 17.6651C15.8561 17.7839 15.8985 17.9236 15.8985 18.0665C15.8985 18.2582 15.8224 18.442 15.6869 18.5775C15.5513 18.7131 15.3675 18.7892 15.1759 18.7892Z" fill="#B3C1C9"/>
<path d="M22.4024 15.8986C21.9737 15.8986 21.5545 16.0257 21.198 16.2639C20.8415 16.5022 20.5636 16.8407 20.3995 17.2369C20.2354 17.633 20.1925 18.0689 20.2761 18.4895C20.3598 18.91 20.5663 19.2963 20.8695 19.5995C21.1727 19.9027 21.5589 20.1092 21.9795 20.1929C22.4 20.2765 22.8359 20.2336 23.2321 20.0695C23.6282 19.9054 23.9668 19.6275 24.2051 19.271C24.4433 18.9145 24.5704 18.4953 24.5704 18.0665C24.5704 17.4916 24.342 16.9401 23.9354 16.5335C23.5289 16.127 22.9774 15.8986 22.4024 15.8986ZM22.4024 18.7892C22.2595 18.7892 22.1198 18.7468 22.001 18.6674C21.8821 18.588 21.7895 18.4751 21.7348 18.3431C21.6801 18.211 21.6658 18.0657 21.6937 17.9256C21.7216 17.7854 21.7904 17.6566 21.8914 17.5555C21.9925 17.4545 22.1213 17.3856 22.2615 17.3578C22.4016 17.3299 22.5469 17.3442 22.679 17.3989C22.811 17.4536 22.9239 17.5462 23.0033 17.6651C23.0827 17.7839 23.1251 17.9236 23.1251 18.0665C23.1251 18.2582 23.049 18.442 22.9134 18.5775C22.7779 18.7131 22.5941 18.7892 22.4024 18.7892Z" fill="#B3C1C9"/>
<path d="M29.629 15.8986C29.2003 15.8986 28.7811 16.0257 28.4246 16.2639C28.0681 16.5022 27.7902 16.8407 27.6261 17.2369C27.462 17.633 27.4191 18.0689 27.5027 18.4895C27.5864 18.91 27.7929 19.2963 28.096 19.5995C28.3992 19.9027 28.7855 20.1092 29.2061 20.1929C29.6266 20.2765 30.0625 20.2336 30.4587 20.0695C30.8548 19.9054 31.1934 19.6275 31.4316 19.271C31.6699 18.9145 31.797 18.4953 31.797 18.0665C31.797 17.4916 31.5686 16.9401 31.162 16.5335C30.7555 16.127 30.204 15.8986 29.629 15.8986ZM29.629 18.7892C29.4861 18.7892 29.3464 18.7468 29.2276 18.6674C29.1087 18.588 29.0161 18.4751 28.9614 18.3431C28.9067 18.211 28.8924 18.0657 28.9203 17.9256C28.9481 17.7854 29.017 17.6566 29.118 17.5555C29.2191 17.4545 29.3479 17.3856 29.4881 17.3578C29.6282 17.3299 29.7735 17.3442 29.9056 17.3989C30.0376 17.4536 30.1505 17.5462 30.2299 17.6651C30.3093 17.7839 30.3517 17.9236 30.3517 18.0665C30.3517 18.2582 30.2756 18.442 30.14 18.5775C30.0045 18.7131 29.8207 18.7892 29.629 18.7892Z" fill="#B3C1C9"/>
</svg>
