<svg width="45" height="45" viewBox="0 0 45 45" fill="none" xmlns="http://www.w3.org/2000/svg">
<path d="M8.16987 13.9238C8.34861 13.8605 8.49486 13.7287 8.57644 13.5575C8.65803 13.3863 8.66826 13.1897 8.6049 13.011C8.54154 12.8322 8.40977 12.686 8.23857 12.6044C8.06738 12.5228 7.87079 12.5126 7.69205 12.576C7.19782 12.7528 6.67653 12.8421 6.15162 12.8398C5.44885 12.8378 4.7557 12.6763 4.12443 12.3675C3.49316 12.0587 2.94024 11.6105 2.50735 11.0569L1.50179 6.27158C1.46207 6.08244 1.34884 5.91682 1.18701 5.81117C1.02518 5.70551 0.828006 5.66847 0.638864 5.70819C0.449721 5.74791 0.284104 5.86113 0.178446 6.02297C0.072788 6.1848 0.0357445 6.38197 0.0754644 6.57111L5.78077 33.6713C5.81557 33.8335 5.90582 33.9785 6.03598 34.0814C6.16615 34.1842 6.32809 34.2384 6.49394 34.2347H6.63657C6.7291 34.2161 6.81699 34.1792 6.89517 34.1263C6.97335 34.0734 7.04025 34.0055 7.09199 33.9266C7.14374 33.8477 7.17929 33.7592 7.19661 33.6664C7.21392 33.5737 7.21264 33.4784 7.19284 33.3861L2.97804 13.4175C3.93863 13.9847 5.03613 14.2782 6.15162 14.2661C6.83897 14.268 7.52157 14.1522 8.16987 13.9238V13.9238Z" fill="#B3C1C9"/>
<path d="M44.099 42.9996L35.3271 34.2348H38.4651L43.2432 11.549L44.2916 6.55689C44.3313 6.36775 44.2943 6.17057 44.1886 6.00874C44.083 5.84691 43.9173 5.73368 43.7282 5.69396C43.5391 5.65424 43.3419 5.69129 43.1801 5.79695C43.0182 5.9026 42.905 6.06822 42.8653 6.25736L41.8597 11.0498C41.4313 11.596 40.8856 12.0389 40.263 12.346C39.6405 12.6531 38.9569 12.8164 38.2628 12.8239C37.5687 12.8315 36.8817 12.683 36.2526 12.3895C35.6236 12.096 35.0684 11.665 34.6282 11.1283C34.5355 11.0284 34.4357 10.9357 34.3358 10.843L44.0063 1.22243C44.0728 1.15593 44.1256 1.07699 44.1616 0.990114C44.1975 0.903235 44.2161 0.810119 44.2161 0.716082C44.2161 0.622045 44.1975 0.528928 44.1616 0.442049C44.1256 0.35517 44.0728 0.27623 44.0063 0.209735C43.9398 0.143241 43.8609 0.0904949 43.774 0.0545085C43.6871 0.018522 43.594 -2.42706e-09 43.5 0C43.406 2.42706e-09 43.3128 0.018522 43.226 0.0545085C43.1391 0.090495 43.0601 0.143241 42.9936 0.209735L22.1479 21.0555L12.1636 11.0712C13.06 10.6392 14.0721 10.5085 15.0489 10.6987C16.0257 10.8889 16.9148 11.3898 17.5836 12.1267C18.1512 12.8042 18.8605 13.349 19.6614 13.7228C20.4623 14.0966 21.3353 14.2903 22.2192 14.2903C23.103 14.2903 23.9761 14.0966 24.777 13.7228C25.5779 13.349 26.2871 12.8042 26.8547 12.1267C27.5503 11.3811 28.4685 10.8807 29.4721 10.7004C29.5649 10.6856 29.6539 10.6527 29.734 10.6035C29.814 10.5542 29.8836 10.4896 29.9386 10.4134C29.9936 10.3372 30.033 10.2508 30.0545 10.1593C30.076 10.0678 30.0792 9.97298 30.064 9.88023C30.051 9.78542 30.0191 9.69419 29.9701 9.61197C29.9211 9.52975 29.8561 9.45823 29.7789 9.40167C29.7017 9.3451 29.614 9.30465 29.5208 9.28273C29.4276 9.2608 29.331 9.25785 29.2367 9.27405C27.9123 9.50591 26.7001 10.1646 25.785 11.1497C25.3507 11.6745 24.8059 12.0969 24.1896 12.3869C23.5732 12.6769 22.9004 12.8273 22.2192 12.8273C21.538 12.8273 20.8652 12.6769 20.2488 12.3869C19.6324 12.0969 19.0877 11.6745 18.6534 11.1497C18.0844 10.5282 17.3925 10.0316 16.6215 9.69158C15.8505 9.35152 15.0173 9.17534 14.1747 9.1742C13.1083 9.17859 12.0622 9.46657 11.1438 10.0086L1.30922 0.209735C1.17493 0.0754441 0.992795 4.25079e-08 0.802879 4.25079e-08C0.612962 4.25079e-08 0.430824 0.0754441 0.296532 0.209735C0.162241 0.344027 0.0867968 0.526165 0.0867968 0.716082C0.0867968 0.905998 0.162241 1.08814 0.296532 1.22243L21.1423 22.0682L10.1952 33.0153L0.210953 42.9996C0.144109 43.0659 0.0910536 43.1447 0.0548472 43.2316C0.0186408 43.3185 0 43.4118 0 43.5059C0 43.6 0.0186408 43.6933 0.0548472 43.7802C0.0910536 43.8671 0.144109 43.946 0.210953 44.0122C0.27725 44.0791 0.356127 44.1321 0.443033 44.1684C0.529938 44.2046 0.623153 44.2232 0.717299 44.2232C0.811445 44.2232 0.904659 44.2046 0.991565 44.1684C1.07847 44.1321 1.15735 44.0791 1.22365 44.0122L10.9869 34.2348H28.6163C28.8054 34.2348 28.9868 34.1596 29.1205 34.0259C29.2543 33.8922 29.3294 33.7108 29.3294 33.5216C29.3294 33.3325 29.2543 33.1511 29.1205 33.0173C28.9868 32.8836 28.8054 32.8084 28.6163 32.8084H12.4132L22.1479 23.0738L33.1021 34.028L43.0864 44.0122C43.153 44.0783 43.232 44.1306 43.3189 44.1661C43.4058 44.2016 43.4988 44.2196 43.5927 44.2191C43.6866 44.2196 43.7796 44.2016 43.8665 44.1661C43.9534 44.1306 44.0324 44.0783 44.099 44.0122C44.1659 43.946 44.2189 43.8671 44.2552 43.7802C44.2914 43.6933 44.31 43.6 44.31 43.5059C44.31 43.4118 44.2914 43.3185 44.2552 43.2316C44.2189 43.1447 44.1659 43.0659 44.099 42.9996V42.9996ZM33.3588 11.8628C33.4372 11.9413 33.5228 12.0126 33.587 12.0839C34.1525 12.7706 34.8639 13.3227 35.6694 13.7002C36.4749 14.0777 37.3544 14.271 38.244 14.2662C39.3593 14.2606 40.4519 13.9498 41.4033 13.3676L37.3097 32.8084H33.9008L23.1606 22.0682L33.3588 11.8628Z" fill="#B3C1C9"/>
</svg>
