<svg width="54" height="30" viewBox="0 0 54 30" fill="none" xmlns="http://www.w3.org/2000/svg">
<path d="M52.6109 0.0324247C52.1954 -0.0887492 51.7589 0.147576 51.6362 0.563781L50.2175 5.38289C50.2077 5.39117 50.1949 5.39343 50.1851 5.40246C48.2275 7.2163 46.2376 8.13602 44.2694 8.13602C44.2634 8.13602 44.2574 8.13602 44.2514 8.13602C42.5135 8.1315 41.2965 7.41048 40.0073 6.64731C38.5592 5.79006 37.06 4.90271 34.8344 4.98399C32.8595 5.05474 31.7539 5.85705 30.7777 6.56527C29.8505 7.23813 29.0497 7.81916 27.491 7.90044C25.6892 7.99452 24.5843 7.32619 23.3026 6.55173C21.9787 5.75243 20.478 4.844 18.129 4.88314C16.1443 4.91475 14.928 5.58459 13.7524 6.23261C12.6641 6.83171 11.6353 7.39844 9.91175 7.50155C7.70051 7.63401 5.36434 6.92654 2.96344 5.40773L1.53721 0.563029C1.41453 0.147576 0.977999 -0.0895043 0.563299 0.0316696C0.147846 0.154349 -0.0899859 0.590125 0.0319406 1.00558L8.40046 29.4363C8.40272 29.4446 8.40799 29.4498 8.411 29.4581C8.43508 29.5311 8.46669 29.6003 8.50959 29.6621C8.51486 29.6696 8.52164 29.6756 8.52691 29.6831C8.5683 29.7381 8.61647 29.787 8.67066 29.8291C8.67969 29.8367 8.68797 29.8442 8.69775 29.8517C8.75646 29.8939 8.82043 29.9262 8.88967 29.9511C8.90322 29.9563 8.91677 29.9594 8.93107 29.9639C9.00182 29.9849 9.07558 30 9.1531 30C9.1531 30 9.1531 30 9.15385 30H44.0211H44.0218C44.0993 30 44.1723 29.9849 44.2431 29.9639C44.2574 29.9594 44.2709 29.9556 44.2845 29.9511C44.353 29.9262 44.4169 29.8939 44.4757 29.8525C44.4854 29.8457 44.4945 29.8367 44.5035 29.8291C44.5569 29.787 44.6044 29.7396 44.645 29.6854C44.651 29.6771 44.6585 29.6703 44.6646 29.6621C44.7067 29.6011 44.7383 29.5326 44.7624 29.4604C44.7654 29.4521 44.7714 29.4461 44.7737 29.437L53.1422 1.00633C53.2641 0.590877 53.0263 0.154351 52.6109 0.0324247ZM10.0058 9.06853C12.0831 8.94434 13.3724 8.23386 14.5096 7.60767C15.6099 7.0018 16.5605 6.47797 18.1546 6.45313C20.0565 6.41776 21.2381 7.13803 22.492 7.89593C23.8693 8.72759 25.2978 9.58559 27.5738 9.46818C29.5954 9.36206 30.713 8.55147 31.6997 7.83572C32.6089 7.17566 33.3946 6.60592 34.8909 6.55248C36.6641 6.49227 37.8984 7.22232 39.2087 7.99753C40.5559 8.79532 42.083 9.69848 44.2476 9.70526C44.2551 9.70526 44.2627 9.70526 44.2694 9.70526C46.0201 9.70526 47.7564 9.12498 49.4513 7.98549L43.4333 28.4315H9.74015L3.60017 7.57004C5.7798 8.68168 7.92932 9.19196 10.0058 9.06853Z" fill="#B3C1C9"/>
</svg>
