<svg width="45" height="25" viewBox="0 0 45 25" fill="none" xmlns="http://www.w3.org/2000/svg">
<path d="M43.8392 0.0265196C43.4941 -0.0747139 43.1293 0.122659 43.0274 0.469018L41.8451 4.48525C41.8368 4.49225 41.8266 4.49416 41.8183 4.5018C40.1865 6.0133 38.5279 6.77988 36.8891 6.77988C36.884 6.77988 36.8795 6.77988 36.8744 6.77988C35.4266 6.77606 34.4123 6.17502 33.3383 5.53961C32.1317 4.82524 30.8743 4.08987 29.0272 4.15354C27.382 4.21275 26.4601 4.88127 25.6471 5.47084C24.8748 6.03177 24.2075 6.51565 22.9087 6.58378C21.3997 6.66527 20.4854 6.10499 19.4183 5.46002C18.3366 4.80742 17.1142 4.06886 15.2232 4.06886C15.185 4.06886 15.1455 4.06886 15.106 4.06949C13.4526 4.09623 12.4389 4.65397 11.4591 5.19388C10.5518 5.69368 9.69482 6.16547 8.25845 6.25143C6.41969 6.35966 4.47015 5.77264 2.46904 4.50626L1.28098 0.469654C1.17911 0.123296 0.814284 -0.0747142 0.469199 0.027156C0.123477 0.129026 -0.0751707 0.492574 0.0266995 0.838933L6.99844 24.5301C7.00035 24.5371 7.00544 24.5422 7.00736 24.5492C7.02709 24.6097 7.05383 24.667 7.08949 24.7179C7.09394 24.7243 7.09968 24.7294 7.10413 24.7358C7.13851 24.7816 7.17862 24.8224 7.22383 24.8574C7.23147 24.8637 7.23847 24.8708 7.24675 24.8765C7.29514 24.9109 7.34862 24.9382 7.40529 24.9586C7.41738 24.9631 7.42948 24.9663 7.44158 24.9701C7.49888 24.9873 7.55873 24.9987 7.62176 24.9994C7.62303 24.9994 7.62431 25 7.62622 25C7.62685 25 7.62749 25 7.62749 25H36.6802C36.6809 25 36.6815 25 36.6815 25C36.6828 25 36.6841 24.9994 36.686 24.9994C36.749 24.9987 36.8082 24.9873 36.8661 24.9701C36.8782 24.9663 36.8903 24.9631 36.9024 24.9586C36.9591 24.9382 37.0126 24.9109 37.061 24.8765C37.0692 24.8708 37.0756 24.8637 37.0839 24.858C37.1291 24.8224 37.1692 24.7823 37.2036 24.7364C37.2081 24.73 37.2138 24.7249 37.2182 24.7186C37.2539 24.6676 37.28 24.6097 37.3004 24.5492C37.3029 24.5422 37.3074 24.5371 37.3093 24.5301L44.2823 0.838296C44.3835 0.491938 44.1849 0.12839 43.8392 0.0265196ZM36.1919 23.6916H8.11519L2.99876 6.30809C4.81205 7.23383 6.59733 7.65851 8.33612 7.556C10.0666 7.45286 11.1414 6.86074 12.0894 6.33865C13.0069 5.83376 13.7983 5.39763 15.1264 5.37662C15.1589 5.37598 15.1914 5.37598 15.2232 5.37598C16.7493 5.37598 17.7177 5.96046 18.7415 6.57932C19.8888 7.27267 21.0839 7.98895 22.9761 7.88963C24.6615 7.80113 25.5929 7.1256 26.4143 6.52902C27.1726 5.97956 27.8264 5.50459 29.0737 5.46002C30.547 5.40654 31.5797 6.01776 32.6716 6.66464C33.7941 7.32934 35.0669 8.08254 36.8706 8.08764C36.8763 8.08764 36.8827 8.08764 36.8891 8.08764C38.3477 8.08764 39.7936 7.60375 41.2071 6.65445L36.1919 23.6916Z" fill="#B3C1C9"/>
<path d="M18.6046 14.8404C19.982 14.8404 21.0985 13.7238 21.0985 12.3464C21.0985 10.9691 19.982 9.85254 18.6046 9.85254C17.2273 9.85254 16.1107 10.9691 16.1107 12.3464C16.1107 13.7238 17.2273 14.8404 18.6046 14.8404Z" fill="#B3C1C9"/>
<path d="M25.9055 14.8404C27.2829 14.8404 28.3994 13.7238 28.3994 12.3464C28.3994 10.9691 27.2829 9.85254 25.9055 9.85254C24.5282 9.85254 23.4116 10.9691 23.4116 12.3464C23.4116 13.7238 24.5282 14.8404 25.9055 14.8404Z" fill="#B3C1C9"/>
<path d="M18.6046 21.0741C19.982 21.0741 21.0985 19.9576 21.0985 18.5802C21.0985 17.2029 19.982 16.0863 18.6046 16.0863C17.2273 16.0863 16.1107 17.2029 16.1107 18.5802C16.1107 19.9576 17.2273 21.0741 18.6046 21.0741Z" fill="#B3C1C9"/>
<path d="M25.9055 21.0741C27.2829 21.0741 28.3994 19.9576 28.3994 18.5802C28.3994 17.2029 27.2829 16.0863 25.9055 16.0863C24.5282 16.0863 23.4116 17.2029 23.4116 18.5802C23.4116 19.9576 24.5282 21.0741 25.9055 21.0741Z" fill="#B3C1C9"/>
</svg>
