<svg width="45" height="25" viewBox="0 0 45 25" fill="none" xmlns="http://www.w3.org/2000/svg">
<path d="M43.8386 0.0267495C43.4935 -0.0744856 43.1287 0.122891 43.0268 0.469255L41.8451 4.48492C41.8368 4.49192 41.8266 4.49383 41.8184 4.50147C40.1865 6.01299 38.5279 6.77958 36.889 6.77958C36.8839 6.77958 36.8795 6.77958 36.8744 6.77958C35.4265 6.77576 34.4123 6.17472 33.3382 5.53929C32.1316 4.82492 30.8741 4.09016 29.0271 4.1532C27.3818 4.21241 26.4605 4.88094 25.6468 5.47053C24.8745 6.03146 24.2073 6.51535 22.9084 6.58348C21.3994 6.66498 20.4851 6.10468 19.418 5.4597C18.3363 4.80709 17.1144 4.06852 15.2234 4.06852C15.1852 4.06852 15.1458 4.06851 15.1063 4.06915C13.4528 4.09589 12.4391 4.65364 11.4593 5.19356C10.5526 5.69337 9.69498 6.16517 8.25858 6.25112C6.4198 6.35936 4.47022 5.77232 2.46908 4.50593L1.281 0.469255C1.17913 0.122891 0.814297 -0.0751223 0.469206 0.0267495C0.123479 0.128621 -0.075172 0.492178 0.0266999 0.838542L6.99983 24.5301C7.00174 24.5371 7.00683 24.5422 7.00874 24.5492C7.02848 24.6097 7.05522 24.667 7.09088 24.7179C7.09533 24.7243 7.10106 24.7294 7.10552 24.7358C7.1399 24.7816 7.18002 24.8224 7.22522 24.8574C7.23286 24.8637 7.23986 24.8708 7.24814 24.8765C7.29653 24.9109 7.35001 24.9382 7.40668 24.9586C7.41878 24.9631 7.43087 24.9663 7.44297 24.9701C7.50027 24.9873 7.56012 24.9987 7.62316 24.9994C7.62443 24.9994 7.6257 25 7.62761 25C7.62825 25 7.62889 25 7.62889 25H36.6815C36.6821 25 36.6827 25 36.6827 25C36.684 25 36.6853 24.9994 36.6872 24.9994C36.7502 24.9987 36.8094 24.9873 36.8674 24.9701C36.8795 24.9663 36.8916 24.9631 36.9037 24.9586C36.9603 24.9382 37.0138 24.9109 37.0622 24.8765C37.0705 24.8708 37.0769 24.8637 37.0851 24.858C37.1303 24.8224 37.1705 24.7822 37.2048 24.7364C37.2093 24.73 37.215 24.7249 37.2195 24.7186C37.2551 24.6676 37.2812 24.6097 37.3016 24.5492C37.3042 24.5422 37.3086 24.5371 37.3105 24.5301L44.2837 0.838542C44.383 0.492178 44.1843 0.128621 43.8386 0.0267495ZM36.1912 23.6916H8.11533L2.99881 6.30842C4.81213 7.23418 6.59744 7.65886 8.33562 7.55635C10.0662 7.45321 11.1409 6.86108 12.0883 6.33899C13.0058 5.83408 13.7972 5.39794 15.1254 5.37693C15.1579 5.3763 15.1903 5.3763 15.2222 5.3763C16.7483 5.3763 17.7167 5.96079 18.7399 6.57966C19.8873 7.27302 21.0823 7.98931 22.9746 7.88998C24.6593 7.80148 25.5914 7.12595 26.4128 6.52936C27.1711 5.97989 27.825 5.50491 29.0723 5.46034C30.5456 5.40686 31.5783 6.01809 32.6703 6.66497C33.7928 7.32969 35.0649 8.0829 36.8693 8.088C36.875 8.088 36.8814 8.088 36.8878 8.088C38.3464 8.088 39.7924 7.60411 41.2059 6.65479L36.1912 23.6916Z" fill="black"/>
<path d="M22.1533 19.6409C24.2079 19.6409 25.8735 17.9753 25.8735 15.9207C25.8735 13.866 24.2079 12.2004 22.1533 12.2004C20.0987 12.2004 18.433 13.866 18.433 15.9207C18.433 17.9753 20.0987 19.6409 22.1533 19.6409Z" fill="black"/>
</svg>
