<svg width="45" height="25" viewBox="0 0 45 25" fill="none" xmlns="http://www.w3.org/2000/svg">
<path d="M43.8403 0.0273496C43.4949 -0.0744005 43.1305 0.123376 43.0282 0.469962L41.8459 4.48591C41.8377 4.49291 41.8275 4.49482 41.8192 4.50245C40.1874 6.01407 38.5289 6.78037 36.8894 6.78037C36.8844 6.78037 36.8799 6.78037 36.8748 6.78037C35.4268 6.77656 34.4125 6.1756 33.3384 5.53966C32.132 4.8255 30.8747 4.09036 29.0273 4.15331C27.3822 4.21246 26.4607 4.88083 25.6473 5.47098C24.8747 6.03188 24.2076 6.51583 22.909 6.58387C21.3999 6.66527 20.4861 6.10501 19.4183 5.46017C18.3366 4.80706 17.1143 4.06874 15.2237 4.06874C15.1855 4.06874 15.1461 4.06873 15.1067 4.06937C13.4532 4.09608 12.4395 4.65443 11.4596 5.19371C10.5527 5.69356 9.69547 6.16542 8.25888 6.25128C6.42039 6.36002 4.4706 5.77241 2.4693 4.50626L1.28137 0.469326C1.17898 0.12274 0.814592 -0.0750361 0.469277 0.026714C0.123327 0.128464 -0.0750856 0.492221 0.0266644 0.838171L6.99972 24.53C7.00163 24.537 7.00672 24.5421 7.00863 24.5491C7.02834 24.6095 7.05505 24.6668 7.09066 24.7183C7.09512 24.7246 7.10084 24.7297 7.10529 24.7361C7.13963 24.7819 7.17969 24.8226 7.22485 24.8575C7.23248 24.8639 7.23947 24.8709 7.24774 24.8766C7.29607 24.9116 7.34949 24.9383 7.40673 24.9587C7.41881 24.9631 7.43089 24.9663 7.44297 24.9701C7.50021 24.9873 7.55999 24.9987 7.62294 24.9994C7.62422 24.9994 7.62549 25 7.6274 25C7.62803 25 7.62867 25 7.62867 25H36.6809C36.6815 25 36.6821 25 36.6821 25C36.6834 25 36.6847 24.9994 36.6866 24.9994C36.7495 24.9987 36.8093 24.9873 36.8666 24.9701C36.8786 24.9663 36.8907 24.9631 36.9028 24.9587C36.96 24.9383 37.0135 24.911 37.0618 24.8766C37.0701 24.8709 37.077 24.8639 37.0847 24.8582C37.1298 24.8226 37.1699 24.7825 37.2042 24.7367C37.2087 24.7304 37.2144 24.7253 37.2189 24.7189C37.2545 24.6674 37.2805 24.6102 37.3009 24.5498C37.3034 24.5428 37.3079 24.5377 37.3098 24.5307L44.2829 0.838807C44.3846 0.492857 44.1862 0.129736 43.8403 0.0273496ZM36.1931 23.6931H8.11643L2.99967 6.30978C4.81273 7.23507 6.59845 7.66051 8.3371 7.55813C10.0675 7.45447 11.1422 6.86305 12.0904 6.34094C13.0074 5.83601 13.7992 5.39975 15.1276 5.37877C15.1607 5.37813 15.1925 5.37813 15.2243 5.37813C16.7506 5.37813 17.7191 5.96319 18.7423 6.58133C19.8896 7.2745 21.0851 7.9912 22.977 7.89136C24.6623 7.80296 25.5939 7.12696 26.4149 6.53109C27.1729 5.98164 27.8273 5.50659 29.0744 5.46208C30.5472 5.40866 31.5806 6.01979 32.6725 6.66654C33.7956 7.3311 35.0675 8.08405 36.8716 8.08914C36.8774 8.08914 36.8837 8.08914 36.8901 8.08914C38.3483 8.08914 39.7951 7.60582 41.2081 6.65573L36.1931 23.6931Z" fill="#B3C1C9"/>
<path d="M14.5483 18.2101C15.9258 18.2101 17.0425 17.0934 17.0425 15.716C17.0425 14.3385 15.9258 13.2218 14.5483 13.2218C13.1709 13.2218 12.0542 14.3385 12.0542 15.716C12.0542 17.0934 13.1709 18.2101 14.5483 18.2101Z" fill="#B3C1C9"/>
<path d="M21.8489 18.2101C23.2264 18.2101 24.343 17.0934 24.343 15.716C24.343 14.3385 23.2264 13.2218 21.8489 13.2218C20.4714 13.2218 19.3547 14.3385 19.3547 15.716C19.3547 17.0934 20.4714 18.2101 21.8489 18.2101Z" fill="#B3C1C9"/>
<path d="M28.8366 18.2101C30.214 18.2101 31.3307 17.0934 31.3307 15.716C31.3307 14.3385 30.214 13.2218 28.8366 13.2218C27.4591 13.2218 26.3424 14.3385 26.3424 15.716C26.3424 17.0934 27.4591 18.2101 28.8366 18.2101Z" fill="#B3C1C9"/>
</svg>
