<svg width="39" height="30" viewBox="0 0 39 30" fill="none" xmlns="http://www.w3.org/2000/svg">
<path d="M38.367 0.0235846C38.0648 -0.0648715 37.7456 0.107504 37.6566 0.410863L36.6223 3.92529C36.6149 3.93153 36.6059 3.93323 36.5985 3.94004C35.1656 5.26744 33.7027 5.95185 32.2709 5.9337C31.0036 5.9303 30.1162 5.40466 29.1761 4.84784C28.1203 4.22298 27.0288 3.57487 25.4037 3.63498C23.9634 3.68658 23.1571 4.27175 22.4455 4.78831C21.769 5.27878 21.185 5.70235 20.0487 5.76189C18.7326 5.83164 17.9286 5.34343 16.9941 4.77867C16.0285 4.1952 14.9358 3.53745 13.2211 3.56183C11.7741 3.58508 10.8867 4.07385 10.0288 4.54619C9.23493 4.98336 8.48532 5.39673 7.22822 5.47157C5.61617 5.56683 3.91168 5.05254 2.16127 3.94401L1.12135 0.410863C1.03233 0.107504 0.713656 -0.0660056 0.410864 0.0235846C0.107505 0.112608 -0.0660057 0.430709 0.0235845 0.734068L6.12649 21.468C6.12819 21.4736 6.13216 21.4782 6.13386 21.4838C6.15144 21.5371 6.17469 21.5876 6.20587 21.6324C6.20984 21.6381 6.21438 21.6426 6.21835 21.6477C6.2484 21.688 6.28356 21.7231 6.32325 21.7543C6.33005 21.7594 6.33572 21.7656 6.34309 21.7707C6.38562 21.8014 6.43268 21.8252 6.48258 21.8433C6.49279 21.8467 6.50243 21.8496 6.51264 21.8524C6.56423 21.8677 6.6181 21.8785 6.6748 21.8785C6.6748 21.8785 6.67481 21.8785 6.67537 21.8785H32.1031H32.1037C32.1598 21.8785 32.2137 21.8677 32.2647 21.8524C32.2749 21.8496 32.2851 21.8467 32.2953 21.8428C32.3452 21.8246 32.3923 21.8014 32.4348 21.7707C32.4422 21.7656 32.4484 21.7594 32.4552 21.7537C32.4938 21.7231 32.5284 21.6885 32.5584 21.6488C32.563 21.6426 32.5681 21.6381 32.5726 21.6318C32.6038 21.587 32.6265 21.5371 32.6435 21.485C32.6457 21.4787 32.6497 21.4742 32.6514 21.468L38.7543 0.734068C38.8433 0.431276 38.6698 0.113175 38.367 0.0235846ZM31.6744 20.7342H7.10234L2.62453 5.52034C4.21391 6.33062 5.78117 6.70202 7.2957 6.61357C8.81023 6.52284 9.75092 6.00515 10.5805 5.54812C11.3828 5.10584 12.0763 4.72423 13.2387 4.70552C14.612 4.67887 15.487 5.20507 16.4016 5.75792C17.4058 6.36407 18.4423 6.99121 20.1077 6.90445C21.5819 6.82733 22.3973 6.23592 23.1163 5.71426C23.7797 5.23286 24.3524 4.81779 25.4439 4.77867C26.7379 4.73501 27.6372 5.26688 28.5926 5.83277C29.5753 6.41454 30.6884 7.07342 32.2675 7.07796C32.2726 7.07796 32.2783 7.07796 32.2834 7.07796C33.5598 7.07796 34.826 6.65439 36.0626 5.82313L31.6744 20.7342Z" fill="#B3C1C9"/>
<path d="M32.1025 25.326H6.7128V26.4703H32.1025V25.326Z" fill="#B3C1C9"/>
<path d="M32.1025 28.8557H6.7128V30H32.1025V28.8557Z" fill="#B3C1C9"/>
</svg>
