<svg width="42" height="28" viewBox="0 0 42 28" fill="none" xmlns="http://www.w3.org/2000/svg">
<path d="M40.5856 0.0245338C40.2651 -0.069132 39.9281 0.113488 39.8339 0.434544L38.7393 4.15231C38.7317 4.15879 38.7217 4.16056 38.714 4.16763C37.2036 5.56673 35.669 6.276 34.1503 6.276C34.1456 6.276 34.1415 6.276 34.1368 6.276C32.7966 6.27246 31.8576 5.71636 30.8632 5.12785C29.7462 4.46689 28.5893 3.78531 26.8726 3.8448C25.3492 3.89959 24.4962 4.51814 23.7434 5.06482C23.0276 5.58381 22.4103 6.03211 21.2079 6.09514C19.8182 6.16878 18.9652 5.65214 17.9767 5.0548C16.9553 4.43802 15.7977 3.74407 13.9856 3.76764C12.4546 3.79238 11.5167 4.30901 10.6089 4.80856C9.7689 5.271 8.97598 5.70811 7.64639 5.78705C5.94038 5.89014 4.13834 5.34346 2.28623 4.17175L1.18639 0.434544C1.09214 0.114077 0.755177 -0.069132 0.43471 0.0245338C0.114243 0.118789 -0.0695547 0.455162 0.0247002 0.776218L6.47999 22.7088C6.48176 22.7146 6.48588 22.7194 6.48824 22.7253C6.5065 22.7812 6.53124 22.8348 6.56423 22.8825C6.56835 22.8884 6.57365 22.8931 6.57778 22.899C6.60959 22.9415 6.6467 22.9792 6.68853 23.0116C6.6956 23.0174 6.70208 23.0233 6.70915 23.0286C6.75392 23.061 6.80399 23.0858 6.85701 23.1052C6.86761 23.1088 6.87822 23.1117 6.88882 23.1152C6.94361 23.1317 7.00016 23.1429 7.06025 23.1429C7.06025 23.1429 7.06025 23.1429 7.06083 23.1429H33.9583H33.9588C34.0183 23.1429 34.0749 23.1317 34.1297 23.1152C34.1409 23.1123 34.1509 23.1093 34.1621 23.1052C34.2151 23.0864 34.2646 23.061 34.3094 23.0292C34.317 23.0239 34.3235 23.0169 34.3312 23.0116C34.3724 22.9792 34.4089 22.942 34.4401 22.9008C34.4449 22.8943 34.4507 22.889 34.4549 22.8825C34.4879 22.8354 34.5114 22.783 34.5303 22.727C34.5326 22.7205 34.5367 22.7158 34.5391 22.7093L40.9944 0.776807C41.0892 0.455751 40.9054 0.118789 40.5856 0.0245338ZM33.5058 21.9323H7.51385L2.77695 5.83948C4.45822 6.6972 6.11652 7.08953 7.71826 6.99587C9.3206 6.89985 10.315 6.35199 11.1927 5.86893C12.0416 5.40119 12.7745 4.99766 14.0045 4.97822C15.4713 4.95878 16.3832 5.50723 17.3505 6.09102C18.4127 6.73254 19.5155 7.39351 21.271 7.30396C22.8309 7.22208 23.6927 6.59646 24.4538 6.04448C25.1554 5.5355 25.761 5.09604 26.9156 5.0548C28.2835 5.00709 29.2355 5.57144 30.2464 6.16996C31.2855 6.78497 32.4631 7.48246 34.1338 7.48717C34.1391 7.48717 34.145 7.48717 34.1509 7.48717C35.5017 7.48717 36.8407 7.03946 38.1485 6.16053L33.5058 21.9323Z" fill="#B3C1C9"/>
<path d="M33.9588 26.7894H7.10147V28H33.9588V26.7894Z" fill="#B3C1C9"/>
</svg>
