<svg width="45" height="45" viewBox="0 0 45 45" fill="none" xmlns="http://www.w3.org/2000/svg">
<path d="M44.2944 16.5224C44.3342 16.333 44.2971 16.1356 44.1913 15.9735C44.0855 15.8114 43.9196 15.6981 43.7302 15.6583C43.5408 15.6185 43.3434 15.6556 43.1813 15.7614C43.0192 15.8672 42.9058 16.0331 42.8661 16.2225L41.8591 21.0217C41.455 21.5389 40.9454 21.9642 40.3644 22.2693C39.7833 22.5745 39.144 22.7526 38.4888 22.7918C37.8336 22.831 37.1776 22.7303 36.5643 22.4966C35.951 22.2628 35.3945 21.9013 34.9316 21.4359C36.1305 18.4703 36.8721 15.3399 37.1312 12.1517C38.0114 11.1374 38.9819 10.2051 40.0308 9.36639L41.1878 8.33798C41.2581 8.27515 41.3154 8.19907 41.3563 8.1141C41.3973 8.02913 41.4211 7.93692 41.4264 7.84275C41.4317 7.74858 41.4184 7.65429 41.3872 7.56526C41.3561 7.47622 41.3077 7.39419 41.2449 7.32385C41.1821 7.25351 41.106 7.19624 41.021 7.1553C40.936 7.11436 40.8438 7.09056 40.7497 7.08526C40.6555 7.07995 40.5612 7.09324 40.4722 7.12438C40.3831 7.15552 40.3011 7.20388 40.2308 7.26672L39.0809 8.29513C36.4385 10.6591 35.7243 11.3018 35.7243 12.0445C35.4636 15.2109 34.7094 18.317 33.489 21.2503C33.489 21.2503 33.489 21.286 33.489 21.3003C32.889 22.7786 32.332 23.8999 32.0606 24.4712C31.9606 24.664 31.8392 24.9283 31.7107 25.2354C31.3464 26.0852 30.7322 27.5064 29.9966 27.7992C29.9007 27.8449 29.7958 27.8686 29.6895 27.8686C29.5833 27.8686 29.4784 27.8449 29.3825 27.7992C29.1672 27.7155 28.9755 27.5807 28.8237 27.4066C28.672 27.2324 28.5647 27.0241 28.5112 26.7994C28.0755 25.0925 29.8967 22.1216 30.6537 21.086L29.561 20.179L17.1558 33.3055C16.8925 33.5783 16.5316 33.7353 16.1526 33.742C15.7736 33.7487 15.4074 33.6045 15.1347 33.3412C14.8619 33.078 14.7049 32.7171 14.6982 32.3381C14.6915 31.959 14.8357 31.5929 15.099 31.3201L22.3764 22.9214L22.8192 22.5072C22.9522 22.3734 23.0269 22.1924 23.0269 22.0037C23.0269 21.815 22.9522 21.634 22.8192 21.5002C22.6974 21.3735 22.5331 21.2962 22.3579 21.283C22.1827 21.2699 22.0087 21.3218 21.8693 21.4288C21.7604 21.47 21.6626 21.5361 21.5837 21.6216L21.3194 21.9287L11.7423 30.9559C11.6097 31.0887 11.4521 31.1941 11.2787 31.2659C11.1053 31.3378 10.9195 31.3748 10.7318 31.3748C10.5441 31.3748 10.3582 31.3378 10.1848 31.2659C10.0114 31.1941 9.85387 31.0887 9.72122 30.9559C9.45519 30.6883 9.30586 30.3263 9.30586 29.9489C9.30586 29.5716 9.45519 29.2095 9.72122 28.9419L19.8054 18.9435C19.8805 18.88 19.9418 18.8016 19.9852 18.7133C20.0287 18.625 20.0535 18.5287 20.0579 18.4304C20.0624 18.3321 20.0465 18.2339 20.0113 18.1421C19.976 18.0502 19.9222 17.9666 19.8531 17.8965C19.784 17.8264 19.7012 17.7714 19.6098 17.7348C19.5184 17.6983 19.4205 17.681 19.3221 17.6841C19.2238 17.6872 19.1271 17.7105 19.0382 17.7527C18.9493 17.795 18.8701 17.8551 18.8055 17.9294L11.0924 25.571C10.8062 25.5892 10.5211 25.5208 10.2743 25.3747C10.0275 25.2286 9.83043 25.0116 9.70868 24.7519C9.58693 24.4922 9.54618 24.2019 9.59172 23.9187C9.63727 23.6356 9.767 23.3727 9.96404 23.1642L18.3556 15.4726C18.425 15.4088 18.4812 15.332 18.5209 15.2465C18.5606 15.161 18.5831 15.0686 18.587 14.9744C18.591 14.8802 18.5764 14.7862 18.5441 14.6977C18.5117 14.6091 18.4622 14.5279 18.3984 14.4585C18.3347 14.3891 18.2578 14.3329 18.1724 14.2932C18.0869 14.2535 17.9944 14.231 17.9003 14.227C17.8061 14.223 17.712 14.2376 17.6235 14.27C17.535 14.3024 17.4537 14.3518 17.3843 14.4156L11.4424 19.8648C11.3962 19.836 11.3531 19.8025 11.3138 19.7648C11.0357 19.4469 10.8742 19.0438 10.856 18.6218C10.8378 18.1998 10.964 17.7843 11.2138 17.4437L20.1767 8.87361C22.1987 6.99782 24.6515 5.64879 27.3185 4.94565C28.0684 4.77425 28.504 4.36717 30.3323 2.67458L31.9249 1.24623C32.0651 1.11743 32.1483 0.938223 32.1564 0.748037C32.1644 0.557851 32.0966 0.372263 31.9678 0.232099C31.904 0.162696 31.8272 0.106535 31.7417 0.0668215C31.6562 0.0271078 31.5637 0.00461956 31.4696 0.00064052C31.2794 -0.00739551 31.0938 0.0604487 30.9536 0.189248L29.361 1.61046C27.7541 3.09594 27.3613 3.44589 26.99 3.5173C24.066 4.2819 21.3815 5.77026 19.184 7.8452L10.2211 16.4153C9.69422 17.024 9.41199 17.8065 9.42914 18.6114C9.44629 19.4163 9.76161 20.1861 10.314 20.7718L10.3925 20.8289L9.59267 21.5431C9.13182 21.9908 8.58041 22.3347 7.97556 22.5515C7.3707 22.7683 6.72642 22.853 6.08607 22.8C5.3823 22.798 4.68817 22.6363 4.05601 22.327C3.42384 22.0177 2.87013 21.569 2.43663 21.0146L1.44393 16.2225C1.40415 16.0331 1.29076 15.8672 1.1287 15.7614C0.966644 15.6556 0.76919 15.6185 0.579779 15.6583C0.390368 15.6981 0.224516 15.8114 0.118708 15.9735C0.0129003 16.1356 -0.0241958 16.333 0.0155805 16.5224L5.86467 44.2253H38.4453L43.2303 21.5074L44.2944 16.5224ZM37.2884 42.7969H7.02164L2.92227 23.3285C3.875 23.9115 4.96911 24.2227 6.08607 24.2284C6.7841 24.2386 7.48043 24.1569 8.15717 23.9856C8.15717 24.0427 8.15717 24.0998 8.15717 24.157C8.15688 24.5322 8.23052 24.9039 8.37389 25.2506C8.51727 25.5974 8.72756 25.9126 8.99276 26.1781C9.24966 26.4328 9.5526 26.6363 9.88548 26.778L8.72137 27.9278C8.45502 28.1923 8.24336 28.5066 8.0985 28.8529C7.95363 29.1992 7.87838 29.5706 7.87706 29.946C7.87438 30.704 8.17295 31.4321 8.70709 31.97C9.24123 32.508 9.96718 32.8117 10.7252 32.8143C11.1006 32.8157 11.4725 32.743 11.8198 32.6006C12.1671 32.4582 12.483 32.2488 12.7493 31.9843L13.4992 31.2701C13.2929 31.8022 13.2507 32.3838 13.378 32.9401C13.5053 33.4963 13.7962 34.0017 14.2134 34.3911C14.7427 34.8903 15.4426 35.1687 16.1702 35.1695H16.2559C16.6316 35.1596 17.0016 35.0756 17.3447 34.9224C17.6878 34.7692 17.9974 34.5498 18.2556 34.2768L27.1542 24.7283C26.9351 25.4955 26.9081 26.3049 27.0757 27.0851C27.1868 27.5161 27.3952 27.916 27.6849 28.2539C27.9746 28.5919 28.3379 28.859 28.7468 29.0348C29.0153 29.1629 29.3071 29.2347 29.6043 29.2458C29.9016 29.2568 30.1979 29.2069 30.4751 29.099C31.7607 28.592 32.4605 26.9565 32.9748 25.771C33.089 25.5067 33.1819 25.2711 33.2747 25.1068C33.5104 24.6569 33.9103 23.857 34.3674 22.8143C35.4483 23.7216 36.8127 24.2219 38.2239 24.2284C39.3409 24.2227 40.435 23.9115 41.3877 23.3285L37.2884 42.7969Z" fill="#B3C1C9"/>
</svg>
