<svg width="45" height="25" viewBox="0 0 45 25" fill="none" xmlns="http://www.w3.org/2000/svg">
<path d="M43.8406 0.0270195C43.4944 -0.0739547 43.1307 0.122975 43.0284 0.469799L41.8462 4.48556C41.8381 4.49246 41.8274 4.49434 41.8192 4.50187C40.188 6.01334 38.5297 6.77974 36.8897 6.77974C36.8847 6.77974 36.8797 6.77974 36.8746 6.77974C35.4265 6.77598 34.4124 6.17515 33.338 5.5392C32.1314 4.82486 30.8821 4.08543 29.0275 4.15316C27.3818 4.21211 26.4605 4.88067 25.6471 5.47084C24.8744 6.03153 24.2071 6.5157 22.9082 6.58344C21.4068 6.66183 20.4861 6.10491 19.418 5.45955C18.3148 4.7935 17.0643 4.03651 15.1069 4.06912C13.453 4.09546 12.4395 4.65364 11.4599 5.19363C10.553 5.69286 9.69567 6.16512 8.25946 6.25104C6.41684 6.36142 4.4701 5.77188 2.46944 4.50626L1.28095 0.469172C1.17872 0.122975 0.814966 -0.0745839 0.469397 0.0263902C0.1232 0.128619 -0.0749852 0.491751 0.0266161 0.837948L7.0001 24.5292C7.00198 24.5361 7.00637 24.5405 7.00888 24.5474C7.02895 24.6083 7.05529 24.666 7.09104 24.7174C7.09543 24.7237 7.10108 24.7287 7.10547 24.7349C7.13996 24.7807 7.1801 24.8215 7.22526 24.8566C7.23278 24.8629 7.23968 24.8692 7.24783 24.8754C7.29675 24.9106 7.35006 24.9375 7.40776 24.9582C7.41905 24.9626 7.43034 24.9651 7.44226 24.9689C7.50121 24.9864 7.56267 24.999 7.62727 24.999C7.62727 24.999 7.62727 24.999 7.6279 24.999H36.6827H36.6834C36.748 24.999 36.8088 24.9864 36.8677 24.9689C36.8797 24.9651 36.891 24.962 36.9022 24.9582C36.9593 24.9375 37.0126 24.9106 37.0615 24.8761C37.0697 24.8704 37.0772 24.8629 37.0847 24.8566C37.1293 24.8215 37.1688 24.782 37.2027 24.7368C37.2077 24.7299 37.2139 24.7243 37.219 24.7174C37.2541 24.6666 37.2804 24.6095 37.3005 24.5493C37.303 24.5424 37.308 24.5374 37.3099 24.5299L44.2834 0.838575C44.385 0.492378 44.1868 0.128621 43.8406 0.0270195ZM8.33785 7.5568C10.0688 7.45332 11.1432 6.86127 12.0908 6.33947C13.0077 5.8346 13.7999 5.39809 15.1282 5.37739C16.7131 5.34792 17.6977 5.94812 18.7426 6.57967C19.8903 7.2727 21.0807 7.98767 22.9772 7.88983C24.6618 7.8014 25.5931 7.12594 26.4154 6.5295C27.173 5.97948 27.8277 5.50471 29.0746 5.46018C30.5522 5.41001 31.5807 6.01836 32.6726 6.66434C33.7952 7.32914 35.0678 8.08174 36.8715 8.08739C36.8778 8.08739 36.8841 8.08739 36.8897 8.08739C38.3485 8.08739 39.7954 7.60384 41.2078 6.65431L36.1929 23.692H8.11646L3.00002 6.30811C4.8163 7.23444 6.60749 7.65966 8.33785 7.5568Z" fill="#B3C1C9"/>
</svg>
