<svg width="35" height="30" viewBox="0 0 35 30" fill="none" xmlns="http://www.w3.org/2000/svg">
<path d="M34.385 29.1346L17.7307 0.288462C17.6279 0.109947 17.4375 0 17.231 0C17.0245 0 16.8346 0.109947 16.7314 0.288462L0.0774354 29.1346C-0.0258118 29.3131 -0.0258118 29.533 0.0774354 29.7115C0.180288 29.8901 0.370626 30 0.57712 30H33.8854C34.0915 30 34.2818 29.8901 34.385 29.7115C34.4887 29.533 34.4887 29.3131 34.385 29.1346ZM28.0468 20.4638L19.6648 28.8462H13.6513L25.8459 16.6516L28.0468 20.4638ZM17.2314 1.73077L25.2489 15.6171L12.0198 28.8462H1.57649L17.2314 1.73077ZM21.2963 28.8462L28.6442 21.4983L32.8868 28.8462H21.2963Z" fill="#B3C1C9"/>
</svg>
