<svg width="22" height="18" viewBox="0 0 22 18" fill="none" xmlns="http://www.w3.org/2000/svg">
<rect x="0.5" y="1.04541" width="15.6038" height="15.6792" stroke="#B3C1C9"/>
<path d="M11.623 4.29822V14.0278H22.0004V4.29822H11.623ZM12.0381 4.76153H21.5853V13.5645H12.0381V4.76153ZM12.4532 5.22484V10.5023C12.4476 10.533 12.4476 10.5656 12.4532 10.5964V13.1012H21.1702V11.9791C21.1759 11.9483 21.1759 11.9157 21.1702 11.885V5.22484H12.4532ZM12.8683 5.68815H20.7551V11.3782L18.8288 9.22815C18.7826 9.17748 18.7178 9.15304 18.6537 9.163C18.6075 9.16843 18.5637 9.19195 18.5305 9.22815L17.6484 10.2127L15.5146 7.6138C15.4667 7.55588 15.3962 7.52783 15.3265 7.5414C15.2851 7.54774 15.247 7.56855 15.2162 7.59932L12.8683 10.0172V5.68815ZM18.8872 6.84644C18.5434 6.84644 18.2646 7.15772 18.2646 7.5414C18.2646 7.92509 18.5434 8.23637 18.8872 8.23637C19.2309 8.23637 19.5098 7.92509 19.5098 7.5414C19.5098 7.15772 19.2309 6.84644 18.8872 6.84644ZM15.3459 8.10607L17.3501 10.5457L16.8701 11.0814C16.7874 11.1737 16.7874 11.3221 16.8701 11.4144C16.9528 11.5067 17.0858 11.5067 17.1684 11.4144L17.7587 10.7484C17.7878 10.7285 17.8122 10.7013 17.83 10.6688L18.6797 9.72766L20.7551 12.0442V12.6378H12.8683V10.6615L15.3459 8.10607Z" fill="#B3C1C9"/>
<path d="M0.830078 4.29822V14.0278H11.2074V4.29822H0.830078ZM1.24517 4.76153H10.7923V13.5645H1.24517V4.76153ZM1.66027 5.22484V10.5023C1.65459 10.533 1.65459 10.5656 1.66027 10.5964V13.1012H10.3772V11.9791C10.3829 11.9483 10.3829 11.9157 10.3772 11.885V5.22484H1.66027ZM2.07536 5.68815H9.96215V11.3782L8.03586 9.22815C7.98964 9.17748 7.92479 9.15304 7.86074 9.163C7.81453 9.16843 7.77075 9.19195 7.73751 9.22815L6.85543 10.2127L4.72159 7.6138C4.67375 7.55588 4.60322 7.52783 4.5335 7.5414C4.49215 7.54774 4.45405 7.56855 4.42324 7.59932L2.07536 10.0172V5.68815ZM8.09423 6.84644C7.75048 6.84644 7.47159 7.15772 7.47159 7.5414C7.47159 7.92509 7.75048 8.23637 8.09423 8.23637C8.43798 8.23637 8.71687 7.92509 8.71687 7.5414C8.71687 7.15772 8.43798 6.84644 8.09423 6.84644ZM4.55296 8.10607L6.55708 10.5457L6.07713 11.0814C5.99444 11.1737 5.99444 11.3221 6.07713 11.4144C6.15982 11.5067 6.29278 11.5067 6.37548 11.4144L6.96569 10.7484C6.99488 10.7285 7.0192 10.7013 7.03704 10.6688L7.88668 9.72766L9.96215 12.0442V12.6378H2.07536V10.6615L4.55296 8.10607Z" fill="#B3C1C9"/>
</svg>
