<svg width="30" height="30" viewBox="0 0 30 30" fill="none" xmlns="http://www.w3.org/2000/svg">
<circle cx="15" cy="15" r="14.5" stroke="#253038"/>
<path d="M8.31583 9.77889C8.61 9.77889 8.84847 9.54042 8.84847 9.24625C8.84847 8.95209 8.61 8.71362 8.31583 8.71362C8.02167 8.71362 7.7832 8.95209 7.7832 9.24625C7.7832 9.54042 8.02167 9.77889 8.31583 9.77889Z" fill="#253038"/>
<path d="M9.96012 9.77889C10.2543 9.77889 10.4928 9.54042 10.4928 9.24625C10.4928 8.95209 10.2543 8.71362 9.96012 8.71362C9.66596 8.71362 9.42749 8.95209 9.42749 9.24625C9.42749 9.54042 9.66596 9.77889 9.96012 9.77889Z" fill="#253038"/>
<path d="M11.6274 9.77889C11.9215 9.77889 12.16 9.54042 12.16 9.24625C12.16 8.95209 11.9215 8.71362 11.6274 8.71362C11.3332 8.71362 11.0947 8.95209 11.0947 9.24625C11.0947 9.54042 11.3332 9.77889 11.6274 9.77889Z" fill="#253038"/>
<path d="M10.1221 19.6673C10.1221 19.922 10.3305 20.1304 10.5852 20.1304C10.84 20.1304 11.0484 19.922 11.0484 19.6673V15.9388H10.1221V19.6673Z" fill="#253038"/>
<path d="M11.6968 14.5495H11.0484V13.6464C11.0484 13.3916 10.84 13.1832 10.5852 13.1832C10.3305 13.1832 10.1221 13.3916 10.1221 13.6464V14.5495H9.47366C9.21892 14.5495 9.0105 14.758 9.0105 15.0127C9.0105 15.2674 9.21892 15.4759 9.47366 15.4759H11.6737C11.9284 15.4759 12.1368 15.2674 12.1368 15.0127C12.1368 14.758 11.9516 14.5495 11.6968 14.5495Z" fill="#253038"/>
<path d="M13.9202 19.6673C13.9202 19.9221 14.1286 20.1305 14.3833 20.1305C14.6381 20.1305 14.8465 19.9221 14.8465 19.6673V18.7642H13.9202V19.6673Z" fill="#253038"/>
<path d="M15.4715 17.3516H14.8231V13.6232C14.8231 13.3685 14.6146 13.16 14.3599 13.16C14.1052 13.16 13.8967 13.3685 13.8967 13.6232V17.3516H13.2483C12.9936 17.3516 12.7852 17.56 12.7852 17.8148C12.7852 18.0695 12.9936 18.2779 13.2483 18.2779H15.4483C15.7031 18.2779 15.9115 18.0695 15.9115 17.8148C15.9346 17.56 15.7262 17.3516 15.4715 17.3516Z" fill="#253038"/>
<path d="M28 11.6779C28 11.4463 27.9074 11.2147 27.7453 11.0526L26.3789 9.68632C26.0316 9.33895 25.4758 9.33895 25.1516 9.68632L24.4568 10.3811V8.18105C24.4568 7.53263 23.9242 7 23.2758 7H7.18105C6.53263 7 6 7.53263 6 8.18105V21.52C6 22.1684 6.53263 22.7011 7.18105 22.7011H23.2526C23.9011 22.7011 24.4337 22.1684 24.4337 21.52V15.5916L27.7221 12.3032C27.9074 12.1411 28 11.9095 28 11.6779ZM19.7558 18.9958L18.0653 19.4589L18.4589 17.7221L18.9916 17.1895L20.2884 18.4863L19.7558 18.9958ZM20.9368 17.7916L19.64 16.4947L24.2021 11.8863L25.5221 13.2063L20.9368 17.7916ZM7.18105 7.92632H23.2526C23.3916 7.92632 23.5305 8.04211 23.5305 8.20421V10.5663H6.92632V8.20421C6.92632 8.06526 7.04211 7.92632 7.18105 7.92632ZM23.5305 21.5432C23.5305 21.6821 23.4147 21.8211 23.2526 21.8211H7.18105C7.04211 21.8211 6.90316 21.7053 6.90316 21.5432V11.4926H23.3221L17.7642 17.0505C17.6484 17.1663 17.5789 17.3053 17.5326 17.4674L17.1389 19.2274C17.0695 19.5284 17.1621 19.8295 17.3705 20.0379C17.5326 20.2 17.7642 20.2926 17.9958 20.2926C18.0653 20.2926 18.1347 20.2926 18.1811 20.2695L19.9411 19.8758C20.1032 19.8295 20.2421 19.76 20.3579 19.6442L23.4842 16.5179V21.5432H23.5305ZM26.1705 12.5579L24.8505 11.2379L25.7305 10.3579L27.0968 11.6547L26.1705 12.5579Z" fill="#253038"/>
</svg>
