<svg width="15" height="16" viewBox="0 0 15 16" fill="none" xmlns="http://www.w3.org/2000/svg">
<path d="M13.9158 3.61074C13.14 2.33476 11.9773 1.29032 10.6168 0.675144C9.1617 0.0177188 7.53081 -0.166495 5.96583 0.152922C4.49043 0.453749 3.11474 1.22441 2.07537 2.31279C1.03092 3.40624 0.322797 4.81405 0.0929521 6.30973C0.0321107 6.70351 0 7.10067 0 7.49952C0 9.04252 0.476591 10.5771 1.37569 11.8328C2.26465 13.075 3.50345 14.0264 4.93829 14.5537C6.40862 15.0929 8.05641 15.1452 9.56054 14.716C11.0021 14.3036 12.317 13.4485 13.2702 12.2891C14.2589 11.0892 14.8554 9.61882 14.9771 8.06737C15.1005 6.51929 14.7219 4.93742 13.9158 3.61074ZM9.84109 5.86187L8.21358 7.48938L9.85123 9.12702C10.0523 9.32814 10.0371 9.64079 9.85123 9.8436C9.66702 10.0464 9.32225 10.0312 9.13465 9.8436L7.49701 8.20595L5.85936 9.8436C5.65825 10.0447 5.34559 10.0295 5.14279 9.8436C4.93998 9.65938 4.95519 9.31462 5.14279 9.12702L6.78043 7.48938L5.15293 5.86187C4.95181 5.66076 4.96702 5.3481 5.15293 5.14529C5.33714 4.94249 5.68191 4.9577 5.8695 5.14529L7.49701 6.7728L9.12452 5.14529C9.32563 4.94418 9.63829 4.95939 9.84109 5.14529C10.0439 5.32951 10.0287 5.67428 9.84109 5.86187Z" fill="#475E6D"/>
</svg>
