<svg width="30" height="30" viewBox="0 0 30 30" fill="none" xmlns="http://www.w3.org/2000/svg">
<path d="M24.8998 10.1687L23.9698 8.62703C23.8869 8.48972 23.7382 8.40574 23.5777 8.40574H17.9288C17.7683 8.40574 17.6196 8.48972 17.5368 8.62703L16.577 10.2182C16.5736 10.2237 16.5724 10.2301 16.5694 10.2358C16.5559 10.2603 16.5449 10.2857 16.536 10.3127C16.5326 10.3228 16.5294 10.3324 16.5266 10.3427C16.5193 10.3722 16.5147 10.4026 16.5131 10.434C16.5129 10.4397 16.5115 10.4452 16.5115 10.4509C16.5115 10.452 16.5111 10.4534 16.5111 10.4546V11.9123L13.9208 9.54835C13.5142 9.06252 12.8903 8.79591 12.2283 8.8783C11.1768 9.00897 10.4305 9.96736 10.5609 11.0189L11.2946 17.0645L10.0081 20.357L6.07265 20.501C5.44814 20.5591 4.97283 21.0969 5.00121 21.7299C5.03073 22.3823 5.58338 22.8871 6.27403 22.8562L11.6548 22.607L13.4359 18.37L16.6401 20.8255L17.394 24.6982C17.545 25.3067 18.1485 25.6957 18.77 25.5726C19.4107 25.4456 19.8266 24.8236 19.6922 24.1451L18.6956 19.3737L15.0961 16.6445L14.6595 13.048L16.5113 14.6779V16.1896C16.5113 16.4422 16.7164 16.6473 16.969 16.6473H24.5377C24.7904 16.6473 24.9954 16.4422 24.9954 16.1896V10.4987C24.997 10.4841 25 10.4697 25 10.4543C24.9998 10.3463 24.9625 10.247 24.8998 10.1687ZM21.2111 9.32111H23.3194L23.7269 9.99688H21.2111V9.32111ZM18.1871 9.32111H20.2959V9.99688H17.7793L18.1871 9.32111ZM24.0798 15.7317H17.4265V14.879L20.3808 14.8838L20.4945 14.8831C21.1017 14.8726 21.5591 14.3994 21.5493 13.8254C21.5397 13.2684 21.0932 12.8226 20.5424 12.8057L17.4848 12.8009L17.4265 12.7478V10.9123H24.0798V15.7317V15.7317ZM13.7819 8.64533C14.7847 8.77051 15.6989 8.05927 15.8241 7.05648C15.9493 6.05369 15.2378 5.13946 14.2352 5.01429C13.2327 4.88911 12.3182 5.60035 12.1928 6.60314C12.0679 7.6057 12.7791 8.52016 13.7819 8.64533Z" fill="#253038"/>
<circle cx="15" cy="15" r="14.5" stroke="#253038"/>
</svg>
