<svg width="26" height="23" viewBox="0 0 26 23" fill="none" xmlns="http://www.w3.org/2000/svg">
<path d="M2.03634 10.7362C1.23447 9.59028 0.883649 8.14544 1.034 6.60096C1.3347 3.61163 3.79044 1.27 6.74734 1.02089C9.20308 0.821597 11.4082 2.06715 12.611 3.96039C12.8115 4.25932 13.2626 4.25932 13.463 3.96039C14.6658 2.06715 16.8209 0.821597 19.3267 1.02089C22.2836 1.27 24.7394 3.66145 25.0401 6.60096C25.1904 8.14544 24.7895 9.6401 23.9375 10.786L23.8874 10.8358L13.5131 22.1953C13.2626 22.544 12.7614 22.544 12.4607 22.1953L2.13657 10.8857L2.03634 10.7362Z" fill="#EA8439"/>
<path fill-rule="evenodd" clip-rule="evenodd" d="M19.2859 1.51926C16.9792 1.33624 14.9961 2.47977 13.885 4.22855L13.8784 4.239L13.8783 4.23891C13.4797 4.8332 12.5943 4.8332 12.1957 4.23891L12.1888 4.22863L12.189 4.22855C11.0788 2.48109 9.04635 1.33629 6.78853 1.51922C4.06588 1.74897 1.80785 3.90739 1.53154 6.65024C1.39161 8.08947 1.72005 9.41219 2.44597 10.4496L2.45166 10.4577L2.45158 10.4577L2.53101 10.5762L12.8299 21.8582L12.8393 21.8688C12.8985 21.9375 12.9627 21.9569 13.0057 21.9569C13.0457 21.9569 13.0796 21.9418 13.1071 21.9035C13.1184 21.8877 13.1308 21.8725 13.1439 21.8581L23.5181 10.4987C23.5236 10.4928 23.5291 10.4869 23.5348 10.4813L23.5578 10.4584C24.3157 9.42301 24.6801 8.0666 24.5425 6.65052C24.266 3.95409 22.005 1.74892 19.2859 1.51926ZM13.047 3.68281C14.3426 1.65071 16.666 0.307745 19.3663 0.522498L19.3687 0.522684C22.5624 0.791748 25.212 3.36854 25.5374 6.55011L25.5377 6.55255C25.6992 8.21165 25.2699 9.83188 24.3387 11.0844C24.3239 11.1043 24.3076 11.1231 24.29 11.1406L24.2484 11.182L13.8996 22.5136C13.4297 23.1326 12.562 23.0716 12.0872 22.5278L1.76727 11.2228C1.75051 11.2044 1.73513 11.1848 1.72128 11.1642L1.62374 11.0187C0.748138 9.76517 0.375937 8.20015 0.536326 6.55255L0.536484 6.55095C0.861916 3.31579 3.51479 0.791484 6.70534 0.522689L6.70687 0.522562C9.35609 0.307573 11.7304 1.6493 13.027 3.68281C13.0282 3.68339 13.0317 3.68463 13.037 3.68463C13.0423 3.68463 13.0458 3.68339 13.047 3.68281Z" fill="#EA8439"/>
</svg>
