<svg width="24" height="24" viewBox="0 0 24 24" fill="none" xmlns="http://www.w3.org/2000/svg">
<path fill-rule="evenodd" clip-rule="evenodd" d="M11.9816 0.979167C11.8393 0.979167 11.6974 1.01185 11.567 1.07813L1.48291 7.11469C1.17387 7.2712 0.979167 7.58881 0.979167 7.93589L0.979606 23.0208H10.1632V15.6558L13.8368 15.654V23.0208H23.0208V7.93681C23.0208 7.58927 22.8257 7.2712 22.5162 7.11469L12.3954 1.07767C12.2654 1.01185 12.1235 0.979167 11.9816 0.979167Z" fill="#EA8439"/>
<path fill-rule="evenodd" clip-rule="evenodd" d="M11.3499 0.650977C11.5492 0.54966 11.7657 0.5 11.9816 0.5C12.1971 0.5 12.4133 0.549639 12.6119 0.650216C12.6217 0.655195 12.6314 0.660512 12.6408 0.666157L22.7488 6.69551C23.2106 6.9367 23.5 7.41532 23.5 7.93681V23.0208C23.5 23.2855 23.2855 23.5 23.0208 23.5H13.8368C13.5722 23.5 13.3576 23.2855 13.3576 23.0208V16.1334L10.6424 16.1347V23.0208C10.6424 23.2855 10.4278 23.5 10.1632 23.5H0.979606C0.714999 23.5 0.500482 23.2855 0.500439 23.0209L0.5 7.93589C0.5 7.41508 0.788732 6.93704 1.24981 6.69577L11.3209 0.667003C11.3303 0.661328 11.34 0.655983 11.3499 0.650977ZM11.7962 1.49935L1.72902 7.52582C1.71934 7.53162 1.70946 7.53707 1.69939 7.54216C1.55206 7.61678 1.45833 7.76877 1.45833 7.93589L1.4587 22.5417H9.68403V15.6558C9.68403 15.3913 9.89841 15.1768 10.163 15.1766L13.8366 15.1748C13.9637 15.1747 14.0856 15.2252 14.1755 15.315C14.2655 15.4049 14.316 15.5268 14.316 15.654V22.5417H22.5417V7.93681C22.5417 7.76937 22.4476 7.61697 22.2999 7.54229C22.29 7.53727 22.2803 7.53191 22.2707 7.52621L12.1667 1.49923C12.1087 1.47207 12.0455 1.45833 11.9816 1.45833C11.9174 1.45833 11.8544 1.47205 11.7962 1.49935Z" fill="#EA8439"/>
</svg>
