<svg width="25" height="25" viewBox="0 0 25 25" fill="none" xmlns="http://www.w3.org/2000/svg">
<path fill-rule="evenodd" clip-rule="evenodd" d="M11.8216 0.657541C12.0296 0.551819 12.2555 0.5 12.4808 0.5C12.7056 0.5 12.9313 0.551797 13.1385 0.656747C13.1488 0.661942 13.1588 0.667491 13.1687 0.673381L23.7161 6.96488C24.198 7.21655 24.5 7.71599 24.5 8.26015V24C24.5 24.2761 24.2761 24.5 24 24.5H14.4167C14.1405 24.5 13.9167 24.2761 13.9167 24V16.8131L11.0833 16.8145V24C11.0833 24.2761 10.8595 24.5 10.5833 24.5H1.00046C0.724347 24.5 0.500503 24.2762 0.500459 24.0001L0.5 8.25919C0.5 7.71573 0.801286 7.21691 1.28241 6.96515L11.7913 0.674264C11.8012 0.668342 11.8113 0.662765 11.8216 0.657541ZM12.2874 1.5428L1.78246 7.83129C1.77236 7.83734 1.76205 7.84303 1.75154 7.84835C1.5978 7.92621 1.5 8.08481 1.5 8.25919L1.50038 23.5H10.0833V16.3148C10.0833 16.0387 10.307 15.8149 10.5831 15.8148L14.4164 15.8128C14.5491 15.8128 14.6763 15.8654 14.7701 15.9592C14.864 16.053 14.9167 16.1802 14.9167 16.3128V23.5H23.5V8.26015C23.5 8.08543 23.4019 7.92641 23.2478 7.84848C23.2374 7.84324 23.2272 7.83764 23.2173 7.83169L12.674 1.54267C12.6134 1.51433 12.5475 1.5 12.4808 1.5C12.4138 1.5 12.3481 1.51431 12.2874 1.5428Z" fill="#B3C1C9"/>
</svg>
