<svg width="22" height="16" viewBox="0 0 22 16" fill="none" xmlns="http://www.w3.org/2000/svg">
<path d="M2.03401 12.2061L10.1164 4.13905C10.1164 4.13905 11.3762 2.64395 13.0186 6.45839C13.0186 6.45839 13.0828 6.40384 13.8781 5.70919C14.1412 5.47954 14.7955 5.2734 16.5239 8.29072C16.5239 8.29072 17.9484 10.7189 20.1442 10.969V13.3182H2.01562L2.03401 12.2061Z" fill="#B3C1C9"/>
<path d="M4.97153 5.86615C5.99781 5.86615 6.82977 5.03419 6.82977 4.00791C6.82977 2.98162 5.99781 2.14966 4.97153 2.14966C3.94525 2.14966 3.11328 2.98162 3.11328 4.00791C3.11328 5.03419 3.94525 5.86615 4.97153 5.86615Z" fill="#B3C1C9"/>
<path d="M16.72 6.52013L18.5295 6.51742V6.5141L18.5484 6.51742C18.8188 6.51742 19.0291 6.34805 19.0291 6.07742C19.0291 5.89418 18.9215 5.73627 18.7724 5.65218C18.735 5.27336 18.4161 4.97742 18.028 4.97742C17.7158 4.97742 17.4484 5.16849 17.336 5.44002C17.2917 5.41169 17.239 5.39421 17.1823 5.39421C17.0247 5.39421 16.8969 5.52199 16.8969 5.67961L16.8987 5.6992C16.8623 5.68775 16.8243 5.68021 16.7839 5.68021C16.5645 5.68021 16.3867 5.88394 16.3867 6.10333C16.3867 6.30073 16.5308 6.52013 16.7185 6.52013H16.72H16.7188Z" fill="#B3C1C9"/>
<path d="M21.3364 0H16.9457H15.9244H9.80055H6.66721H1.26485H0V0.465616V1.78682V2.80816V14.0622V15.0685H1.26485H6.00238H9.13603H21.3364H22V14.0622V0.465616V0H21.3364ZM21.0959 14.1644H12.0054H8.83345H0.90411V0.90411H3.4757H6.64732H16.1812H17.2152H21.0959V14.1644Z" fill="#B3C1C9"/>
</svg>
