<svg width="19" height="28" viewBox="0 0 19 28" fill="none" xmlns="http://www.w3.org/2000/svg">
<path fill-rule="evenodd" clip-rule="evenodd" d="M9.47059 1.5C5.0992 1.5 1.5 5.15271 1.5 9.694C1.5 10.6099 1.84143 11.9081 2.42407 13.4312C3.00123 14.9399 3.79434 16.6174 4.65334 18.2724C6.37103 21.5818 8.33422 24.767 9.30789 26.2702L9.3147 26.2807L9.31457 26.2808C9.3842 26.3944 9.55698 26.3944 9.62661 26.2808L9.63316 26.2701L9.63329 26.2702C10.607 24.767 12.5701 21.5818 14.2878 18.2724C15.1468 16.6174 15.9399 14.9399 16.5171 13.4312C17.0998 11.9081 17.4412 10.6099 17.4412 9.694C17.4412 5.15271 13.842 1.5 9.47059 1.5ZM0.5 9.694C0.5 4.62329 4.52433 0.5 9.47059 0.5C14.4168 0.5 18.4412 4.62329 18.4412 9.694C18.4412 10.8031 18.0414 12.2454 17.4511 13.7885C16.8553 15.346 16.0436 17.0604 15.1754 18.7331C13.4404 22.0758 11.4617 25.2865 10.4756 26.8092C10.0149 27.5516 8.92632 27.5516 8.46562 26.8092C7.47946 25.2865 5.50076 22.0758 3.76577 18.7331C2.89757 17.0604 2.0859 15.346 1.49008 13.7885C0.899751 12.2454 0.5 10.8031 0.5 9.694ZM9.46182 7.27802C8.22174 7.28297 7.16471 8.3378 7.16471 9.694C7.16471 11.0534 8.22673 12.11 9.47059 12.11C10.7145 12.11 11.7765 11.0534 11.7765 9.694C11.7765 8.40144 10.7252 7.32725 9.46182 7.27802ZM6.16471 9.694C6.16471 7.8134 7.64386 6.278 9.47059 6.278H9.47938L9.48816 6.27831C11.2915 6.34173 12.7765 7.85756 12.7765 9.694C12.7765 11.5746 11.2973 13.11 9.47059 13.11C7.64386 13.11 6.16471 11.5746 6.16471 9.694Z" fill="#B3C1C9"/>
</svg>
