<svg width="26" height="26" viewBox="0 0 26 26" fill="none" xmlns="http://www.w3.org/2000/svg">
<path d="M12.6889 0C5.73894 0 0.105308 5.6005 0.105308 12.5095C0.105308 14.7079 0.68445 16.7492 1.63217 18.5288L0 25.1237L5.94955 23.0824C7.89764 24.2863 10.2143 25.0191 12.6889 25.0191C19.6388 25.0191 25.2725 19.4186 25.2725 12.5095C25.2725 5.6005 19.6388 0 12.6889 0ZM8.26621 14.0274H16.6904H8.26621ZM8.26621 11.044H16.6904H8.26621Z" fill="#EA8439"/>
<path fill-rule="evenodd" clip-rule="evenodd" d="M17 11.709H8V10.709H17V11.709Z" fill="white"/>
<path fill-rule="evenodd" clip-rule="evenodd" d="M17 14.709L8 14.709V13.709L17 13.709V14.709Z" fill="white"/>
</svg>
