<svg width="26" height="26" viewBox="0 0 26 26" fill="none" xmlns="http://www.w3.org/2000/svg">
<path fill-rule="evenodd" clip-rule="evenodd" d="M0.600254 12.9075C0.600254 6.05204 6.1894 0.5 13.0782 0.5C19.967 0.5 25.5562 6.05204 25.5562 12.9075C25.5562 19.7629 19.967 25.3149 13.0782 25.3149C10.7091 25.3149 8.48881 24.638 6.60433 23.5204L1.16228 25.3875C0.989124 25.4469 0.797345 25.407 0.662336 25.2833C0.527328 25.1597 0.470678 24.9722 0.514657 24.7945L2.02274 18.7009C1.13876 16.9818 0.600254 15.0189 0.600254 12.9075ZM13.0782 1.5C6.73611 1.5 1.60025 6.60988 1.60025 12.9075C1.60025 14.9107 2.12778 16.7736 2.99495 18.402C3.05294 18.5109 3.06862 18.6374 3.03898 18.7571L1.70586 24.1438L6.50096 22.4986C6.64264 22.45 6.79865 22.4675 6.92607 22.5462C8.70735 23.647 10.8223 24.3149 13.0782 24.3149C19.4203 24.3149 24.5562 19.2051 24.5562 12.9075C24.5562 6.60988 19.4203 1.5 13.0782 1.5ZM8.36839 11.5125C8.36839 11.2363 8.59224 11.0125 8.86839 11.0125H16.8871C17.1632 11.0125 17.3871 11.2363 17.3871 11.5125C17.3871 11.7886 17.1632 12.0125 16.8871 12.0125H8.86839C8.59224 12.0125 8.36839 11.7886 8.36839 11.5125ZM8.36839 14.3523C8.36839 14.0762 8.59224 13.8523 8.86839 13.8523H16.8871C17.1632 13.8523 17.3871 14.0762 17.3871 14.3523C17.3871 14.6285 17.1632 14.8523 16.8871 14.8523H8.86839C8.59224 14.8523 8.36839 14.6285 8.36839 14.3523Z" fill="#B3C1C9"/>
</svg>
