<svg width="30" height="30" viewBox="0 0 30 30" fill="none" xmlns="http://www.w3.org/2000/svg">
<path d="M16.9312 6.00042C16.6772 5.99303 16.4984 6.08331 16.3521 6.17874C16.157 6.30597 16.0091 6.42976 15.646 6.42976C15.283 6.42976 15.1352 6.30596 14.9401 6.17874C14.7938 6.08331 14.6149 5.99316 14.3609 6.00054C14.2763 6.00301 14.1833 6.01631 14.0803 6.04388C13.6687 6.15419 13.5086 6.38288 13.4033 6.59059C13.298 6.7983 13.2318 6.97942 12.9174 7.16092C12.603 7.34244 12.4131 7.30917 12.1805 7.2965C11.948 7.28383 11.6699 7.30823 11.3685 7.60958C11.0672 7.91095 11.0429 8.18905 11.0556 8.42158C11.0682 8.6541 11.1014 8.84408 10.9199 9.15848C10.7384 9.47289 10.5573 9.53905 10.3495 9.64433C10.1418 9.74963 9.91316 9.90969 9.80284 10.3214C9.69253 10.7331 9.81057 10.9861 9.9378 11.1812C10.065 11.3762 10.1887 11.524 10.1887 11.8871C10.1887 12.2501 10.065 12.3981 9.9378 12.5931C9.81057 12.7882 9.69253 13.0411 9.80284 13.4528C9.91315 13.8645 10.1418 14.0247 10.3495 14.1299C10.5573 14.2352 10.7384 14.3014 10.9199 14.6158C11.1014 14.9302 11.0682 15.1202 11.0556 15.3527C11.0429 15.5852 11.0672 15.8633 11.3685 16.1647C11.6699 16.4661 11.948 16.4904 12.1805 16.4777C12.4131 16.465 12.603 16.4319 12.9174 16.6134C13.2318 16.7949 13.298 16.976 13.4033 17.1837C13.5086 17.3914 13.6687 17.6201 14.0803 17.7304C14.492 17.8407 14.7451 17.7227 14.9401 17.5954C15.1352 17.4682 15.283 17.3445 15.646 17.3445C16.0091 17.3445 16.157 17.4682 16.3521 17.5954C16.5471 17.7227 16.8001 17.8407 17.2117 17.7304C17.6234 17.6201 17.7836 17.3914 17.8889 17.1837C17.9942 16.976 18.0604 16.7949 18.3748 16.6134C18.6892 16.4319 18.8791 16.465 19.1117 16.4777C19.3442 16.4904 19.6223 16.466 19.9237 16.1647C20.225 15.8633 20.2493 15.5852 20.2366 15.3527C20.224 15.1202 20.1908 14.9302 20.3723 14.6158C20.5538 14.3014 20.7349 14.2352 20.9426 14.1299C21.1504 14.0247 21.379 13.8645 21.4894 13.4528C21.5997 13.0411 21.4816 12.7881 21.3544 12.5931C21.2272 12.3981 21.1035 12.2501 21.1035 11.8871C21.1035 11.524 21.2271 11.3762 21.3544 11.1812C21.4816 10.9861 21.5997 10.7331 21.4894 10.3214C21.379 9.90969 21.1504 9.74964 20.9426 9.64433C20.7349 9.53904 20.5538 9.47288 20.3723 9.15848C20.1908 8.84408 20.224 8.65412 20.2366 8.42158C20.2493 8.18905 20.225 7.91095 19.9237 7.60958C19.6223 7.30821 19.3442 7.28383 19.1117 7.2965C18.8791 7.30917 18.6892 7.34244 18.3748 7.16092C18.0604 6.9794 17.9942 6.7983 17.8889 6.59059C17.7836 6.38288 17.6234 6.15421 17.2117 6.04388C17.1088 6.01631 17.0158 6.00289 16.9312 6.00042V6.00042ZM16.8746 6.25036C16.948 6.25029 17.0352 6.26302 17.1452 6.29249C17.4972 6.38682 17.5606 6.51254 17.6592 6.70695C17.7577 6.90136 17.8757 7.17009 18.246 7.3839C18.6163 7.59771 18.908 7.56552 19.1256 7.55367C19.3433 7.54182 19.4839 7.53391 19.7416 7.79162C19.9993 8.04932 19.9914 8.18997 19.9796 8.40761C19.9677 8.62525 19.9355 8.91688 20.1493 9.28723C20.3632 9.65755 20.6318 9.7754 20.8262 9.87396C21.0206 9.97251 21.1463 10.036 21.2406 10.3881C21.335 10.7401 21.2579 10.8579 21.1388 11.0405C21.0197 11.223 20.846 11.4595 20.846 11.8871C20.846 12.3147 21.0197 12.5512 21.1388 12.7337C21.2579 12.9163 21.335 13.0342 21.2406 13.3862C21.1463 13.7382 21.0206 13.8017 20.8262 13.9002C20.6318 13.9988 20.3632 14.1167 20.1493 14.4871C19.9355 14.8574 19.9677 15.149 19.9796 15.3666C19.9914 15.5843 19.9993 15.7249 19.7416 15.9826C19.4839 16.2404 19.3433 16.2325 19.1256 16.2206C18.908 16.2089 18.6164 16.1766 18.246 16.3904C17.8757 16.6042 17.7578 16.8728 17.6592 17.0672C17.5606 17.2616 17.4972 17.3874 17.1452 17.4817C16.7931 17.576 16.6753 17.4988 16.4928 17.3798C16.3102 17.2607 16.0737 17.087 15.646 17.087C15.2184 17.087 14.982 17.2607 14.7994 17.3798C14.6169 17.4989 14.499 17.576 14.147 17.4817C13.795 17.3874 13.7315 17.2616 13.6329 17.0672C13.5343 16.8728 13.4165 16.6042 13.0462 16.3904C12.6758 16.1766 12.3842 16.2088 12.1666 16.2206C11.9489 16.2325 11.8083 16.2403 11.5506 15.9826C11.2929 15.7249 11.3007 15.5843 11.3126 15.3666C11.3245 15.149 11.3567 14.8574 11.1428 14.4871C10.929 14.1167 10.6604 13.9988 10.466 13.9002C10.2716 13.8017 10.1459 13.7382 10.0515 13.3862C9.95722 13.0342 10.0343 12.9162 10.1534 12.7337C10.2725 12.5512 10.4462 12.3147 10.4462 11.8871C10.4462 11.4595 10.2725 11.223 10.1534 11.0405C10.0343 10.8579 9.95722 10.7401 10.0515 10.3881C10.1459 10.036 10.2716 9.9725 10.466 9.87396C10.6604 9.77541 10.929 9.65755 11.1428 9.28723C11.3567 8.9169 11.3245 8.62525 11.3126 8.40761C11.3008 8.18997 11.2929 8.04932 11.5506 7.79162C11.8083 7.53391 11.9489 7.5418 12.1666 7.55367C12.3842 7.56551 12.6758 7.59771 13.0462 7.3839C13.4165 7.17009 13.5343 6.90137 13.6329 6.70695C13.7314 6.51254 13.795 6.38682 14.147 6.29249C14.235 6.26891 14.3084 6.25615 14.3718 6.25197C14.562 6.23946 14.6625 6.30516 14.7994 6.39447C14.982 6.51356 15.2184 6.68726 15.646 6.68726C16.0736 6.68726 16.3102 6.51357 16.4927 6.39447C16.6182 6.3126 16.7132 6.25052 16.8746 6.25036H16.8746ZM14.4976 9.30779C13.9344 9.30779 13.475 9.76717 13.475 10.3304C13.475 10.8937 13.9344 11.353 14.4976 11.353C15.0609 11.353 15.5202 10.8937 15.5202 10.3304C15.5202 9.76717 15.0609 9.30779 14.4976 9.30779ZM17.2416 9.48511L13.707 14.1634L13.9125 14.3186L17.4471 9.64048L17.2416 9.4852V9.48511ZM14.4976 9.56527C14.9217 9.56527 15.2628 9.90631 15.2628 10.3304C15.2628 10.7545 14.9217 11.0956 14.4976 11.0956C14.0735 11.0956 13.7325 10.7545 13.7325 10.3304C13.7325 9.90631 14.0735 9.56527 14.4976 9.56527ZM16.6809 12.6346C16.1176 12.6346 15.6582 13.094 15.6582 13.6572C15.6582 14.2205 16.1176 14.6798 16.6809 14.6798C17.2441 14.6798 17.7035 14.2205 17.7035 13.6572C17.7035 13.094 17.2441 12.6346 16.6809 12.6346ZM16.6809 12.892C17.105 12.892 17.446 13.2331 17.446 13.6572C17.446 14.0813 17.105 14.4223 16.6809 14.4223C16.2568 14.4223 15.9157 14.0813 15.9157 13.6572C15.9157 13.2331 16.2567 12.892 16.6809 12.892ZM7.10852 17.4322C6.9715 17.4322 6.85718 17.5466 6.85718 17.6836V24.6058C6.85718 24.7429 6.97149 24.8571 7.10852 24.8571H9.70328C9.8403 24.8571 9.95462 24.7429 9.95462 24.6058V23.1466C10.2708 22.9025 10.7132 22.8541 11.2537 22.9308C11.8199 23.0111 12.4794 23.2286 13.1581 23.4689C14.5155 23.9496 15.9439 24.5394 16.9852 24.2226C18.4901 23.7649 20.2193 22.6302 21.5816 21.6104C22.9438 20.5906 23.9366 19.6828 23.9366 19.6828C23.9617 19.6599 23.9767 19.6279 23.9784 19.594C23.98 19.56 23.9681 19.5268 23.9454 19.5015C23.5243 19.0347 23.1247 18.7994 22.7194 18.7521C22.3141 18.7048 21.9226 18.8452 21.5169 19.0755C20.7354 19.5192 19.8657 20.304 18.6423 20.9372C18.56 20.4094 18.2938 20.0452 17.9138 19.8253C17.4963 19.5837 16.9648 19.4895 16.4018 19.4233C15.2758 19.2909 14.0246 19.2635 13.3268 18.6181C12.9229 18.2445 12.3593 18.1196 11.7763 18.1149C11.1516 18.1098 10.4979 18.2425 9.95465 18.3821V17.6835C9.95465 17.5465 9.84034 17.4321 9.70331 17.4321H7.10854L7.10852 17.4322ZM7.11465 17.6897H9.69713V18.5478C9.69712 18.5485 9.69712 18.5492 9.69713 18.5499V23.086V24.6007H7.11465V17.6906V17.6897ZM11.7742 18.3724C12.3214 18.3769 12.8154 18.496 13.152 18.8073C13.9557 19.5508 15.2663 19.5492 16.3715 19.6791C16.9242 19.7441 17.4256 19.8403 17.7847 20.0481C18.1109 20.2369 18.3212 20.5148 18.39 20.9746C17.8848 20.9887 17.4218 21.0009 16.9606 21.0114C16.4332 21.0237 15.8942 21.0343 15.2545 21.0454V21.0455C15.2538 21.0455 15.2535 21.0455 15.2527 21.0455C15.219 21.0469 15.1871 21.0615 15.164 21.0861C15.1409 21.1108 15.1284 21.1435 15.1292 21.1773C15.13 21.211 15.1441 21.2432 15.1683 21.2667C15.1926 21.2902 15.2252 21.3032 15.2589 21.3029C15.8983 21.2916 16.4371 21.2809 16.9644 21.2689H16.9665C16.9668 21.2689 16.9671 21.2689 16.9675 21.2689C17.5679 21.2644 18.0148 21.2689 18.5637 21.2552C18.5825 21.2548 18.601 21.2502 18.6178 21.2419C19.9531 20.5795 20.878 19.7344 21.6439 19.2996C22.0268 19.0823 22.3615 18.9698 22.6894 19.0081C22.9907 19.0433 23.3048 19.2153 23.6606 19.582C23.5238 19.7058 22.6744 20.4708 21.4272 21.4045C20.0756 22.4163 18.3539 23.5374 16.9102 23.9765C16.0242 24.246 14.6075 23.7093 13.2439 23.2265C12.562 22.985 11.892 22.7615 11.2898 22.6761C10.7882 22.605 10.3253 22.6328 9.95449 22.8418V18.6517C10.5014 18.5083 11.1618 18.3676 11.7741 18.3726L11.7742 18.3724Z" stroke="black" stroke-width="0.5"/>
<circle cx="15" cy="15" r="14.5" stroke="#253038"/>
</svg>
