<svg width="17" height="23" viewBox="0 0 17 23" fill="none" xmlns="http://www.w3.org/2000/svg">
<path d="M0 0V22.1H16.575V0H0ZM0.690625 0.690625H15.8844V21.4094H0.690625V0.690625ZM4.13305 6.34512C4.07262 6.34512 4.01426 6.36894 3.97109 6.42074L1.03594 10.095V21.0641H15.5391V20.4489L4.30018 6.42057C4.25701 6.36877 4.1933 6.34494 4.13287 6.34494L4.13305 6.34512ZM12.4205 8.41699C12.3601 8.41699 12.3018 8.44082 12.2586 8.49262L9.45828 11.9943L15.5391 19.5965V12.1776L12.5877 8.49244C12.5445 8.44065 12.4808 8.41682 12.4204 8.41682L12.4205 8.41699Z" fill="#B3C1C9"/>
</svg>
