<svg width="30" height="30" viewBox="0 0 30 30" fill="none" xmlns="http://www.w3.org/2000/svg">
<circle cx="15" cy="15" r="14.5" stroke="#253038"/>
<path d="M10.0327 5.13514L7.98561 10.7748C7.96258 10.8383 7.96711 10.9064 7.9932 10.9664L13.0827 21.8561C13.1411 21.981 13.2914 22.0356 13.4164 21.9772L21.1032 18.3847C21.1649 18.3539 21.2097 18.3036 21.2319 18.2425C21.2541 18.1815 21.2519 18.1142 21.2243 18.051L16.1348 7.16129C16.1055 7.10279 16.0562 7.05561 15.9927 7.03258L10.353 4.98545C10.2238 4.93854 10.0797 5.0059 10.0327 5.13514ZM13.0893 9.17006C12.8538 9.81862 12.1364 10.1539 11.4878 9.91851C10.8393 9.68309 10.504 8.96565 10.7394 8.31709C10.9748 7.66852 11.6922 7.33321 12.3408 7.56863C12.9894 7.80405 13.3247 8.52149 13.0893 9.17006Z" fill="#253038"/>
</svg>
