<svg width="21" height="27" viewBox="0 0 21 27" fill="none" xmlns="http://www.w3.org/2000/svg">
<path fill-rule="evenodd" clip-rule="evenodd" d="M10.839 14.4194C14.2343 14.086 16.8871 11.2356 16.8871 7.72598C16.8871 3.98932 13.88 1 10.1714 1C6.46272 1 3.45569 3.98932 3.45569 7.72598C3.45569 11.2648 6.15277 14.1334 9.58862 14.4272C4.79429 14.7801 1 18.8177 1 23.7188V25.911L19.5433 25.8612V23.7188C19.5433 18.7784 15.6878 14.7153 10.839 14.4194Z" fill="#EA8439"/>
<path fill-rule="evenodd" clip-rule="evenodd" d="M10.1714 1.5C6.73851 1.5 3.95569 4.26583 3.95569 7.72598C3.95569 11.003 6.45182 13.6571 9.63122 13.929C9.89104 13.9512 10.0902 14.1693 10.0886 14.4301C10.0871 14.6909 9.88539 14.9067 9.62533 14.9258C5.09224 15.2595 1.5 19.0796 1.5 23.7188V25.4097L19.0433 25.3625V23.7188C19.0433 19.0422 15.3931 15.1982 10.8085 14.9184C10.5482 14.9026 10.3439 14.6893 10.339 14.4286C10.3342 14.1679 10.5306 13.9472 10.7901 13.9218C13.9319 13.6133 16.3871 10.9759 16.3871 7.72598C16.3871 4.26583 13.6043 1.5 10.1714 1.5ZM2.95569 7.72598C2.95569 3.71282 6.18694 0.5 10.1714 0.5C14.1558 0.5 17.3871 3.71282 17.3871 7.72598C17.3871 10.6819 15.6342 13.2037 13.1179 14.3272C17.1234 15.5557 20.0433 19.3057 20.0433 23.7188V25.8612C20.0433 26.1368 19.8203 26.3604 19.5446 26.3612L1.00134 26.411C0.868503 26.4114 0.740981 26.3588 0.646922 26.265C0.552863 26.1712 0.5 26.0438 0.5 25.911V23.7188C0.5 19.3487 3.36321 15.629 7.30844 14.3639C4.74754 13.2593 2.95569 10.7145 2.95569 7.72598Z" fill="#EA8439"/>
</svg>
