<svg width="21" height="27" viewBox="0 0 21 27" fill="none" xmlns="http://www.w3.org/2000/svg">
<path fill-rule="evenodd" clip-rule="evenodd" d="M10.2717 14.9021C5.43832 14.9021 1.5 18.8608 1.5 23.7188V25.4097L19.0433 25.3625V23.7188C19.0433 18.8608 15.105 14.9021 10.2717 14.9021ZM0.5 23.7188C0.5 18.3135 4.88111 13.9021 10.2717 13.9021C15.6622 13.9021 20.0433 18.3135 20.0433 23.7188V25.8612C20.0433 26.1368 19.8203 26.3604 19.5446 26.3612L1.00134 26.411C0.868503 26.4114 0.740981 26.3588 0.646922 26.265C0.552863 26.1712 0.5 26.0438 0.5 25.911V23.7188Z" fill="#B3C1C9"/>
<path fill-rule="evenodd" clip-rule="evenodd" d="M10.1714 1.5C6.73851 1.5 3.95569 4.26583 3.95569 7.72598C3.95569 11.1861 6.73851 13.952 10.1714 13.952C13.6043 13.952 16.3871 11.1861 16.3871 7.72598C16.3871 4.26583 13.6043 1.5 10.1714 1.5ZM2.95569 7.72598C2.95569 3.71282 6.18694 0.5 10.1714 0.5C14.1558 0.5 17.3871 3.71282 17.3871 7.72598C17.3871 11.7391 14.1558 14.952 10.1714 14.952C6.18694 14.952 2.95569 11.7391 2.95569 7.72598Z" fill="#B3C1C9"/>
</svg>
