<svg width="26" height="26" viewBox="0 0 26 26" fill="none" xmlns="http://www.w3.org/2000/svg">
<path fill-rule="evenodd" clip-rule="evenodd" d="M18.5142 4.38129C14.6498 0.539572 8.29917 0.539572 4.43471 4.38129L4.43253 4.38345L4.43252 4.38344C0.523707 8.22186 0.520549 14.4785 4.43471 18.3696L4.43688 18.3718C8.30084 22.2604 14.6481 22.2604 18.512 18.3718L18.5164 18.3674L18.5164 18.3674C22.4264 14.5278 22.4264 8.22306 18.5164 4.38344L18.5142 4.38129ZM19.2182 3.67102C14.9639 -0.557008 7.98501 -0.557008 3.73077 3.67102C-0.578128 7.9035 -0.574981 14.7983 3.72856 19.0777C7.86551 23.2399 14.5811 23.3552 18.8608 19.4234L24.7287 25.2567L25.4337 24.5475L19.5699 18.7182C23.5225 14.4617 23.4052 7.78385 19.2182 3.67102Z" fill="#EA8439"/>
</svg>
