<svg width="22" height="26" viewBox="0 0 22 26" fill="none" xmlns="http://www.w3.org/2000/svg">
<path fill-rule="evenodd" clip-rule="evenodd" d="M0.5 9.76862C0.5 7.79597 2.28284 6.2793 4.35784 6.2793H4.95924C5.23538 6.2793 5.45924 6.50315 5.45924 6.7793C5.45924 7.05544 5.23538 7.2793 4.95924 7.2793H4.35784C2.72418 7.2793 1.5 8.45302 1.5 9.76862V21.7259C1.5 23.0415 2.72418 24.2152 4.35784 24.2152H17.7391C19.3727 24.2152 20.5969 23.0415 20.5969 21.7259V9.76862C20.5969 8.45302 19.3727 7.2793 17.7391 7.2793H16.8871C16.6109 7.2793 16.3871 7.05544 16.3871 6.7793C16.3871 6.50315 16.6109 6.2793 16.8871 6.2793H17.7391C19.8141 6.2793 21.5969 7.79597 21.5969 9.76862V21.7259C21.5969 23.6986 19.8141 25.2152 17.7391 25.2152H4.35784C2.28284 25.2152 0.5 23.6986 0.5 21.7259V9.76862Z" fill="#EA8439"/>
<path fill-rule="evenodd" clip-rule="evenodd" d="M10.723 0.643384C10.9191 0.450616 11.2344 0.452365 11.4283 0.647747L15.1871 4.43422C15.3816 4.6302 15.3805 4.94678 15.1845 5.14133C14.9885 5.33587 14.6719 5.33471 14.4774 5.13873L11.5735 2.2134V9.02135H10.5735V2.19095L7.61473 5.09358L6.91443 4.37973L10.723 0.643384Z" fill="#EA8439"/>
</svg>
