<svg width="22" height="23" viewBox="0 0 22 23" fill="none" xmlns="http://www.w3.org/2000/svg">
<path fill-rule="evenodd" clip-rule="evenodd" d="M6.73344 7.89692C6.73344 7.8968 6.73343 7.89664 6.23428 7.9259C5.73514 7.95515 5.73513 7.95494 5.73512 7.95471L5.73499 7.95245L5.7347 7.94724L5.73382 7.9294C5.73311 7.91427 5.7322 7.89273 5.73126 7.8652C5.72938 7.81015 5.72739 7.7311 5.72676 7.63144C5.72551 7.43228 5.72969 7.14998 5.75114 6.81205C5.79387 6.13904 5.90595 5.2315 6.18765 4.31591C6.46847 3.40318 6.92768 2.45045 7.68572 1.72172C8.45586 0.981355 9.5066 0.5 10.902 0.5C12.2971 0.5 13.3578 0.980984 14.1449 1.71695C14.9206 2.44221 15.4065 3.39148 15.7137 4.30328C16.0219 5.21771 16.1605 6.12455 16.2229 6.79753C16.2543 7.13538 16.2667 7.41763 16.2713 7.61679C16.2736 7.71644 16.2739 7.79551 16.2737 7.85056C16.2735 7.87809 16.2732 7.89964 16.273 7.91477L16.2726 7.93262L16.2725 7.93784L16.2724 7.93951C16.2724 7.93974 16.2724 7.94054 15.7726 7.9259C15.2728 7.91125 15.2728 7.9114 15.2728 7.91153L15.2729 7.90914L15.2731 7.89729C15.2733 7.88621 15.2736 7.86887 15.2737 7.84567C15.2739 7.79927 15.2736 7.72953 15.2716 7.63981C15.2674 7.46021 15.2561 7.20137 15.2272 6.88992C15.1691 6.26429 15.0414 5.43966 14.7661 4.62261C14.4899 3.80294 14.0752 3.02074 13.462 2.4474C12.8602 1.88475 12.0437 1.5 10.902 1.5C9.76057 1.5 8.95945 1.88438 8.37875 2.44263C7.78595 3.0125 7.39533 3.79124 7.14343 4.60998C6.8924 5.42587 6.78885 6.24981 6.74913 6.87541C6.72937 7.18677 6.72562 7.44556 6.72674 7.62516C6.72731 7.71488 6.72909 7.78462 6.73067 7.83103C6.73147 7.85423 6.73221 7.87158 6.73273 7.88266L6.73331 7.89452L6.73344 7.89692Z" fill="#EA8439"/>
<path d="M0 10.926C0 9.26917 1.34315 7.92603 3 7.92603H19C20.6569 7.92603 22 9.26917 22 10.926V20C22 21.6569 20.6569 23 19 23H3C1.34315 23 0 21.6569 0 20V10.926Z" fill="#EA8439"/>
<path fill-rule="evenodd" clip-rule="evenodd" d="M19 8.92603H3C1.89543 8.92603 1 9.82146 1 10.926V20C1 21.1046 1.89543 22 3 22H19C20.1046 22 21 21.1046 21 20V10.926C21 9.82146 20.1046 8.92603 19 8.92603ZM3 7.92603C1.34315 7.92603 0 9.26917 0 10.926V20C0 21.6569 1.34315 23 3 23H19C20.6569 23 22 21.6569 22 20V10.926C22 9.26917 20.6569 7.92603 19 7.92603H3Z" fill="#EA8439"/>
<path d="M7.39612 13.2036C7.39612 13.7559 6.9484 14.2036 6.39612 14.2036C5.84383 14.2036 5.39612 13.7559 5.39612 13.2036C5.39612 12.6513 5.84383 12.2036 6.39612 12.2036C6.9484 12.2036 7.39612 12.6513 7.39612 13.2036Z" fill="white"/>
<path d="M16.9435 13.2036C16.9435 13.7559 16.4958 14.2036 15.9435 14.2036C15.3912 14.2036 14.9435 13.7559 14.9435 13.2036C14.9435 12.6513 15.3912 12.2036 15.9435 12.2036C16.4958 12.2036 16.9435 12.6513 16.9435 13.2036Z" fill="white"/>
</svg>
