<svg width="18" height="16" viewBox="0 0 18 16" fill="none" xmlns="http://www.w3.org/2000/svg">
<path d="M5.39236 4.30141L6.42109 3.27268L3.21055 0.0621338L0 3.27268L1.02873 4.30141L2.48327 2.84686V13.153L1.02873 11.6985L0 12.7272L3.21055 15.9378L6.42109 12.7272L5.39236 11.6985L3.93782 13.153V2.84686L5.39236 4.30141Z" fill="#B3C1C9"/>
<path d="M17.3927 0H7.93813V1.45455H17.3927V0Z" fill="#B3C1C9"/>
<path d="M17.3927 7.27271H7.93813V8.72725H17.3927V7.27271Z" fill="#B3C1C9"/>
<path d="M14.4836 3.63641H7.93813V5.09096H14.4836V3.63641Z" fill="#B3C1C9"/>
<path d="M14.4836 10.9091H7.93813V12.3637H14.4836V10.9091Z" fill="#B3C1C9"/>
<path d="M17.3927 14.5454H7.93813V16H17.3927V14.5454Z" fill="#B3C1C9"/>
</svg>
