<svg width="22" height="23" viewBox="0 0 22 23" fill="none" xmlns="http://www.w3.org/2000/svg">
<path d="M21.6071 3.28967H0.392902C0.175732 3.28967 0 3.4662 0 3.68426V5.6575V19.47C0 19.6881 0.175732 19.8646 0.392902 19.8646H21.6071C21.8243 19.8646 22 19.6881 22 19.47V5.6575V3.68426C22 3.4662 21.8243 3.28967 21.6071 3.28967ZM21.2143 19.0754H0.785704V6.05219H21.2143V19.0754V19.0754ZM21.2143 5.26291H0.785704V4.07895H21.2143V5.26291V5.26291Z" fill="#B3C1C9"/>
<path d="M2.75032 11.5773H7.46465C7.68182 11.5773 7.85755 11.4008 7.85755 11.1826V7.23602C7.85745 7.01796 7.68171 6.84143 7.46454 6.84143H2.75032C2.53315 6.84143 2.35742 7.01796 2.35742 7.23612V11.1826C2.35742 11.4008 2.53315 11.5773 2.75032 11.5773ZM3.14313 7.63071H7.07174V10.7878H3.14313V7.63071Z" fill="#B3C1C9"/>
<path d="M2.75032 16.7077H7.46465C7.68182 16.7077 7.85755 16.5311 7.85755 16.313V12.3665C7.85745 12.1483 7.68171 11.9718 7.46454 11.9718H2.75032C2.53315 11.9718 2.35742 12.1483 2.35742 12.3665V16.313C2.35742 16.5311 2.53315 16.7077 2.75032 16.7077ZM3.14313 12.7612H7.07174V15.9183H3.14313V12.7612Z" fill="#B3C1C9"/>
<path d="M14.5355 11.5773H19.2498C19.467 11.5773 19.6427 11.4008 19.6427 11.1826V7.23602C19.6427 7.01796 19.467 6.84143 19.2498 6.84143H14.5355C14.3183 6.84143 14.1426 7.01796 14.1426 7.23612V11.1826C14.1426 11.4008 14.3183 11.5773 14.5355 11.5773ZM14.9283 7.63071H18.8569V10.7878H14.9283V7.63071Z" fill="#B3C1C9"/>
<path d="M14.5355 16.7077H19.2498C19.467 16.7077 19.6427 16.5311 19.6427 16.313V12.3665C19.6427 12.1483 19.467 11.9718 19.2498 11.9718H14.5355C14.3183 11.9718 14.1426 12.1483 14.1426 12.3665V16.313C14.1426 16.5311 14.3183 16.7077 14.5355 16.7077ZM14.9283 12.7612H18.8569V15.9183H14.9283V12.7612Z" fill="#B3C1C9"/>
<path d="M8.6429 11.5773H13.3572C13.5744 11.5773 13.7501 11.4008 13.7501 11.1826V7.23602C13.75 7.01796 13.5743 6.84143 13.3572 6.84143H8.6429C8.42573 6.84143 8.25 7.01796 8.25 7.23612V11.1826C8.25 11.4008 8.42573 11.5773 8.6429 11.5773ZM9.03581 7.63071H12.9644V10.7878H12.9643H9.03581V7.63071Z" fill="#B3C1C9"/>
<path d="M8.6429 16.7077H13.3572C13.5744 16.7077 13.7501 16.5311 13.7501 16.313V12.3665C13.75 12.1483 13.5743 11.9718 13.3572 11.9718H8.6429C8.42573 11.9718 8.25 12.1483 8.25 12.3665V16.313C8.25 16.5311 8.42573 16.7077 8.6429 16.7077ZM9.03581 12.7612H12.9644V15.9183H12.9643H9.03581V12.7612Z" fill="#B3C1C9"/>
</svg>
