<svg width="26" height="26" viewBox="0 0 26 26" fill="none" xmlns="http://www.w3.org/2000/svg">
<path fill-rule="evenodd" clip-rule="evenodd" d="M0.5 12.9573C0.5 6.05204 6.08917 0.5 13.0281 0.5C19.967 0.5 25.5562 6.05204 25.5562 12.9573C25.5562 19.8626 19.967 25.4146 13.0281 25.4146C6.08917 25.4146 0.5 19.8626 0.5 12.9573ZM13.0281 1.5C6.63588 1.5 1.5 6.60988 1.5 12.9573C1.5 19.3047 6.63588 24.4146 13.0281 24.4146C19.4203 24.4146 24.5562 19.3047 24.5562 12.9573C24.5562 6.60988 19.4203 1.5 13.0281 1.5Z" fill="#B3C1C9"/>
<path fill-rule="evenodd" clip-rule="evenodd" d="M13.028 8.47144C13.3042 8.47144 13.528 8.69529 13.528 8.97144V12.4572H17.0374V13.4572H13.528V16.943C13.528 17.2191 13.3042 17.443 13.028 17.443C12.7519 17.443 12.528 17.2191 12.528 16.943V13.4572H9.01868V12.4572H12.528V8.97144C12.528 8.69529 12.7519 8.47144 13.028 8.47144Z" fill="#B3C1C9"/>
</svg>
